<svg xmlns="http://www.w3.org/2000/svg" width="42" height="42" viewBox="0 0 42 42"><defs><style>.a{fill:#475993;}</style></defs><path class="a" d="M36.342,0H5.662A5.66,5.66,0,0,0,0,5.66V36.34A5.66,5.66,0,0,0,5.662,42H20.793l.026-15.008h-3.9a.92.92,0,0,1-.92-.916l-.019-4.838a.92.92,0,0,1,.92-.924h3.892V15.639c0-5.425,3.313-8.379,8.152-8.379h3.971a.92.92,0,0,1,.92.92V12.26a.92.92,0,0,1-.92.92H30.48c-2.632,0-3.141,1.251-3.141,3.086v4.047h5.783a.92.92,0,0,1,.914,1.028l-.573,4.838a.92.92,0,0,1-.914.812H27.365L27.339,42h9A5.659,5.659,0,0,0,42,36.341V5.66A5.66,5.66,0,0,0,36.342,0Z" transform="translate(-0.002)"/></svg>