<svg xmlns="http://www.w3.org/2000/svg" width="90.16" height="32" viewBox="0 0 90.16 32"><defs><style>.a{fill:#3c7c47;}.b{fill:#fefefe;}.c{fill:#00a650;}.d{fill:#128a4a;}.e{fill:#c1d55d;}.f{fill:#128949;}.g{fill:#138949;}.h{fill:#01a651;}.i{fill:#03a752;}.j{fill:#c4d664;}.k{fill:#02a651;}.l{fill:#c1d55e;}.m{fill:#06a854;}.n{fill:#03a753;}.o{fill:#087141;}.p{fill:#66b947;}</style></defs><g transform="translate(483.394 -23.475)"><g transform="translate(-483.394 23.475)"><rect class="a" width="31.888" height="31.888" rx="5" transform="translate(0)"/><g transform="translate(3.674)"><rect class="a" width="24.539" height="32" rx="12.27"/><g transform="translate(4.62 2.5)"><path class="b" d="M-425.235,50.764v-.094c0-.19-.021-.211-.207-.221h-.02c-.03,0-.049,0-.064-.018s0-.051,0-.076a1.477,1.477,0,0,0,0-.2.089.089,0,0,0,0-.023c-.006-.063-.013-.147-.113-.165a.077.077,0,0,0-.043-.021c-.007,0-.024-.006-.026-.01s0-.011.025-.044a.148.148,0,0,0,.024-.112.23.23,0,0,0-.089-.153l0,0h0l-.016-.014-.02-.018h0a.834.834,0,0,0-.294-.14l-.039-.013.047-1.133,1.022-.808.01-.008-.357-1.268.729-1.1-.729-1.1.357-1.268-1.034-.817-.054-1.315-1.234-.457-.453-1.222,0-.012-1.315-.054-.808-1.022-.008-.01-1.268.357-1.1-.729-1.1.729-1.255-.353-.013,0-.818,1.034-1.315.054-.387,1.044v-.013q-.092-.792-.186-1.583l-.093-.789v-.005c0-.039-.007-.078-.011-.116a3.12,3.12,0,0,1-.021-.441.173.173,0,0,0-.051-.139.189.189,0,0,1,0-.118.1.1,0,0,0,.031-.074.14.14,0,0,0-.061-.089.062.062,0,0,0-.034-.051.034.034,0,0,0-.039.006l-.025.026c-.05.05-.111.112-.06.208a.037.037,0,0,0,.01.029l-.065.665a4.5,4.5,0,0,0-.061.549c-.007.1-.014.207-.025.31v0a6.544,6.544,0,0,0-.087.9l-.006.013a.117.117,0,0,0-.015.043q-.026.25-.051.5c-.022.22-.045.445-.068.67l-.379.141-.054,1.315-1.022.808-.01.008.356,1.268-.729,1.1.729,1.1-.356,1.268.754.6v.587c0,.638,0,1.29,0,1.941a1.852,1.852,0,0,0-1.134,1.752,1.777,1.777,0,0,0,1.685,1.854h11.9a1.777,1.777,0,0,0,1.685-1.854,1.94,1.94,0,0,0-.524-1.342A2.344,2.344,0,0,1-425.235,50.764Zm-.129-3.38-.7.551.031-.767.426-.639Zm.356-2.259-.492.74-.208-.74.208-.739Zm-.356-2.259-.241.855-.426-.639-.032-.767Zm-1.04-2.038.036.888-.6-.477-.267-.721Zm-1.617-1.617.309.833-.72-.267-.477-.6Zm-2.037-1.039.551.7-.767-.032-.639-.425Zm-.311.94,0,0,1.086.045.674.854,1.022.378.375,1.015,0,0,.853.674.044,1.081v.006l.6.905L-426,45.119v.005l.295,1.048-.6.9,0,0-.044,1.086-.014.011c-.029-.049-.089-.06-.212-.066h-.034c-.024,0-.051,0-.063-.007a.04.04,0,0,1-.009-.03.871.871,0,0,0-.032-.2.649.649,0,0,1-.028-.242.375.375,0,0,0-.1-.36.047.047,0,0,1-.009-.057.382.382,0,0,0-.017-.268c-.007-.022-.015-.046-.02-.068v-.422c0-.011.007-.023.011-.034a.239.239,0,0,0,.011-.177.136.136,0,0,0-.089-.062c-.117-.034-.129-.1-.136-.2a1.261,1.261,0,0,1,0-.136.65.65,0,0,0-.026-.282h0l0,0-.011-.028a.359.359,0,0,1-.016-.114v-.024a.2.2,0,0,0-.058-.176,1.529,1.529,0,0,0-.2-.738h0v0a.012.012,0,0,1,0-.009.177.177,0,0,0-.018-.133q-.11-.218-.218-.436l-.057-.113h0a1.009,1.009,0,0,0-.341-.449c-.065-.059-.129-.123-.19-.185a2.227,2.227,0,0,0-.461-.388,1.443,1.443,0,0,0-.4-.315.475.475,0,0,0-.13-.109l-.041-.027a.142.142,0,0,0-.052-.065.213.213,0,0,1-.028-.026c-.029-.042-.062-.089-.129-.087l-.021-.019a.965.965,0,0,0-.372-.318h-.005a.171.171,0,0,1-.032-.024.132.132,0,0,0-.075-.04.417.417,0,0,0-.14-.107.434.434,0,0,0-.142-.132l-.028-.027v0l-.007,0-.285-.278a.276.276,0,0,0-.177-.1l-.02,0-.473-.474a.655.655,0,0,0-.26-.454.106.106,0,0,0-.034-.052c-.026-.024-.04-.038-.009-.078a.321.321,0,0,0-.006-.345l-.011-.028v-.007h0l-.049-.121.01.1c-.079-.056-.089-.131-.034-.238.109-.106.054-.22.01-.312l-.009-.019a.25.25,0,0,1-.007-.239.3.3,0,0,0,.034-.2l.346-.1Zm-1.209-.8-.152.043-.006-.014a.252.252,0,0,1-.029-.113.09.09,0,0,0-.012-.048Zm-.74-.492.481.32a.066.066,0,0,0-.024,0,.058.058,0,0,0-.039.029.1.1,0,0,0,0,.08.3.3,0,0,1,.015.148l-.433.122-.74-.208Zm-2.259.356.856.241-.639.425-.767.032Zm-2.038,1.039.888-.036-.477.6-.721.267Zm-.437,1.18,1.022-.378.674-.853,1.081-.045h.006l.905-.6,1.048.295.208-.059a.1.1,0,0,0,.014.081.27.27,0,0,1,.023.2c0,.019-.006.038-.008.058l0,0,0,.009,0,.042.006,0a.376.376,0,0,1-.011.062.206.206,0,0,0,.011.164c.006.021.014.043.021.064.041.122.077.228-.039.318v-.006l-.031.028-.009.006v0a.139.139,0,0,0-.03.115.147.147,0,0,1-.006.068.119.119,0,0,0-.006.113.118.118,0,0,0,.1.046.1.1,0,0,1-.024.071l-.022.018-.019.015c-.136-.023-.194.079-.241.161l-.007.012a2.572,2.572,0,0,1-.692.727c-.02.016-.043.03-.065.046a.425.425,0,0,0-.174.175,1.881,1.881,0,0,1-.184.136,1.479,1.479,0,0,0-.245.194,2.019,2.019,0,0,0-.335.227.31.31,0,0,0-.2.147l-.251.17h0a1.653,1.653,0,0,0-.549.39.179.179,0,0,0-.115.1,1.568,1.568,0,0,1-.223.26c-.049.05-.1.1-.146.156a.23.23,0,0,0-.088.091l-.284.372h-.008l0,.006a1.329,1.329,0,0,0-.246.369.046.046,0,0,0-.01.02.958.958,0,0,0-.154.216,1.388,1.388,0,0,1-.093.146h0l-.007.011-.019.023h0l-.034.053h0l-.012.019-.011.017h0l-.01.016-.06.1h0a.262.262,0,0,0-.083.148l-.019.021a.083.083,0,0,0-.052.045.541.541,0,0,0,0-.068.582.582,0,0,1,.012-.121.348.348,0,0,0-.02-.244h0l0,0v0a.272.272,0,0,1-.009-.207.469.469,0,0,0,.016-.145l.027-.074.182-.187,0,.039.041-.061.006,0v-.007h0l.006-.01.042-.034-.024.007.053-.079h.005l0-.016.013-.02h-.007a.359.359,0,0,0,.011-.267c-.034-.062-.117-.094-.236-.124l-.063-.018a.573.573,0,0,0-.147-.032c-.1,0-.138-.043-.136-.161,0-.38,0-.768,0-1.142v-.405a.157.157,0,0,1,.023-.045.117.117,0,0,0,.027-.09.1.1,0,0,0-.057-.061.348.348,0,0,1-.083-.2q-.02-.2-.044-.409Zm-1.18.437.073-.027-.016.145c0,.02,0,.042,0,.063,0,.074-.006.146-.068.189Zm-.074,1.81V42.8c0,.021,0,.043,0,.066a.252.252,0,0,1-.019.16Zm-.965.227.7-.551-.032.767-.031.047-.136.029c-.05.011-.144.032-.146.126,0,.03,0,.06,0,.09a.888.888,0,0,0,0,.183l-.108.163Zm-.356,2.259.492-.739.208.739-.208.739Zm.663,2.484a.091.091,0,0,0,0,.018l-.307-.242.092-.328a.15.15,0,0,0,.105.053.3.3,0,0,1,.043.011l.025.131a.667.667,0,0,0,.022.177.6.6,0,0,1,.019.18Zm.087.087h.023a.1.1,0,0,1,.011.026Zm-.053-1.523.293-1.042v-.005l-.3-1.048.229-.344c.02.024.041.048.063.07a.328.328,0,0,1,.126.233,4.577,4.577,0,0,0,.009.458c0,.09.01.183.011.274.005.358,0,.722,0,1.075v.425a.132.132,0,0,1-.055.024.14.14,0,0,0-.083.047.509.509,0,0,1-.156.006h-.029Zm14.009,6.265a1.538,1.538,0,0,1-1.536,1.536h-11.761a1.538,1.538,0,0,1-1.536-1.536V52.29a1.538,1.538,0,0,1,1.536-1.536h11.761a1.538,1.538,0,0,1,1.536,1.536Z" transform="translate(439.971 -36.561)"/><g transform="translate(0.298 14.273)"><path class="b" d="M-415.99,118.071a.333.333,0,0,0-.17-.045.327.327,0,0,0-.167.044.331.331,0,0,0-.124.129.4.4,0,0,0-.047.2.416.416,0,0,0,.047.2.34.34,0,0,0,.125.133.318.318,0,0,0,.165.046.336.336,0,0,0,.17-.045.328.328,0,0,0,.125-.13.417.417,0,0,0,.046-.2.418.418,0,0,0-.046-.2A.327.327,0,0,0-415.99,118.071Z" transform="translate(420.683 -116.738)"/><path class="b" d="M-390.305,118.071a.333.333,0,0,0-.17-.045.328.328,0,0,0-.167.044.33.33,0,0,0-.124.129.4.4,0,0,0-.047.2.415.415,0,0,0,.047.2.339.339,0,0,0,.125.133.32.32,0,0,0,.166.046.335.335,0,0,0,.17-.045.326.326,0,0,0,.125-.13.415.415,0,0,0,.046-.2.416.416,0,0,0-.046-.2A.326.326,0,0,0-390.305,118.071Z" transform="translate(399.905 -116.738)"/><path class="b" d="M-397.784,118a.321.321,0,0,0-.215-.075.3.3,0,0,0-.2.073.322.322,0,0,0-.1.2h.609A.258.258,0,0,0-397.784,118Z" transform="translate(405.966 -116.659)"/><path class="b" d="M-375.559,118.071a.333.333,0,0,0-.17-.045.329.329,0,0,0-.167.044.332.332,0,0,0-.124.129.4.4,0,0,0-.047.2.417.417,0,0,0,.047.2.339.339,0,0,0,.125.133.318.318,0,0,0,.165.046.335.335,0,0,0,.17-.045.327.327,0,0,0,.125-.13.415.415,0,0,0,.046-.2.416.416,0,0,0-.046-.2A.329.329,0,0,0-375.559,118.071Z" transform="translate(387.976 -116.738)"/><path class="b" d="M-425.195,111.284h-11.761a1.457,1.457,0,0,0-1.455,1.455v.146a1.457,1.457,0,0,0,1.455,1.455h11.761a1.457,1.457,0,0,0,1.455-1.455v-.146A1.457,1.457,0,0,0-425.195,111.284Zm-9.585,2.307h-.324v-.709a.32.32,0,0,0-.077-.231.275.275,0,0,0-.209-.08.277.277,0,0,0-.209.08.317.317,0,0,0-.078.231v.709H-436v-.709a.32.32,0,0,0-.076-.231.275.275,0,0,0-.208-.08.28.28,0,0,0-.212.08.317.317,0,0,0-.078.231v.709h-.324v-1.283h.324v.155a.432.432,0,0,1,.161-.127.5.5,0,0,1,.217-.046.557.557,0,0,1,.269.064.445.445,0,0,1,.183.182.464.464,0,0,1,.182-.178.519.519,0,0,1,.258-.068.516.516,0,0,1,.381.145.546.546,0,0,1,.145.4Zm1.561,0h-.327V113.4a.481.481,0,0,1-.173.15.526.526,0,0,1-.253.059.544.544,0,0,1-.3-.083.584.584,0,0,1-.211-.235.757.757,0,0,1-.078-.348.744.744,0,0,1,.078-.345.569.569,0,0,1,.211-.232.561.561,0,0,1,.3-.081.522.522,0,0,1,.251.058.508.508,0,0,1,.173.146v-.183h.327Zm1.252-.167a.4.4,0,0,1-.176.136.665.665,0,0,1-.268.05.676.676,0,0,1-.283-.057.5.5,0,0,1-.2-.154.389.389,0,0,1-.08-.215h.327a.176.176,0,0,0,.073.123.256.256,0,0,0,.159.049.246.246,0,0,0,.145-.037.113.113,0,0,0,.052-.095.1.1,0,0,0-.064-.094,1.2,1.2,0,0,0-.2-.068,1.715,1.715,0,0,1-.235-.072.407.407,0,0,1-.157-.113.306.306,0,0,1-.066-.206.333.333,0,0,1,.061-.194.413.413,0,0,1,.176-.139.66.66,0,0,1,.27-.051.55.55,0,0,1,.366.115.424.424,0,0,1,.151.309h-.311a.168.168,0,0,0-.064-.122.239.239,0,0,0-.152-.045.239.239,0,0,0-.136.034.1.1,0,0,0-.047.09.106.106,0,0,0,.065.1,1,1,0,0,0,.2.068,1.725,1.725,0,0,1,.229.072.4.4,0,0,1,.156.115.315.315,0,0,1,.068.2.342.342,0,0,1-.059.2Zm.652.378a.394.394,0,0,1-.105.307.439.439,0,0,1-.3.094h-.144v-.275h.093a.149.149,0,0,0,.1-.029.125.125,0,0,0,.03-.094v-1.5h.324Zm-.018-1.7a.2.2,0,0,1-.142.054.2.2,0,0,1-.145-.054.18.18,0,0,1-.057-.136.18.18,0,0,1,.057-.136.2.2,0,0,1,.145-.054.2.2,0,0,1,.142.054.183.183,0,0,1,.055.136.183.183,0,0,1-.056.138Zm1.522.946h-.938a.319.319,0,0,0,.1.218.3.3,0,0,0,.211.079.265.265,0,0,0,.257-.155h.35a.584.584,0,0,1-.213.3.623.623,0,0,1-.387.119.669.669,0,0,1-.333-.082.579.579,0,0,1-.229-.233.712.712,0,0,1-.082-.347.728.728,0,0,1,.081-.35.567.567,0,0,1,.227-.231.682.682,0,0,1,.336-.081.677.677,0,0,1,.328.079.557.557,0,0,1,.225.223.679.679,0,0,1,.08.332.786.786,0,0,1-.009.127Zm1.5.545h-.329v-.19a.44.44,0,0,1-.17.153.53.53,0,0,1-.252.058.552.552,0,0,1-.3-.083.578.578,0,0,1-.212-.235.754.754,0,0,1-.078-.348.743.743,0,0,1,.078-.345.567.567,0,0,1,.212-.232.567.567,0,0,1,.3-.081.545.545,0,0,1,.238.055.476.476,0,0,1,.181.145v-.61h.329Zm.6-.038a.194.194,0,0,1-.141.055.2.2,0,0,1-.145-.055.181.181,0,0,1-.057-.136.181.181,0,0,1,.057-.136.2.2,0,0,1,.145-.054.193.193,0,0,1,.141.054.182.182,0,0,1,.055.136.182.182,0,0,1-.055.137Zm.642.038h-.324v-1.283h.324Zm-.017-1.49a.2.2,0,0,1-.142.055.2.2,0,0,1-.142-.055.18.18,0,0,1-.057-.136.18.18,0,0,1,.057-.136.2.2,0,0,1,.142-.055.2.2,0,0,1,.142.055.18.18,0,0,1,.057.136.18.18,0,0,1-.057.137Zm1.59,1.49h-.329v-.19a.44.44,0,0,1-.17.153.528.528,0,0,1-.252.058.552.552,0,0,1-.3-.083.578.578,0,0,1-.212-.235.757.757,0,0,1-.078-.348.744.744,0,0,1,.078-.345.566.566,0,0,1,.212-.232.567.567,0,0,1,.3-.081.545.545,0,0,1,.238.055.477.477,0,0,1,.181.145v-.61h.329Z" transform="translate(438.41 -111.284)"/></g><g transform="translate(0.427 17.932)"><path class="b" d="M-437.738,168.261c.575-.149,1.141-.27,1.708-.382.931-.185,1.867-.342,2.807-.478q1.006-.146,2.017-.261c.668-.077,1.336-.147,2.006-.205q.974-.085,1.95-.13c1.075-.049,2.151-.066,3.227-.036.762.021,1.522.06,2.284.147a.108.108,0,0,1-.074.013c-.977.015-1.953.062-2.929.129q-1.278.088-2.553.225-1.452.155-2.9.366a55.906,55.906,0,0,0-5.8,1.137,2.289,2.289,0,0,1-.367.08.823.823,0,0,1-.476-.1q-.436-.238-.871-.479A.422.422,0,0,1-437.738,168.261Z" transform="translate(437.738 -159.818)"/><path class="b" d="M-410.907,138.837c-.025.192-.049.385-.075.577q-.122.923-.244,1.846a6.113,6.113,0,0,1-.284,1.3,1.671,1.671,0,0,1-.914.98,3.568,3.568,0,0,1-.676.23.113.113,0,0,1-.153-.08q-.126-.377-.249-.756a.094.094,0,0,1,.067-.126c.091-.037.181-.076.272-.114a1.056,1.056,0,0,0,.665-.893c.145-.971.274-1.945.411-2.917.016-.117.067-.164.182-.164q.43,0,.861,0C-410.955,138.72-410.909,138.762-410.907,138.837Z" transform="translate(418.137 -137.138)"/><path class="b" d="M-376,135.49c.144,0,.287,0,.431,0,.125,0,.16.044.136.168q-.186.926-.373,1.852-.086.426-.171.852c-.026.129-.052.152-.186.152h-.592c-.114,0-.154-.049-.143-.163q.122-1.272.243-2.543c0-.042.01-.083.014-.125.012-.144.058-.189.2-.192S-376.145,135.49-376,135.49Z" transform="translate(388.521 -134.525)"/><path class="b" d="M-377.336,153.707a.768.768,0,0,1-1.035.685.527.527,0,0,1-.315-.607.777.777,0,0,1,.949-.611A.548.548,0,0,1-377.336,153.707Z" transform="translate(389.975 -148.811)"/><path class="b" d="M-404.623,130.443a.521.521,0,0,1,.533.6.825.825,0,0,1-.677.7.525.525,0,0,1-.613-.656A.8.8,0,0,1-404.623,130.443Z" transform="translate(411.573 -130.443)"/><path class="b" d="M-429.141,137.042q-.165-.984-.329-1.969c-.127-.759-.253-1.519-.381-2.278a.389.389,0,0,0-.4-.34c-.239,0-.478-.006-.717,0a.542.542,0,0,0-.51.335q-.962,2.127-1.921,4.256c-.053.118-.015.174.117.173.308,0,.616-.007.924-.006a.207.207,0,0,0,.212-.144c.1-.237.2-.471.3-.708a.1.1,0,0,1,.114-.075c.188,0,.376,0,.565,0s.377,0,.565,0c.075,0,.106.022.112.1.018.223.042.446.066.669a.174.174,0,0,0,.2.181q.462,0,.924,0C-429.169,137.235-429.12,137.172-429.141,137.042Zm-1.612-1.748h-.537c-.094,0-.1-.01-.065-.1q.229-.582.459-1.162c.022-.056.042-.112.066-.166.01-.022.01-.06.048-.053s.021.039.023.06q.044.463.086.927c.011.122.024.243.034.365S-430.643,135.293-430.753,135.294Z" transform="translate(434.247 -132.067)"/><path class="b" d="M-395.168,138.557a4.418,4.418,0,0,0-1.878-.166,1.621,1.621,0,0,0-1.336.969,3.058,3.058,0,0,0-.236,1.647,1.081,1.081,0,0,0,.936,1.021,3.838,3.838,0,0,0,.7.073,3.744,3.744,0,0,0,1.372-.262.313.313,0,0,0,.211-.283c.034-.3.074-.6.113-.907q.121-.951.242-1.9C-395.025,138.635-395.056,138.59-395.168,138.557Zm-1.156,1.026q-.085.662-.167,1.324a.088.088,0,0,1-.078.09,1.535,1.535,0,0,1-.345.049.444.444,0,0,1-.473-.426c-.006-.053-.007-.107-.009-.139a2.03,2.03,0,0,1,.117-.635.655.655,0,0,1,.813-.463C-396.3,139.414-396.3,139.414-396.324,139.583Z" transform="translate(406.111 -136.842)"/></g></g></g></g><g transform="translate(-445.519 32.421)"><path class="c" d="M-282.278,78.788l-1.639-2.153v2.153H-285.1V73.913h1.188v2.139l1.625-2.139h1.4l-1.889,2.389,1.958,2.486Z" transform="translate(285.104 -73.226)"/><path class="c" d="M-255.116,82.6a1.78,1.78,0,0,1-.715-.695,2.077,2.077,0,0,1-.26-1.056,2.057,2.057,0,0,1,.264-1.052,1.792,1.792,0,0,1,.722-.7,2.16,2.16,0,0,1,1.028-.243,2.162,2.162,0,0,1,1.028.243,1.793,1.793,0,0,1,.722.7,2.058,2.058,0,0,1,.264,1.052,2.037,2.037,0,0,1-.267,1.052,1.809,1.809,0,0,1-.729.7,2.181,2.181,0,0,1-1.031.243A2.139,2.139,0,0,1-255.116,82.6Zm1.6-1.035a.994.994,0,0,0,.24-.716,1.012,1.012,0,0,0-.233-.715.752.752,0,0,0-.573-.25.753.753,0,0,0-.576.247,1.019,1.019,0,0,0-.229.719,1.033,1.033,0,0,0,.226.716.73.73,0,0,0,.566.25A.774.774,0,0,0-253.512,81.566Z" transform="translate(261.634 -77.226)"/><path class="c" d="M-225.6,72.532v5.139h-1.187V72.532Z" transform="translate(237.928 -72.108)"/><path class="c" d="M-212.167,79.8a1.685,1.685,0,0,1,.614-.694,1.606,1.606,0,0,1,.868-.243,1.491,1.491,0,0,1,.719.167,1.23,1.23,0,0,1,.476.438v-.549h1.188v3.875h-1.188V82.24a1.282,1.282,0,0,1-.482.437,1.491,1.491,0,0,1-.719.167,1.577,1.577,0,0,1-.861-.247,1.7,1.7,0,0,1-.614-.7,2.339,2.339,0,0,1-.226-1.052A2.318,2.318,0,0,1-212.167,79.8Zm2.43.354a.8.8,0,0,0-.6-.257.806.806,0,0,0-.6.253.959.959,0,0,0-.247.7.984.984,0,0,0,.247.705.8.8,0,0,0,.6.26.8.8,0,0,0,.6-.257.97.97,0,0,0,.247-.7A.97.97,0,0,0-209.737,80.15Z" transform="translate(226.282 -77.226)"/><path class="c" d="M-179.9,73.907a1.5,1.5,0,0,1,.715-.167,1.605,1.605,0,0,1,.868.243,1.687,1.687,0,0,1,.615.694,2.318,2.318,0,0,1,.226,1.049,2.339,2.339,0,0,1-.226,1.052,1.7,1.7,0,0,1-.615.7,1.589,1.589,0,0,1-.868.247,1.5,1.5,0,0,1-.715-.163,1.259,1.259,0,0,1-.479-.434v.542h-1.188V72.532h1.188v1.813A1.223,1.223,0,0,1-179.9,73.907Zm.969,1.122a.814.814,0,0,0-.608-.253.8.8,0,0,0-.6.257.97.97,0,0,0-.247.7.97.97,0,0,0,.247.7.8.8,0,0,0,.6.257.807.807,0,0,0,.6-.26.975.975,0,0,0,.25-.705A.959.959,0,0,0-178.928,75.029Z" transform="translate(201.341 -72.108)"/><path class="c" d="M-152.23,82.6a1.78,1.78,0,0,1-.715-.695,2.077,2.077,0,0,1-.26-1.056,2.06,2.06,0,0,1,.264-1.052,1.792,1.792,0,0,1,.722-.7,2.159,2.159,0,0,1,1.028-.243,2.16,2.16,0,0,1,1.028.243,1.792,1.792,0,0,1,.722.7,2.058,2.058,0,0,1,.264,1.052,2.037,2.037,0,0,1-.267,1.052,1.809,1.809,0,0,1-.729.7,2.182,2.182,0,0,1-1.031.243A2.139,2.139,0,0,1-152.23,82.6Zm1.6-1.035a.994.994,0,0,0,.24-.716,1.012,1.012,0,0,0-.232-.715.752.752,0,0,0-.573-.25.753.753,0,0,0-.576.247,1.019,1.019,0,0,0-.229.719,1.033,1.033,0,0,0,.226.716.731.731,0,0,0,.566.25A.774.774,0,0,0-150.626,81.566Z" transform="translate(178.4 -77.226)"/><path class="c" d="M-122.195,79.114a1.341,1.341,0,0,1,.694-.184v1.257h-.326a1,1,0,0,0-.667.191.848.848,0,0,0-.222.67v1.8H-123.9V78.972h1.188v.646A1.569,1.569,0,0,1-122.195,79.114Z" transform="translate(154.694 -77.284)"/><path class="d" d="M-101.753,77.927h-1.82l-.291.861h-1.243l1.764-4.875h1.375l1.764,4.875h-1.257Zm-.306-.917-.6-1.784-.6,1.784Z" transform="translate(139.488 -73.226)"/><path class="d" d="M-69.365,77.671l-1.181-1.625v1.625h-1.188V72.532h1.188v2.84l1.174-1.576h1.465l-1.611,1.944,1.625,1.931Z" transform="translate(112.489 -72.108)"/><path class="d" d="M-44.566,82.67a1.543,1.543,0,0,1-.625-.476,1.252,1.252,0,0,1-.257-.677h1.174a.451.451,0,0,0,.187.326.664.664,0,0,0,.41.125.585.585,0,0,0,.344-.087.266.266,0,0,0,.121-.226.26.26,0,0,0-.174-.247,3.535,3.535,0,0,0-.562-.177,5.237,5.237,0,0,1-.695-.2,1.2,1.2,0,0,1-.479-.34.927.927,0,0,1-.2-.628,1.066,1.066,0,0,1,.184-.608,1.236,1.236,0,0,1,.542-.434,2.073,2.073,0,0,1,.851-.16,1.706,1.706,0,0,1,1.149.361,1.405,1.405,0,0,1,.483.958h-1.1a.473.473,0,0,0-.177-.319.615.615,0,0,0-.393-.118.543.543,0,0,0-.319.08.254.254,0,0,0-.111.219.267.267,0,0,0,.177.25,2.839,2.839,0,0,0,.552.167,6.028,6.028,0,0,1,.7.219,1.21,1.21,0,0,1,.476.347.984.984,0,0,1,.212.642,1.02,1.02,0,0,1-.191.608,1.262,1.262,0,0,1-.549.42,2.1,2.1,0,0,1-.83.153A2.226,2.226,0,0,1-44.566,82.67Z" transform="translate(91.225 -77.226)"/><path class="d" d="M-19.545,71.415a.6.6,0,0,1-.2-.455.6.6,0,0,1,.2-.462.719.719,0,0,1,.51-.184.71.71,0,0,1,.5.184.6.6,0,0,1,.2.462.6.6,0,0,1-.2.455.71.71,0,0,1-.5.184A.719.719,0,0,1-19.545,71.415Zm1.1.587v3.875h-1.187V72Z" transform="translate(70.43 -70.314)"/><path class="c" d="M-281.472,120.335a1.194,1.194,0,0,1,.257.754,1.2,1.2,0,0,1-.427.969,1.8,1.8,0,0,1-1.191.358H-285.1V117.54h2.194a1.8,1.8,0,0,1,1.163.34,1.125,1.125,0,0,1,.42.924,1.117,1.117,0,0,1-.226.715,1.167,1.167,0,0,1-.6.4A1.136,1.136,0,0,1-281.472,120.335Zm-2.445-.823h.778a.689.689,0,0,0,.448-.128.461.461,0,0,0,.156-.379.472.472,0,0,0-.156-.382.676.676,0,0,0-.448-.132h-.778Zm1.337,1.809a.48.48,0,0,0,.163-.392.5.5,0,0,0-.17-.4.7.7,0,0,0-.469-.146h-.861v1.076h.875A.7.7,0,0,0-282.58,121.321Z" transform="translate(285.104 -108.519)"/><path class="c" d="M-262.155,123.422a1.687,1.687,0,0,1,.615-.694,1.605,1.605,0,0,1,.868-.243,1.491,1.491,0,0,1,.719.167,1.229,1.229,0,0,1,.476.438v-.549h1.188v3.875h-1.188v-.549a1.282,1.282,0,0,1-.482.437,1.491,1.491,0,0,1-.719.167,1.577,1.577,0,0,1-.861-.247,1.7,1.7,0,0,1-.615-.7,2.34,2.34,0,0,1-.226-1.052A2.319,2.319,0,0,1-262.155,123.422Zm2.431.354a.8.8,0,0,0-.6-.257.805.805,0,0,0-.6.253.959.959,0,0,0-.247.7.984.984,0,0,0,.247.705.8.8,0,0,0,.6.26.8.8,0,0,0,.6-.257.971.971,0,0,0,.247-.7A.972.972,0,0,0-259.725,123.776Z" transform="translate(266.721 -112.52)"/><path class="c" d="M-233.012,123a1.72,1.72,0,0,1,.406,1.212v2.264h-1.18v-2.1a.851.851,0,0,0-.2-.6.707.707,0,0,0-.542-.215.706.706,0,0,0-.542.215.85.85,0,0,0-.2.6v2.1h-1.187V122.6h1.187v.514a1.256,1.256,0,0,1,.486-.406,1.549,1.549,0,0,1,.688-.149A1.406,1.406,0,0,1-233.012,123Z" transform="translate(245.752 -112.578)"/><path class="c" d="M-210.766,122.652a1.23,1.23,0,0,1,.476.438v-.549h1.187v3.868a2.182,2.182,0,0,1-.212.969,1.614,1.614,0,0,1-.646.691,2.089,2.089,0,0,1-1.08.257,2.246,2.246,0,0,1-1.4-.406,1.534,1.534,0,0,1-.611-1.1h1.174a.562.562,0,0,0,.264.351.96.96,0,0,0,.514.129.809.809,0,0,0,.587-.212.909.909,0,0,0,.219-.677v-.549a1.318,1.318,0,0,1-.479.441,1.446,1.446,0,0,1-.715.17,1.588,1.588,0,0,1-.868-.247,1.7,1.7,0,0,1-.615-.7,2.339,2.339,0,0,1-.226-1.052,2.319,2.319,0,0,1,.226-1.049,1.684,1.684,0,0,1,.615-.694,1.6,1.6,0,0,1,.868-.243A1.491,1.491,0,0,1-210.766,122.652Zm.229,1.125a.8.8,0,0,0-.6-.257.806.806,0,0,0-.6.253.959.959,0,0,0-.247.7.984.984,0,0,0,.247.705.8.8,0,0,0,.6.26.8.8,0,0,0,.6-.257.971.971,0,0,0,.247-.7A.972.972,0,0,0-210.537,123.776Z" transform="translate(226.929 -112.52)"/><path class="c" d="M-183.591,122.775v3.875h-1.187v-.528a1.306,1.306,0,0,1-.49.413,1.494,1.494,0,0,1-.684.156,1.53,1.53,0,0,1-.784-.2,1.334,1.334,0,0,1-.528-.573,1.951,1.951,0,0,1-.187-.882v-2.264h1.18v2.1a.85.85,0,0,0,.2.6.706.706,0,0,0,.542.215.716.716,0,0,0,.549-.215.851.851,0,0,0,.2-.6v-2.1Z" transform="translate(206.105 -112.754)"/><path class="c" d="M-159.319,123a1.72,1.72,0,0,1,.406,1.212v2.264h-1.181v-2.1a.85.85,0,0,0-.2-.6.707.707,0,0,0-.542-.215.706.706,0,0,0-.542.215.849.849,0,0,0-.2.6v2.1h-1.188V122.6h1.188v.514a1.255,1.255,0,0,1,.486-.406,1.548,1.548,0,0,1,.687-.149A1.407,1.407,0,0,1-159.319,123Z" transform="translate(186.135 -112.578)"/><path class="c" d="M-126.195,122.415h-1.188l-1.986-3.007v3.007h-1.188V117.54h1.188l1.986,3.021V117.54h1.188Z" transform="translate(160.076 -108.519)"/><path class="c" d="M-100.584,124.763h-2.688a.807.807,0,0,0,.233.552.711.711,0,0,0,.5.191.624.624,0,0,0,.618-.375h1.264a1.732,1.732,0,0,1-.351.687,1.754,1.754,0,0,1-.635.479,2.041,2.041,0,0,1-.854.174,2.078,2.078,0,0,1-1.014-.243,1.727,1.727,0,0,1-.694-.694,2.143,2.143,0,0,1-.25-1.056,2.168,2.168,0,0,1,.247-1.056,1.707,1.707,0,0,1,.691-.694,2.093,2.093,0,0,1,1.021-.243,2.075,2.075,0,0,1,1,.236,1.7,1.7,0,0,1,.684.674,2.047,2.047,0,0,1,.246,1.021A3.024,3.024,0,0,1-100.584,124.763Zm-1.194-.66a.611.611,0,0,0-.208-.486.768.768,0,0,0-.521-.181.753.753,0,0,0-.5.174.773.773,0,0,0-.253.493Z" transform="translate(138.959 -112.52)"/><path class="c" d="M-79.631,122.652a1.23,1.23,0,0,1,.476.438v-.549h1.188v3.868a2.182,2.182,0,0,1-.212.969,1.615,1.615,0,0,1-.646.691,2.089,2.089,0,0,1-1.08.257,2.246,2.246,0,0,1-1.4-.406,1.533,1.533,0,0,1-.611-1.1h1.174a.562.562,0,0,0,.264.351.96.96,0,0,0,.514.129.809.809,0,0,0,.587-.212.91.91,0,0,0,.219-.677v-.549a1.316,1.316,0,0,1-.479.441,1.447,1.447,0,0,1-.715.17,1.589,1.589,0,0,1-.868-.247,1.7,1.7,0,0,1-.614-.7,2.339,2.339,0,0,1-.226-1.052,2.319,2.319,0,0,1,.226-1.049,1.685,1.685,0,0,1,.614-.694,1.606,1.606,0,0,1,.868-.243A1.491,1.491,0,0,1-79.631,122.652Zm.229,1.125a.8.8,0,0,0-.6-.257.806.806,0,0,0-.6.253.959.959,0,0,0-.247.7.984.984,0,0,0,.247.705.8.8,0,0,0,.6.26.8.8,0,0,0,.6-.257.97.97,0,0,0,.247-.7A.971.971,0,0,0-79.4,123.776Z" transform="translate(120.842 -112.52)"/><path class="c" d="M-53.5,124.763h-2.688a.807.807,0,0,0,.233.552.711.711,0,0,0,.5.191.624.624,0,0,0,.618-.375h1.264a1.732,1.732,0,0,1-.351.687,1.754,1.754,0,0,1-.635.479,2.041,2.041,0,0,1-.854.174,2.078,2.078,0,0,1-1.014-.243,1.727,1.727,0,0,1-.694-.694,2.143,2.143,0,0,1-.25-1.056,2.168,2.168,0,0,1,.247-1.056,1.707,1.707,0,0,1,.691-.694,2.093,2.093,0,0,1,1.021-.243,2.075,2.075,0,0,1,1,.236,1.7,1.7,0,0,1,.684.674,2.047,2.047,0,0,1,.246,1.021A3.067,3.067,0,0,1-53.5,124.763Zm-1.195-.66a.611.611,0,0,0-.208-.486.768.768,0,0,0-.521-.181.752.752,0,0,0-.5.174.772.772,0,0,0-.254.493Z" transform="translate(100.871 -112.52)"/><path class="c" d="M-32.033,122.741a1.342,1.342,0,0,1,.695-.184v1.257h-.326a1,1,0,0,0-.667.191.848.848,0,0,0-.222.67v1.8h-1.188V122.6h1.188v.646A1.567,1.567,0,0,1-32.033,122.741Z" transform="translate(81.754 -112.578)"/><path class="c" d="M-18.564,115.042a.6.6,0,0,1-.2-.455.6.6,0,0,1,.2-.462.72.72,0,0,1,.51-.184.711.711,0,0,1,.5.184.6.6,0,0,1,.2.462.6.6,0,0,1-.2.455.711.711,0,0,1-.5.184A.719.719,0,0,1-18.564,115.042Zm1.1.587V119.5h-1.188v-3.875Z" transform="translate(69.636 -105.608)"/></g><path class="e" d="M-78.187,25.229c.06.044.007.093,0,.132-.158.71-.344,1.412-.55,2.11a29.909,29.909,0,0,1-1.269,3.5c-.15.344-.317.68-.471,1.022a.178.178,0,0,1-.193.12c-.241-.007-.482,0-.723,0a.167.167,0,0,1-.113-.018c.046-.079.126-.061.2-.063.157,0,.314,0,.471,0a.263.263,0,0,0,.192-.04c.037-.057,0-.109-.013-.16-.171-.614-.343-1.227-.511-1.842a.64.64,0,0,1-.045-.328,4.043,4.043,0,0,1,.317-.511,10.548,10.548,0,0,0,1.1-2.452,2.641,2.641,0,0,1,.382-.371c.376-.347.75-.7,1.135-1.037A.324.324,0,0,1-78.187,25.229Z" transform="translate(-325.123 -1.419)"/><path class="f" d="M-93.536,38.713c.011.081-.047.074-.1.074h-.637c-.067,0-.134,0-.2.006-.147-.263-.3-.525-.442-.789-.8-1.45-1.643-2.873-2.549-4.26-.029-.044-.083-.079-.067-.145a3.026,3.026,0,0,1,.836-.087.122.122,0,0,1,.087.061,1.878,1.878,0,0,0,.193.294q1.248,1.833,2.322,3.774A8.638,8.638,0,0,1-93.536,38.713Z" transform="translate(-312.16 -8.121)"/><path class="g" d="M-101.851,33.874c.523.815,1.04,1.632,1.535,2.464s.984,1.693,1.448,2.555a.263.263,0,0,1,.054.153h-.79c-.066,0-.076-.055-.1-.1-.118-.241-.233-.484-.354-.723a37.013,37.013,0,0,0-2.505-4.169,1.261,1.261,0,0,1-.074-.112c-.026-.048.014-.054.047-.063a2.723,2.723,0,0,1,.628-.064A.1.1,0,0,1-101.851,33.874Z" transform="translate(-308.022 -8.366)"/><path class="h" d="M-42.547,37.584l-.53-.612-.03.005V37.1c0,.325,0,.649,0,.974,0,.04.024.1-.036.115a.245.245,0,0,1-.165,0c-.043-.019-.026-.069-.026-.106,0-.308,0-.615,0-.923,0-.146,0-.291,0-.436,0-.049-.037-.126.042-.142a.191.191,0,0,1,.214.05c.09.114.188.222.282.333l.249.289c.173-.2.345-.393.505-.593a.23.23,0,0,1,.22-.084c.04,0,.062.019.061.061,0,.022,0,.045,0,.067q0,.688,0,1.377c0,.04.024.1-.037.114a.235.235,0,0,1-.164-.006c-.04-.021-.024-.07-.024-.108,0-.313,0-.627,0-.94v-.172a1.885,1.885,0,0,0-.29.309C-42.368,37.372-42.453,37.475-42.547,37.584Z" transform="translate(-355.997 -10.592)"/><path class="h" d="M-51.5,48.392c0,.235,0,.47,0,.706,0,.113,0,.113-.112.113s-.117,0-.119-.108c0-.168,0-.336,0-.5,0-.073-.025-.1-.1-.1q-.37,0-.739,0c-.073,0-.1.026-.1.1,0,.168,0,.336,0,.5,0,.1-.009.1-.121.108-.075,0-.112-.015-.111-.1q0-.714,0-1.428c0-.079.025-.11.106-.107.111,0,.124.007.125.1q0,.244,0,.487c0,.073.011.114.1.112.246-.005.493,0,.739,0,.076,0,.1-.031.094-.1,0-.162,0-.325,0-.487,0-.11.007-.113.114-.115s.117,0,.117.109C-51.5,47.921-51.5,48.156-51.5,48.392Z" transform="translate(-348.267 -19.498)"/><path class="i" d="M-42.057,48.176c0,.151,0,.3,0,.453a.562.562,0,0,1-.417.564.8.8,0,0,1-.778-.121.476.476,0,0,1-.194-.34c-.03-.357-.007-.715-.014-1.073,0-.1.074-.075.132-.08s.1.015.1.091c0,.235,0,.47,0,.7,0,.084,0,.168,0,.252a.377.377,0,0,0,.294.363.567.567,0,0,0,.394-.016.358.358,0,0,0,.241-.349c0-.3,0-.6,0-.906,0-.14.006-.141.138-.141.07,0,.1.02.1.1,0,.168,0,.336,0,.5Z" transform="translate(-355.9 -19.499)"/><path class="j" d="M-101.617,27.751a.306.306,0,0,0-.145-.01,4.76,4.76,0,0,1-.593.016.6.6,0,0,1,.2-.088c1.041-.375,2.1-.706,3.17-.977q1.047-.264,2.113-.438a.242.242,0,0,1,.179.022c-.005.089-.085.08-.136.092-.471.107-.941.22-1.407.35-.057.016-.118.04-.175,0-.038-.063-.089-.027-.134-.015-.63.172-1.255.365-1.87.584-.347.124-.692.254-1.037.384C-101.513,27.688-101.578,27.7-101.617,27.751Z" transform="translate(-308.256 -2.243)"/><path class="k" d="M-26.486,37.389c0-.229,0-.459,0-.688,0-.078.009-.123.107-.121.257.007.515,0,.772,0,.082,0,.1.028.1.107s-.034.1-.11.1c-.168,0-.336,0-.5,0-.133,0-.134,0-.135.141,0,.067,0,.134,0,.2,0,.149,0,.15.145.151.162,0,.325,0,.487,0,.077,0,.093.033.093.1s-.009.116-.1.113c-.173-.006-.347,0-.52,0-.081,0-.111.025-.106.105s0,.179,0,.269c0,.13,0,.131.127.132.179,0,.358,0,.537,0,.079,0,.109.022.108.1s-.024.109-.106.108c-.269,0-.537,0-.806,0-.073,0-.1-.026-.1-.1C-26.484,37.871-26.486,37.63-26.486,37.389Z" transform="translate(-369.633 -10.602)"/><path class="l" d="M-94.5,25.995c.365-.093.73-.187,1.1-.278.183-.045.367-.083.551-.123a.1.1,0,0,0,.071-.036.028.028,0,0,1,.026,0c.04-.046.1-.01.142-.032l.061,0c.042-.032.1.006.141-.032a.039.039,0,0,1,.029,0c.041-.031.1,0,.138-.028a3.488,3.488,0,0,1,.853-.1,3.981,3.981,0,0,1-.6.131,21.4,21.4,0,0,0-4.566,1.415c-.031.014-.06.029-.091.044l-.865.054a6.654,6.654,0,0,1,.76-.292c.592-.213,1.187-.417,1.792-.591A4.224,4.224,0,0,1-94.5,25.995Z" transform="translate(-312.171 -1.524)"/><path class="m" d="M-26.058,48.373c0-.23,0-.459,0-.689,0-.078.022-.111.1-.109q.361.005.723,0c.079,0,.11.023.109.105s-.021.113-.1.11c-.157,0-.314,0-.471,0-.123,0-.128,0-.125.117s-.051.261.028.338.214.016.325.022c.067,0,.134,0,.2,0,.109,0,.153.07.116.171-.016.043-.051.037-.082.037-.151,0-.3,0-.454,0-.133,0-.134,0-.135.142s0,.28,0,.42c0,.173,0,.173-.121.172s-.113,0-.113-.164C-26.058,48.821-26.058,48.6-26.058,48.373Z" transform="translate(-369.979 -19.497)"/><path class="n" d="M-19.845,36.585c.207,0,.414,0,.621,0,.084,0,.1.031.1.108s-.023.11-.105.107c-.128-.005-.257,0-.386,0-.088,0-.116.028-.115.115,0,.363,0,.727,0,1.09,0,.033,0,.067,0,.1,0,.109,0,.109-.115.109s-.117,0-.117-.108c0-.386,0-.772,0-1.158,0-.146,0-.147-.145-.148-.123,0-.246,0-.369,0-.084,0-.083-.05-.084-.11s.011-.105.091-.1C-20.259,36.588-20.052,36.585-19.845,36.585Z" transform="translate(-374.43 -10.605)"/><path class="j" d="M-72.467,26.12c-.038.051-.092.031-.142.032,0-.025-.014-.056.032-.057A.222.222,0,0,1-72.467,26.12Z" transform="translate(-332.318 -2.12)"/><path class="e" d="M-65.048,25.2a.171.171,0,0,1-.135.021A.153.153,0,0,1-65.048,25.2Z" transform="translate(-338.328 -1.389)"/><path class="j" d="M-70.509,25.888c-.039.045-.09.026-.138.028A.175.175,0,0,1-70.509,25.888Z" transform="translate(-333.908 -1.95)"/><path class="j" d="M-71.393,26.035c-.038.051-.091.031-.141.032A.156.156,0,0,1-71.393,26.035Z" transform="translate(-333.19 -2.069)"/><path class="o" d="M-82.4,33.674a2.121,2.121,0,0,0-.487.156h0a5.377,5.377,0,0,1-.983,1.406h0a3.446,3.446,0,0,0,.341.577,6.257,6.257,0,0,0,1.167-2.032.648.648,0,0,0,.019-.081h0C-82.357,33.682-82.374,33.666-82.4,33.674Z" transform="translate(-323.211 -8.25)"/><path class="p" d="M-89.727,39c-.182-.652-.367-1.3-.546-1.954a.721.721,0,0,1-.06-.339c-.1-.189-.229-.367-.316-.567a1.38,1.38,0,0,1-.094-.126c-.107-.189-.237-.363-.335-.557l-.011-.017-.018.02a5.545,5.545,0,0,1-.373-.555.8.8,0,0,1-.157-.273h0a.625.625,0,0,1-.21-.1l-.97-.585a1.2,1.2,0,0,0,.222.35c.369.56.743,1.118,1.094,1.69q.7,1.145,1.353,2.318c.14.254.266.516.425.76A.358.358,0,0,0-89.727,39Z" transform="translate(-315.973 -8.47)"/><path class="o" d="M-80.288,33a.167.167,0,0,0-.115.088h0A7.318,7.318,0,0,1-81.6,35.316h0c0,.021-.012.048,0,.063.088.154.181.306.271.459a.073.073,0,0,0,.067.04l.066-.1a9.937,9.937,0,0,0,1.346-2.856A4.338,4.338,0,0,0-80.288,33Z" transform="translate(-325.045 -7.646)"/><path class="h" d="M-61.707,47.593a5.012,5.012,0,0,0-.671-.017c-.139,0-.14,0-.141.136,0,.224,0,.448,0,.672q0,.361,0,.722c0,.052,0,.1.074.1a5.591,5.591,0,0,0,.755-.021.776.776,0,0,0,.663-.8A.776.776,0,0,0-61.707,47.593Zm-.049,1.375a2.859,2.859,0,0,1-.468.011c-.069,0-.062-.05-.062-.094,0-.168,0-.335,0-.5s0-.324,0-.486c0-.045,0-.095.064-.093a2.519,2.519,0,0,1,.484.019.545.545,0,0,1,.46.589A.544.544,0,0,1-61.756,48.967Z" transform="translate(-340.483 -19.495)"/><path class="h" d="M-52.864,36.452a.849.849,0,0,0-.869.835.844.844,0,0,0,.857.845A.845.845,0,0,0-52,37.291.85.85,0,0,0-52.864,36.452Zm-.011,1.453a.613.613,0,0,1-.61-.626.619.619,0,0,1,.636-.6.617.617,0,0,1,.6.62A.611.611,0,0,1-52.876,37.905Z" transform="translate(-347.591 -10.499)"/><path class="h" d="M-61.784,36.592c-.212-.011-.425,0-.638-.007-.083,0-.1.03-.1.108,0,.229,0,.459,0,.688s0,.481,0,.722c0,.075.015.113.1.11.212-.006.425,0,.637-.008a.779.779,0,0,0,.755-.805A.779.779,0,0,0-61.784,36.592Zm.023,1.381a3.238,3.238,0,0,1-.435.017c-.072,0-.1-.025-.1-.1,0-.168,0-.335,0-.5s0-.313,0-.469c0-.092.034-.115.117-.112a3.913,3.913,0,0,1,.4.013.545.545,0,0,1,.492.561A.546.546,0,0,1-61.761,37.973Z" transform="translate(-340.478 -10.606)"/><path class="h" d="M-20.115,47.654a.111.111,0,0,0-.114-.078.12.12,0,0,0-.128.083c-.095.227-.194.453-.292.679l-.376.867c.053,0,.081,0,.108.006a.149.149,0,0,0,.185-.12c.028-.085.076-.163.1-.248a.149.149,0,0,1,.176-.113,2.964,2.964,0,0,0,.42,0,.174.174,0,0,1,.207.143,1.654,1.654,0,0,0,.08.185c.079.175.045.151.23.153.021,0,.044,0,.06-.015,0-.006,0-.012,0-.017Zm-.363.851.24-.565.247.565Z" transform="translate(-374.052 -19.498)"/><path class="k" d="M-33.716,49.1q-.309-.706-.62-1.411c-.021-.048-.027-.11-.1-.121-.089-.013-.125.005-.172.114q-.307.707-.613,1.414c-.013.03-.031.06-.011.1.02,0,.042,0,.064.006a.158.158,0,0,0,.2-.124c.028-.09.076-.174.11-.262a.125.125,0,0,1,.137-.094q.251.007.5,0a.124.124,0,0,1,.135.1c.031.083.072.164.107.246.072.168.054.134.222.137a.352.352,0,0,0,.053-.007A.115.115,0,0,0-33.716,49.1Zm-1-.6.24-.567.249.567Z" transform="translate(-362.55 -19.489)"/><path class="i" d="M-32.657,36.591c-.167-.01-.335,0-.5-.007-.083,0-.105.03-.1.108,0,.235,0,.47,0,.7s0,.481,0,.721c0,.094.052.094.118.093s.121,0,.117-.092c-.006-.168,0-.335,0-.5,0-.082.03-.108.108-.106a2.171,2.171,0,0,0,.3-.009.43.43,0,0,0,.409-.495A.434.434,0,0,0-32.657,36.591Zm0,.7a.528.528,0,0,1-.1.007c-.332,0-.261.041-.27-.254.008-.289-.057-.249.257-.251a.54.54,0,0,1,.132.016.217.217,0,0,1,.182.257A.214.214,0,0,1-32.661,37.293Z" transform="translate(-364.15 -10.606)"/><path class="c" d="M-87.541,25.225c-.043.018-.093-.006-.135.021l-.053,0c-.2.028-.407.059-.609.1a20.713,20.713,0,0,0-4.405,1.331c-.089.038-.195.061-.244.163l.033.049A5.6,5.6,0,0,0-91.8,27.6a.075.075,0,0,0,.033,0h0a.277.277,0,0,1-.01-.028,13.433,13.433,0,0,1,1.319-.532A.439.439,0,0,1-90.262,27c-.007.015-.016.029-.023.044l.022-.007a2.2,2.2,0,0,1,.536-.149c.044.005.079-.076.129-.013a1.587,1.587,0,0,1,.2-.073.808.808,0,0,0,.341-.1c.3-.28.61-.558.912-.84.224-.21.462-.4.671-.63Z" transform="translate(-315.835 -1.416)"/></g></svg>