<svg xmlns="http://www.w3.org/2000/svg" width="17.774" height="20" viewBox="0 0 17.774 20"><defs><style>.a{fill:#333;}</style></defs><g transform="translate(0 0)"><path class="a" d="M124.211,11.571a.586.586,0,0,0,.784,0c3.567-3.21,6.055-4.908,6.055-7.681A3.635,3.635,0,0,0,127.533,0a3.4,3.4,0,0,0-2.93,1.795A3.4,3.4,0,0,0,121.673,0a3.635,3.635,0,0,0-3.517,3.89c0,2.773,2.488,4.471,6.055,7.681Zm0,0" transform="translate(-113.541)"/><path class="a" d="M17.442,300.3a1.157,1.157,0,0,0-1.653.023l-1.723,1.852c-1.124,1.208-1.5,1.911-2.532,1.911H7.56a.586.586,0,0,1,0-1.172h2.989a1.172,1.172,0,0,0,0-2.344H8.967l-.223-.094a4.108,4.108,0,0,0-5.591-.164l-1.629,1.43H.586a.58.58,0,0,0-.586.586v4.689a.586.586,0,0,0,.586.586H11.135a4.1,4.1,0,0,0,3.282-1.641l3.13-4.173a1.142,1.142,0,0,0-.105-1.489Zm0,0" transform="translate(0 -287.598)"/></g></svg>