<svg xmlns="http://www.w3.org/2000/svg" width="42" height="42" viewBox="0 0 42 42"><defs><style>.a{fill:#50abf1;}.b{fill:#fff;}</style></defs><g transform="translate(-86 -1881)"><rect class="a" width="42" height="42" rx="5" transform="translate(86 1881)"/><path class="b" d="M60.359,113.362a14.056,14.056,0,0,0,21.568-11.879q0-.291-.012-.578A11.045,11.045,0,0,0,84.358,98.4a11.4,11.4,0,0,1-2.79.724h-.009l.007,0c.127-.085,1.9-1.3,2.146-2.737a17.123,17.123,0,0,1-2.394,1c-.231.077-.473.152-.723.222a4.932,4.932,0,0,0-8.4,4.486A14.851,14.851,0,0,1,62.07,96.97s-2.357,3.218,1.4,6.527a5.067,5.067,0,0,1-2.13-.635,4.687,4.687,0,0,0,3.9,4.9,4.512,4.512,0,0,1-2.176.091,4.861,4.861,0,0,0,4.533,3.444,9.472,9.472,0,0,1-7.241,2.069Z" transform="translate(34.642 1795.959)"/></g></svg>