<svg xmlns="http://www.w3.org/2000/svg" width="60" height="60" viewBox="0 0 60 60"><defs><style>.a{fill:#fff;}.b{fill:#1e88e5;}.c{fill:#64b5f6;}.d{fill:#2196f3;}</style></defs><g transform="translate(-158 -2290)"><g transform="translate(-10)"><rect class="a" width="60" height="60" rx="5" transform="translate(168 2290)"/><g transform="translate(180 2308)"><path class="b" d="M46.634,255.941a3.75,3.75,0,0,1-2.88,1.35h-28.5a3.75,3.75,0,0,1-2.88-1.35l13.755-11.46,1.425.975a3.433,3.433,0,0,0,3.9,0l1.425-.975Z" transform="translate(-11.504 -233.291)"/><path class="c" d="M44.068,86.968,30.1,96.523l-1.425.975a3.433,3.433,0,0,1-3.9,0l-1.425-.975L9.388,86.953a3.766,3.766,0,0,1,3.09-1.62h28.5A3.7,3.7,0,0,1,44.068,86.968Z" transform="translate(-8.728 -85.333)"/><g transform="translate(0 1.62)"><path class="d" d="M14.625,117.945.87,129.405a3.733,3.733,0,0,1-.87-2.4v-16.5a3.7,3.7,0,0,1,.66-2.13Z" transform="translate(0 -108.375)"/><path class="d" d="M318.626,110.7v16.5a3.734,3.734,0,0,1-.87,2.4L304,118.143l13.965-9.555A3.684,3.684,0,0,1,318.626,110.7Z" transform="translate(-282.626 -108.573)"/></g></g></g></g></svg>