<svg xmlns="http://www.w3.org/2000/svg" width="60" height="60" viewBox="0 0 60 60"><defs><style>.a,.g{fill:none;}.a{stroke:#eee;}.b{fill:#ae85cc;}.c{fill:#f3f1f1;}.d{fill:#9cc445;}.e{fill:#ffc44f;}.f{stroke:none;}</style></defs><g transform="translate(-242 -2290)"><g transform="translate(74)"><g class="a" transform="translate(168 2290)"><rect class="f" width="60" height="60" rx="5"/><rect class="g" x="0.5" y="0.5" width="59" height="59" rx="4.5"/></g></g><g transform="translate(-4)"><g transform="translate(258 2303.5)"><path class="b" d="M218.688,16a10.688,10.688,0,1,0,10.688,10.688A10.7,10.7,0,0,0,218.688,16Z" transform="translate(-193.375 -16.005)"/><path class="c" d="M347.763,99.092l-.961-.721a4.691,4.691,0,0,0,.511-2.148,3.694,3.694,0,1,0-3.656,4.219,3.312,3.312,0,0,0,2.085-.756l1.008.756a.562.562,0,0,0,.788-.113l.337-.45A.563.563,0,0,0,347.763,99.092Zm-4.106-.337a2.612,2.612,0,1,1,1.969-2.531,3.12,3.12,0,0,1-.2,1.114l-.361-.271a.562.562,0,0,0-.788.113l-.337.45a.562.562,0,0,0,.112.787l.259.194A1.573,1.573,0,0,1,343.656,98.754Z" transform="translate(-316.094 -86.66)"/><path class="d" d="M10.688,16A10.688,10.688,0,1,0,21.375,26.693,10.7,10.7,0,0,0,10.688,16Z" transform="translate(0 -16.005)"/><path class="c" d="M98.188,101.13v-.562a.563.563,0,0,0-.562-.562H92.844a.844.844,0,0,0-.844.844v6.75a.563.563,0,0,0,.563.563h.563a.563.563,0,0,0,.563-.563v-2.531H96.5a.563.563,0,0,0,.563-.562v-.563a.563.563,0,0,0-.563-.562H93.688v-1.688h3.938A.563.563,0,0,0,98.188,101.13Z" transform="translate(-85.531 -94.099)"/><path class="e" d="M114.688,176.005a10.687,10.687,0,0,0-7.315,18.479l-1.094,3.281a.567.567,0,0,0,.766.69l3.871-1.76a10.689,10.689,0,1,0,3.771-20.69Z" transform="translate(-96.687 -164.755)"/><path class="c" d="M202.447,268.479l.5-.252a.563.563,0,0,0,.252-.755l-1.162-2.405H202l-2.3-4.6a.844.844,0,0,0-.9-.454.869.869,0,0,0-.618.475l-2.328,4.574v.082l-1.162,2.323a.563.563,0,0,0,.252.755l.5.252a.563.563,0,0,0,.755-.252l.736-1.473h4.02l.736,1.473A.562.562,0,0,0,202.447,268.479Zm-4.667-3.412,1.166-2.332,1.166,2.332Z" transform="translate(-180.946 -242.849)"/></g></g></g></svg>