<svg xmlns="http://www.w3.org/2000/svg" width="9.026" height="10" viewBox="0 0 9.026 10"><defs><style>.a{fill:#fff;}</style></defs><g transform="translate(-24.927)"><path class="a" d="M73.7,98.079c.157.227.11.038.11,4.57a.494.494,0,0,0,.789.4c1.394-1.051,1.672-1.142,1.672-1.633,0-3.3-.038-3.117.11-3.332L78.643,95H71.436Z" transform="translate(-45.601 -93.144)"/><path class="a" d="M33.9.251A.466.466,0,0,0,33.484,0H25.395a.467.467,0,0,0-.383.734l.393.535h8.068c.356-.484.594-.693.424-1.018Z"/></g></svg>