<svg xmlns="http://www.w3.org/2000/svg" width="20" height="19.973" viewBox="0 0 20 19.973"><defs><style>.a{fill:#333;}</style></defs><g transform="translate(0 -0.35)"><path class="a" d="M153.443,4.527h0a2.458,2.458,0,0,0-3.5-3.449.211.211,0,0,1-.282,0,2.456,2.456,0,0,0-3.5,3.446c.034.037,1.993,1.946,3.025,2.952a.885.885,0,0,0,1.237,0c1.02-.995,2.948-2.868,3.026-2.952Z" transform="translate(-139.803 0)"/><g transform="translate(0 1.492)"><path class="a" d="M9.378,43.012a2.233,2.233,0,0,0-.656-1.59L3.355,36.056A.812.812,0,1,0,2.207,37.2L4.823,39.82c.384.384.161,1.145-.669,1.092L1.327,38.084a2.057,2.057,0,0,1,1.163-3.49V30.863a1.3,1.3,0,0,0-2.306-.786A.568.568,0,0,0,0,30.495v7.581a2.027,2.027,0,0,0,.315,1.085l3.65,5.762a3.585,3.585,0,0,1,.469,2.239A1.287,1.287,0,0,0,5.72,48.449h2.7a.955.955,0,0,0,.955-.955S9.378,43.012,9.378,43.012Z" transform="translate(0 -29.618)"/><path class="a" d="M279.377,30.077a.568.568,0,0,0-.183.418v4.1a2.059,2.059,0,0,1,1.163,3.49L277.741,40.7a.622.622,0,0,1-.88-.88l2.615-2.617a.821.821,0,0,0,.176-.895.832.832,0,0,0-1.2-.366c-.034.01-5.457,5.458-5.487,5.48a2.233,2.233,0,0,0-.656,1.59v4.481a.955.955,0,0,0,.955.955h2.7a1.287,1.287,0,0,0,1.287-1.287v-.623a3.021,3.021,0,0,1,.469-1.616l3.65-5.762a2.027,2.027,0,0,0,.315-1.085V30.863a1.3,1.3,0,0,0-2.306-.786Z" transform="translate(-261.684 -29.618)"/></g></g></svg>