<svg xmlns="http://www.w3.org/2000/svg" width="60" height="60" viewBox="0 0 60 60"><defs><style>.a{fill:#fff;}.b{fill:#eceff1;}.c{fill:#4caf50;}.d{fill:#fafafa;}</style></defs><g transform="translate(-74 -2290)"><path class="a" d="M5,0H55a5,5,0,0,1,5,5V55a5,5,0,0,1-5,5H5a5,5,0,0,1-5-5V5A5,5,0,0,1,5,0Z" transform="translate(74 2290)"/><g transform="translate(-16)"><g transform="translate(102 2302)"><path class="b" d="M30.78,5.174A18.213,18.213,0,0,0,18.068,0,17.869,17.869,0,0,0,2.544,26.757L0,36l9.5-2.478a18.843,18.843,0,0,0,8.574,2.171c15.95,0,23.889-19.3,12.681-30.46Z" transform="translate(0)"/><path class="c" d="M17.035,31.644H17A15.114,15.114,0,0,1,8.88,29.251L3.255,30.714l1.508-5.468L4.4,24.684a14.8,14.8,0,0,1-2.274-7.89C2.13,3.6,18.248-2.991,27.574,6.331,36.879,15.556,30.346,31.644,17.035,31.644Z" transform="translate(1.065 0.983)"/><path class="d" d="M23.272,18.284l-.014.112c-.451-.225-2.65-1.3-3.06-1.449-.92-.34-.66-.054-2.425,1.968-.263.292-.524.315-.969.112A12.174,12.174,0,0,1,13.2,16.8a13.609,13.609,0,0,1-2.49-3.1c-.44-.759.48-.867,1.317-2.451a.825.825,0,0,0-.037-.786c-.112-.225-1.008-2.43-1.383-3.309S9.876,6.385,9.6,6.385A2.233,2.233,0,0,0,7.546,6.9c-2.421,2.661-1.811,5.406.261,8.325,4.071,5.328,6.24,6.309,10.206,7.671a6.206,6.206,0,0,0,2.82.182c.861-.137,2.65-1.082,3.024-2.139a3.713,3.713,0,0,0,.27-2.138c-.111-.2-.4-.315-.855-.517Z" transform="translate(2.988 3.176)"/></g></g></g></svg>