<svg width="48" height="48" viewBox="0 0 48 48" fill="none" xmlns="http://www.w3.org/2000/svg">
<rect width="48" height="48" rx="10" fill="#FFF3E9"/>
<g clip-path="url(#clip0_1392_4584)">
<path d="M34.8608 21.6916C34.6154 21.69 34.7529 21.6893 34.5074 21.6924C34.297 21.6955 34.088 21.6947 33.8768 21.7343C33.5506 21.7957 33.4543 21.7188 33.3572 21.3941C33.2958 21.1891 33.2205 20.9864 33.0745 20.8303C32.8982 20.6415 32.8858 20.4544 32.9766 20.2229C33.2593 19.5037 33.285 18.7706 33.0629 18.0289C33.0015 17.8238 32.9013 17.6374 32.8159 17.444C32.711 17.2064 32.9766 16.6394 33.2213 16.568C33.3075 16.5431 33.3782 16.5858 33.452 16.6161C34.3731 16.9873 35.0426 16.7062 35.4255 15.7874C35.4526 15.7222 35.4713 15.653 35.5334 15.6096C36.1144 15.6111 36.6968 15.549 37.27 15.7183C38.4575 16.0686 39.1736 16.8576 39.4711 18.0459C39.4851 18.1026 39.4711 18.1686 39.5332 18.2059V19.0548C39.3748 19.6031 39.2101 20.1437 38.8233 20.5934C38.3007 21.2015 37.6452 21.5464 36.8646 21.6745C36.8366 21.6761 36.8087 21.6776 36.7807 21.6784" fill="#F68828"/>
<path d="M33.7137 22.2182C33.1848 22.2182 33.0023 21.8353 32.9106 21.5293C32.8671 21.3833 32.8151 21.2365 32.7343 21.1503C32.4439 20.8396 32.3794 20.4707 32.5433 20.0536C32.7879 19.4323 32.812 18.8141 32.6171 18.1632C32.5821 18.0475 32.5262 17.9271 32.4672 17.8005C32.4415 17.7446 32.4151 17.6895 32.3903 17.6335C32.2481 17.3105 32.3763 16.9408 32.4656 16.7481C32.5549 16.5563 32.7545 16.22 33.0916 16.1214C33.3254 16.053 33.5125 16.1346 33.6026 16.1742L33.6267 16.1843C34.3141 16.4608 34.7102 16.2946 34.996 15.6088L35.0045 15.587C35.0379 15.5024 35.0993 15.3455 35.2678 15.2282C35.3462 15.1739 35.4425 15.1436 35.535 15.1451C35.6561 15.1451 35.7788 15.1428 35.9008 15.1405C36.3839 15.1304 36.884 15.1195 37.4021 15.2725C38.7309 15.6647 39.579 16.5602 39.9231 17.9341C39.9254 17.9434 39.9278 17.9528 39.9293 17.9621C39.9744 18.0351 39.9992 18.1197 39.9992 18.2075V19.0564C39.9992 19.0999 39.993 19.1434 39.9806 19.1853C39.8299 19.7065 39.6427 20.3557 39.1767 20.8979C38.5997 21.5697 37.8471 21.986 36.9399 22.1351C36.9229 22.1382 36.9058 22.1397 36.8887 22.1405L36.8025 22.1452C36.5454 22.1584 36.3272 21.9588 36.3147 21.7017C36.3023 21.4446 36.5011 21.2264 36.7582 21.214L36.8141 21.2108C37.4968 21.0936 38.0381 20.7922 38.47 20.2905C38.7682 19.9433 38.9103 19.5294 39.0672 18.9896V18.3496C39.0408 18.2883 39.023 18.2199 39.0152 18.1438C38.7511 17.107 38.1368 16.46 37.138 16.1657C36.7582 16.0538 36.3512 16.0624 35.9194 16.0709C35.8829 16.0717 35.8456 16.0725 35.8091 16.0732C35.3253 17.1241 34.4352 17.4868 33.344 17.0751C33.3028 17.1458 33.2656 17.2382 33.2594 17.2957C33.2764 17.333 33.2935 17.3695 33.3106 17.4068C33.3813 17.5582 33.4551 17.7151 33.5087 17.8968C33.7619 18.7434 33.7285 19.5837 33.41 20.3954C33.3891 20.4497 33.3867 20.4746 33.3867 20.4808C33.3875 20.4808 33.3945 20.4932 33.4147 20.5142C33.6275 20.7417 33.7308 21.0198 33.803 21.2621C33.8046 21.2668 33.8053 21.2706 33.8069 21.2753C34.0329 21.2349 34.2426 21.2318 34.4453 21.2287L34.6045 21.2264C34.6542 21.2253 34.6977 21.2253 34.735 21.2264H34.8632C35.1202 21.2295 35.3276 21.4392 35.326 21.697C35.3245 21.9533 35.1156 22.1599 34.86 22.1599H34.7257C34.6806 22.1584 34.6799 22.1584 34.6201 22.1599L34.4577 22.1623C34.2814 22.1646 34.1152 22.1669 33.9622 22.1957C33.8714 22.2127 33.789 22.2205 33.7129 22.2205L33.7137 22.2182Z" fill="#171717"/>
<path d="M15.6532 33.1C15.6043 33.1 15.5592 33.0984 15.5173 33.0977C15.4847 33.0969 15.4528 33.0961 15.4218 33.0953C15.3923 33.0953 15.3627 33.0953 15.3332 33.0961C15.1057 33.1 14.7049 33.107 14.4043 32.8002C13.4545 32.4266 12.7501 31.4294 12.7446 30.4221C12.7446 30.4034 12.7431 30.3848 12.7423 30.3661C12.7392 30.2978 12.7338 30.2038 12.7516 30.0997C12.8184 29.706 12.5784 29.438 12.0386 29.3037C10.7603 28.9852 9.84224 28.2389 9.311 27.0855C8.90248 26.1978 8.85666 25.234 9.17897 24.2989C9.1813 24.2919 9.18285 24.2864 9.18441 24.2818C9.17975 24.2756 9.17353 24.267 9.16499 24.2561C8.54832 23.4919 8.26562 22.6088 8.32309 21.6326C8.38134 20.6454 8.71919 19.8626 9.32576 19.3073C9.44847 19.1946 9.51915 19.0727 9.57429 18.9143C9.06791 18.8723 8.62677 18.6075 8.306 18.1446C7.9169 17.5838 7.89826 16.9485 8.25319 16.3559C8.53046 15.8923 8.95374 15.5964 9.44459 15.5226C9.59837 15.4993 9.71487 15.4574 9.84768 15.3758C10.4574 15.0038 11.0197 15.0488 11.5641 15.5133C11.8515 15.4706 12.1179 15.5133 12.361 15.5808C12.8502 14.8811 13.6292 14.3607 14.5255 14.1409C14.7748 14.0796 15.028 14.2326 15.0886 14.4826C15.1499 14.7327 14.9969 14.9851 14.7469 15.0457C14.0215 15.2236 13.404 15.6531 13.0522 16.2239L13.0436 16.2379C12.7881 16.6658 12.4254 16.5812 12.3206 16.5455C12.013 16.4398 11.8087 16.394 11.6084 16.4561C11.4554 16.5035 11.2247 16.5074 10.9925 16.2542L10.9816 16.2426C10.7323 16.0197 10.6034 16.0057 10.3315 16.1711C10.0947 16.3156 9.85622 16.4025 9.58128 16.4437C9.36537 16.4763 9.18751 16.6076 9.0516 16.8336C8.88695 17.1085 8.89316 17.3563 9.07102 17.6134C9.27916 17.9139 9.53313 18.0289 9.8702 17.9761C9.8702 17.9761 9.87874 17.9737 9.88651 17.9714C9.97738 17.9473 10.2539 17.8743 10.4706 18.0848C10.5521 18.164 10.6779 18.3419 10.6073 18.6432L10.5863 18.7325C10.4923 19.1387 10.3859 19.5985 9.95408 19.9946C9.53235 20.3814 9.29625 20.9515 9.25198 21.6885C9.20848 22.4263 9.42284 23.0943 9.88884 23.6721C10.0364 23.8554 10.2143 24.1505 10.0582 24.6033C9.81195 25.3178 9.84457 26.0223 10.156 26.6972C10.5692 27.5935 11.2581 28.1511 12.2623 28.4012C13.2805 28.6544 13.8195 29.3658 13.6689 30.2574C13.6689 30.2644 13.6704 30.297 13.6712 30.3211C13.6727 30.3537 13.6743 30.3863 13.6743 30.419C13.6782 31.0667 14.1923 31.7595 14.8214 31.963C14.9185 31.994 15.0024 32.0569 15.0606 32.14C15.0645 32.1462 15.0676 32.1494 15.0684 32.1494C15.0987 32.1695 15.2447 32.1672 15.3146 32.1657C15.3527 32.1657 15.3892 32.1649 15.4257 32.1649C15.4637 32.1649 15.5025 32.1664 15.5422 32.1672C15.7643 32.1734 15.8256 32.1657 15.8559 32.1245C15.9313 32.0251 16.0423 31.9599 16.1658 31.9435C16.1829 31.9381 16.2217 31.9164 16.2513 31.9008C16.3002 31.8744 16.3577 31.8434 16.4252 31.8162C16.5565 31.6865 16.6862 31.6282 16.8035 31.6104C16.9728 31.4333 17.0978 31.2399 17.1848 31.0255C17.3339 30.6566 17.6423 30.4788 18.0337 30.5362C18.3638 30.5852 18.662 30.5611 18.9455 30.4617C19.493 30.2698 20.0041 30.37 20.3839 30.7444C20.4087 30.7685 20.4235 30.7817 20.4328 30.7886C20.4476 30.791 20.4615 30.7933 20.4763 30.7964H20.4817C20.5291 30.805 20.6176 30.8189 20.7124 30.8725C20.9656 31.0147 21.2312 31.1218 21.5015 31.1902C21.6009 31.2158 21.6894 31.2725 21.7531 31.3533C21.7554 31.3564 22.1981 31.8938 22.8661 31.9272C23.3756 31.9529 23.9153 31.6849 24.4668 31.1296C24.6167 30.9781 24.8062 30.9051 24.9996 30.923C25.3568 30.9564 25.5634 31.2585 25.763 31.5513C25.8469 31.6748 26.0216 31.9311 26.1071 31.9622C26.1964 31.9925 26.2741 32.0484 26.3308 32.1237C26.361 32.1641 26.4224 32.1719 26.6438 32.1657C26.6834 32.1649 26.7222 32.1633 26.7603 32.1633C26.796 32.1633 26.8333 32.1633 26.8713 32.1641C26.942 32.1657 27.0888 32.168 27.1183 32.147C27.1183 32.147 27.1214 32.1447 27.1261 32.1377C27.1991 32.0329 27.3125 31.9622 27.4383 31.9428C27.4678 31.9381 27.5315 31.9016 27.5874 31.8698C27.6185 31.8519 27.6488 31.8348 27.6806 31.8177C27.686 31.8138 27.6907 31.8092 27.6961 31.8045C27.8243 31.6942 27.9555 31.629 28.0876 31.6111C28.3516 31.3494 28.4961 31.0947 28.5279 30.8352C28.6258 30.0306 29.237 29.8341 29.5656 29.7285C29.7504 29.6695 29.9399 29.657 30.1636 29.6904C30.4144 29.7277 30.6529 29.7316 30.8727 29.7013C30.9286 29.6936 30.9853 29.6873 31.042 29.6811C31.2944 29.6524 31.4536 29.6299 31.553 29.5273C31.595 29.4839 31.6447 29.4497 31.7006 29.4248C32.1837 29.2128 32.5907 28.8951 32.9099 28.4804C33.365 27.8894 33.5529 27.2471 33.4854 26.5155C33.4512 26.1442 33.5708 25.8297 33.8504 25.5539C34.4616 24.952 34.4842 24.0449 33.9048 23.3979C33.8271 23.311 33.65 23.1137 33.6671 22.8131C33.629 22.6974 33.452 22.4155 33.3549 22.2601C33.1265 21.8974 32.9968 21.6807 32.9805 21.4656C32.9697 21.3196 32.8935 21.1751 32.7677 21.0602C32.4998 20.8148 32.4384 20.515 32.586 20.1694C32.9269 19.3694 32.9231 18.5912 32.5759 17.8557C32.4462 17.5807 32.1751 17.0083 32.7623 16.4414C32.8982 16.3101 33.1809 16.036 33.6578 16.2868C33.9459 16.4383 34.2706 16.4437 34.5478 16.3016C34.8243 16.1595 35.0115 15.8962 35.0659 15.5762V15.5373C35.0643 15.4807 35.0635 15.424 35.0635 15.3673C35.062 14.9991 34.8981 14.7327 34.5618 14.5525C34.2115 14.3646 33.8931 14.377 33.6151 14.5906C33.0512 15.024 32.6497 14.6255 32.5176 14.4951C32.0819 14.0632 31.5678 13.9444 30.9457 14.1324C30.6451 14.2232 30.4113 14.3894 30.2296 14.6403C30.2257 14.6473 30.2218 14.6543 30.218 14.6613C30.1682 14.7545 30.0525 14.9719 29.7939 15.0449C29.6766 15.0783 29.4902 15.0908 29.2728 14.9626C29.0133 14.8096 28.7019 14.7545 28.2926 14.7902C27.9649 14.8182 27.6752 14.7203 27.4554 14.5059C27.2146 14.2722 26.8457 14.1456 26.4403 14.1603C26.0131 14.1751 25.6139 14.3459 25.3716 14.6162C25.1075 14.9114 24.7681 14.9385 24.4629 14.6885C23.3732 13.7961 22.1181 13.6904 20.9275 14.391C20.606 14.5805 20.3116 14.5556 20.0282 14.3172C19.6119 13.9669 19.1661 13.8559 18.6643 13.9794C18.2946 14.0702 18.0104 14.245 17.796 14.5153C17.636 14.7164 17.3425 14.7498 17.1413 14.5898C16.9401 14.4298 16.9068 14.1362 17.0667 13.9351C17.41 13.5033 17.8729 13.2136 18.443 13.0746C19.1979 12.8897 19.9218 13.0497 20.5454 13.5374C21.9791 12.7352 23.534 12.8377 24.8598 13.817C25.266 13.4621 25.8166 13.2509 26.4092 13.2307C27.0678 13.2074 27.6853 13.4295 28.1062 13.8396C28.1179 13.8512 28.1373 13.8699 28.2134 13.8636C28.7112 13.8201 29.1392 13.8792 29.5151 14.0431C29.8118 13.6547 30.2024 13.386 30.6777 13.2423C31.6105 12.9612 32.4571 13.1514 33.132 13.793C33.6873 13.4124 34.3638 13.3891 35.0045 13.7332C35.6414 14.0757 35.994 14.6551 35.9971 15.3657C35.9971 15.4193 35.9979 15.4729 35.9986 15.5265V15.6049C36.0002 15.6282 35.9986 15.6515 35.9955 15.674C35.9062 16.314 35.535 16.8452 34.975 17.1318C34.4647 17.3936 33.8815 17.4075 33.3533 17.1745C33.3168 17.2274 33.3347 17.2786 33.4193 17.458C33.8675 18.4048 33.8877 19.4377 33.4792 20.4521C33.7254 20.7107 33.8745 21.0268 33.9079 21.36C33.9413 21.44 34.0632 21.6341 34.1455 21.7646C34.4197 22.2003 34.5952 22.5009 34.603 22.7789C35.5093 23.7933 35.4682 25.2712 34.5067 26.2188C34.4143 26.3096 34.408 26.3508 34.4158 26.43C34.5051 27.3931 34.248 28.2738 33.6508 29.0489C33.2524 29.567 32.7491 29.9685 32.1534 30.2434C31.8287 30.53 31.4389 30.5735 31.1484 30.6061C31.0995 30.6116 31.0505 30.617 31.0016 30.624C30.694 30.6667 30.3663 30.662 30.0277 30.6116C29.9283 30.5968 29.8817 30.6061 29.8521 30.6154C29.4949 30.7304 29.4747 30.7793 29.4545 30.9479C29.3885 31.4907 29.0941 31.9816 28.5551 32.4484C28.4666 32.5245 28.3532 32.5633 28.2437 32.5618C28.2126 32.5858 28.1746 32.6122 28.1303 32.6348C28.1039 32.6487 28.0775 32.6635 28.0511 32.679C27.9757 32.7225 27.8818 32.7761 27.7684 32.8165C27.4701 33.1062 27.0795 33.1 26.8566 33.0961C26.8263 33.0961 26.796 33.0946 26.768 33.0953C26.737 33.0953 26.7043 33.0969 26.6717 33.0977C26.4131 33.1046 25.996 33.1171 25.676 32.7885C25.3716 32.6309 25.1642 32.3264 24.9933 32.0763C24.9732 32.0468 24.9506 32.0134 24.9266 31.9793C24.2369 32.6037 23.5224 32.8988 22.8039 32.8577C21.9574 32.8087 21.3671 32.2977 21.1326 32.0554C20.8491 31.9723 20.5718 31.8573 20.3054 31.7129C20.3031 31.7129 20.3 31.7121 20.2977 31.7113C20.0359 31.6803 19.8573 31.5342 19.7299 31.4084C19.639 31.3183 19.5179 31.2484 19.2538 31.3409C18.8569 31.4799 18.4484 31.5234 18.0073 31.4721C17.8434 31.8356 17.598 32.1633 17.2764 32.446C17.1949 32.5175 17.0939 32.5571 16.9899 32.5618C16.937 32.6045 16.8679 32.6495 16.7786 32.6775C16.7631 32.6821 16.7235 32.7039 16.6939 32.7194C16.6357 32.7513 16.5642 32.7893 16.478 32.8204C16.2147 33.0674 15.894 33.1 15.6501 33.1H15.6532Z" fill="#171717"/>
<path d="M29.5213 33.1085C29.23 33.1085 28.9023 33.0549 28.58 32.8763C28.5279 32.8476 28.4821 32.8095 28.4448 32.7637C28.4254 32.7404 28.3516 32.7023 28.2926 32.672C28.187 32.6177 28.0549 32.5509 27.9338 32.4367C27.8134 32.3241 27.7614 32.1563 27.7971 31.9956C27.8553 31.7346 28.0076 31.563 28.1186 31.4379C28.1411 31.4131 28.1637 31.3874 28.1846 31.3618C28.3773 31.1234 28.486 30.8601 28.5085 30.5789C28.5442 30.1293 28.8207 29.932 29.0467 29.8458L29.1384 29.81C29.4669 29.6819 29.8389 29.5367 30.3236 29.6182C30.7453 29.6897 31.2144 29.6229 31.7161 29.4194C31.8559 29.3627 32.0151 29.3774 32.1425 29.459C32.2699 29.5405 32.3499 29.6788 32.3569 29.8295C32.3988 30.7218 32.1868 31.4434 31.7076 32.0352C31.473 32.3256 31.2043 32.54 30.9107 32.6728C30.8486 32.7008 30.7771 32.7419 30.701 32.7854C30.5193 32.8895 30.3135 33.0083 30.0665 33.0534C29.9119 33.0813 29.7263 33.1077 29.5221 33.1077L29.5213 33.1085ZM29.0895 32.0903C29.2992 32.1866 29.5523 32.2006 29.898 32.1369C29.9881 32.1206 30.1139 32.0476 30.2366 31.9777C30.329 31.9249 30.4238 31.8697 30.5278 31.8231C30.6878 31.7509 30.8408 31.6251 30.983 31.4496C31.2035 31.177 31.3394 30.8655 31.3977 30.4943C30.9721 30.589 30.5604 30.6038 30.1682 30.5378C29.9492 30.5005 29.7714 30.5634 29.477 30.6784L29.4343 30.6954C29.39 31.1506 29.2137 31.5723 28.91 31.9474C28.91 31.9474 28.91 31.9482 28.9085 31.949C28.9691 31.987 29.0312 32.0336 29.0895 32.0903Z" fill="#171717"/>
<path d="M18.2768 33.0992C17.9762 33.0992 17.6446 33.0511 17.3153 32.8856C17.2562 32.8561 17.2042 32.8142 17.163 32.7629C17.1444 32.7396 17.0706 32.7023 17.0116 32.6721C16.9052 32.6177 16.7731 32.5501 16.6512 32.4352C16.5246 32.3163 16.4749 32.1362 16.5223 31.9692C16.5945 31.7137 16.7475 31.5436 16.871 31.4069C16.9308 31.3409 16.9984 31.2655 17.0108 31.2236C17.2632 30.3491 17.9172 30.3825 18.2853 30.4803C18.4282 30.5184 18.589 30.5075 18.7148 30.4508C19.4588 30.1168 20.1734 30.2931 20.7264 30.9486C20.8413 31.0846 20.8685 31.2748 20.797 31.4372C20.5431 32.0127 20.1283 32.4414 19.5652 32.7093C19.5474 32.7179 19.5039 32.7458 19.4697 32.7684C19.3121 32.8701 19.0736 33.0247 18.7327 33.0674C18.5944 33.0845 18.4399 33.0992 18.2768 33.0992ZM17.8014 32.0841C18.0111 32.1703 18.2605 32.1882 18.6162 32.1431C18.7459 32.1268 18.8515 32.0585 18.9633 31.9863C19.0262 31.9459 19.0915 31.9032 19.1637 31.869C19.4278 31.7432 19.6351 31.5676 19.792 31.3378C19.5505 31.1638 19.3338 31.1948 19.0969 31.3012C18.7777 31.4449 18.394 31.4737 18.0453 31.3812C18.001 31.3696 17.97 31.3649 17.9498 31.3634C17.9389 31.3844 17.9234 31.4209 17.9055 31.4822C17.8473 31.6841 17.7362 31.8325 17.6321 31.9536C17.6881 31.9901 17.7455 32.0329 17.8007 32.0849L17.8014 32.0841Z" fill="#171717"/>
<path d="M19.0985 32.9843C19.0985 32.8142 19.1498 32.5998 19.0667 32.4857C18.9758 32.3599 18.7723 32.5066 18.6263 32.5338C18.2481 32.603 17.8932 32.4538 17.525 32.4694C17.5219 33.326 17.5173 34.1819 17.5196 35.0386C17.5196 35.1271 17.4575 35.2405 17.5786 35.3065C18.085 35.3081 18.5906 35.3096 19.097 35.3119C19.0954 35.11 19.0939 34.9073 19.0916 34.7054C19.0939 34.1322 19.0978 33.5582 19.0985 32.9851V32.9843Z" fill="#F68828"/>
<path d="M19.097 35.7779H19.0954L17.577 35.7725C17.4994 35.7725 17.424 35.7531 17.3557 35.7158C17.2136 35.6381 16.9844 35.4471 17.0512 35.0339L17.0528 35.0238C17.0512 34.3582 17.0536 33.6833 17.0559 33.0301L17.0582 32.4686C17.059 32.2193 17.2555 32.015 17.5048 32.0049C17.7075 31.9964 17.8962 32.0251 18.0632 32.0507C18.245 32.0787 18.4026 32.102 18.5416 32.0764C18.5471 32.0748 18.5797 32.0624 18.6007 32.0538C18.9781 31.9086 19.2624 31.9622 19.4434 32.2138C19.6033 32.4352 19.5839 32.6892 19.5692 32.874C19.5661 32.9159 19.563 32.9563 19.563 32.9851C19.563 33.4006 19.5606 33.8161 19.5583 34.2316L19.556 34.7077L19.5614 35.3081C19.5622 35.4323 19.5133 35.5527 19.4255 35.6405C19.3377 35.7282 19.2189 35.7779 19.0954 35.7779H19.097ZM17.9848 34.8421L18.6263 34.8444V34.7093L18.6279 34.2262C18.6302 33.8192 18.6317 33.4115 18.6325 33.0045C18.3972 33.0355 18.1828 33.0099 17.9887 32.9812V33.034C17.9863 33.6274 17.984 34.2386 17.9848 34.8428V34.8421Z" fill="#171717"/>
<path d="M16.2373 34.7077C16.2349 33.9396 16.2326 33.1715 16.2303 32.4041C15.7138 32.606 15.1965 32.606 14.6801 32.4041C14.6785 33.1722 14.6769 33.9411 14.6754 34.7092C14.6723 34.8188 14.6793 34.9306 14.6645 35.0386C14.6358 35.2514 14.694 35.3469 14.9332 35.3236C15.181 35.2995 15.4326 35.3181 15.6827 35.3181C16.0747 35.3181 16.2595 35.1147 16.2373 34.7077Z" fill="#F68828"/>
<path d="M14.8704 35.7927C14.6607 35.7927 14.4914 35.7274 14.3671 35.5977C14.2219 35.4471 14.1667 35.2374 14.2024 34.9756C14.2086 34.9329 14.2079 34.8747 14.2079 34.8133C14.2079 34.7768 14.2079 34.7403 14.2079 34.703L14.2125 32.4033C14.2125 32.2496 14.2886 32.1059 14.416 32.0197C14.5434 31.9327 14.7049 31.9148 14.8478 31.9707C15.2564 32.1299 15.6525 32.1299 16.0594 31.9707C16.2023 31.9148 16.3639 31.9327 16.4913 32.0197C16.6186 32.1059 16.6947 32.2496 16.6947 32.4033L16.7017 34.6953C16.7227 35.0867 16.7351 35.3461 16.5278 35.5651C16.3196 35.7849 16.0517 35.7849 15.6812 35.7849C15.6012 35.7849 15.522 35.7834 15.442 35.781C15.2773 35.7772 15.1212 35.774 14.9768 35.788C14.9403 35.7919 14.9045 35.7935 14.8696 35.7935L14.8704 35.7927ZM15.2245 34.8452C15.3061 34.8452 15.3853 34.8467 15.4645 34.849C15.5686 34.8514 15.6734 34.8529 15.7783 34.8521C15.7767 34.8133 15.7744 34.7722 15.7721 34.7333C15.7721 34.7256 15.7721 34.7178 15.7721 34.7092L15.7674 33.0021C15.56 33.0285 15.3527 33.0285 15.1461 33.0021L15.1422 34.71C15.1422 34.71 15.1422 34.717 15.1422 34.7209C15.1422 34.7504 15.1422 34.7807 15.1422 34.811V34.8459C15.1702 34.8459 15.1981 34.8459 15.2261 34.8459L15.2245 34.8452Z" fill="#171717"/>
<path d="M30.3718 34.7061V32.4437C30.2001 32.4732 30.051 32.4895 29.9058 32.5245C29.5322 32.6169 29.1734 32.4655 28.8053 32.4686C28.8021 33.3252 28.7975 34.1827 28.7998 35.0393C28.7998 35.1279 28.7369 35.2413 28.8596 35.3065C29.3652 35.3081 29.8708 35.3088 30.3764 35.3104C30.3749 35.1085 30.3733 34.9073 30.3718 34.7054V34.7061Z" fill="#F68828"/>
<path d="M30.3764 35.7771H30.3756L28.8588 35.7733C28.7827 35.7733 28.7081 35.7546 28.6414 35.7189C28.4969 35.642 28.2639 35.4509 28.333 35.0347L28.3346 35.0246C28.333 34.3675 28.3353 33.7011 28.3377 33.0557L28.34 32.467C28.3408 32.2123 28.5466 32.0049 28.8013 32.0026C28.9846 32.001 29.1532 32.0274 29.3038 32.0507C29.4934 32.0802 29.6572 32.1059 29.7947 32.0717C29.9135 32.0422 30.03 32.0251 30.1419 32.0072C30.1908 31.9995 30.2413 31.9925 30.2933 31.9832C30.4285 31.9599 30.5675 31.9979 30.6723 32.0864C30.7772 32.175 30.8378 32.3055 30.8378 32.4422V34.703L30.8424 35.3065C30.8432 35.4308 30.7943 35.5504 30.7065 35.6389C30.6187 35.7267 30.4999 35.7764 30.3764 35.7764V35.7771ZM29.265 34.842L29.9065 34.8436V34.7092C29.9065 34.7092 29.9058 34.7069 29.9058 34.7054V32.999C29.6751 33.0371 29.4631 33.0161 29.2697 32.9874V33.0581C29.2673 33.6429 29.265 34.2456 29.2658 34.8413L29.265 34.842Z" fill="#171717"/>
<path d="M27.5175 34.7085C27.5152 33.9404 27.5136 33.1722 27.5113 32.4041C26.9948 32.606 26.4775 32.6053 25.9611 32.4041C25.9595 33.1722 25.958 33.9404 25.9556 34.7085C25.9525 34.8281 25.9618 34.95 25.9448 35.0673C25.9121 35.2902 26.0131 35.3352 26.2127 35.322C26.4612 35.3049 26.7121 35.3181 26.9622 35.3181C27.3531 35.3181 27.5382 35.1149 27.5175 34.7085Z" fill="#F68828"/>
<path d="M26.1529 35.7911C26.0178 35.7911 25.7995 35.7647 25.6365 35.5876C25.4998 35.4393 25.4485 35.242 25.4842 34.9997C25.4912 34.9539 25.4904 34.891 25.4904 34.8234C25.4904 34.783 25.4904 34.7426 25.4904 34.703L25.4959 32.4033C25.4959 32.2496 25.5728 32.1059 25.6994 32.0197C25.8267 31.9327 25.9883 31.9148 26.1312 31.9707C26.5389 32.1299 26.9358 32.1299 27.3428 31.9707C27.4857 31.9148 27.6472 31.9335 27.7746 32.0197C27.902 32.1059 27.9781 32.2496 27.9781 32.4033L27.9843 34.696C28.0045 35.0875 28.0154 35.3469 27.808 35.5651C27.5998 35.7841 27.3327 35.7841 26.963 35.7841C26.8853 35.7841 26.8077 35.7826 26.7292 35.7818C26.5591 35.7795 26.3991 35.7772 26.2446 35.7872C26.2228 35.7888 26.191 35.7911 26.1529 35.7911ZM26.5094 34.8483C26.5886 34.8483 26.6663 34.8498 26.7432 34.8506C26.848 34.8521 26.9529 34.8529 27.0577 34.8529C27.0562 34.8133 27.0539 34.7729 27.0515 34.7333C27.0515 34.7256 27.0515 34.7186 27.0515 34.7108L27.0469 33.0029C26.8395 33.0293 26.6329 33.0293 26.4255 33.0029L26.4217 34.7108C26.4217 34.7108 26.4217 34.717 26.4217 34.7209C26.4217 34.7535 26.4217 34.7854 26.4217 34.818C26.4217 34.8281 26.4217 34.8389 26.4217 34.849C26.4512 34.849 26.4799 34.849 26.5094 34.849V34.8483Z" fill="#171717"/>
<path d="M31.8427 21.4112C31.8373 22.3774 31.3076 22.9133 30.541 22.9024C29.8148 22.8923 29.2277 22.337 29.2836 21.6007C29.3667 20.5072 29.6797 19.4502 29.9414 18.3892C30.0137 18.098 30.2552 17.9388 30.5814 17.9559C30.8998 17.973 31.1274 18.1438 31.1996 18.4327C31.4598 19.4742 31.7138 20.5181 31.8427 21.412V21.4112Z" fill="#F68828"/>
<path d="M30.5636 23.3684C30.5535 23.3684 30.5441 23.3684 30.534 23.3684C30.0339 23.3614 29.5624 23.1548 29.2401 22.8022C28.9333 22.4667 28.7834 22.0271 28.8184 21.5658C28.8898 20.6276 29.1213 19.7197 29.3457 18.8428C29.3939 18.6541 29.4421 18.4661 29.4887 18.2774C29.6137 17.7695 30.0548 17.4611 30.6063 17.4907C31.1305 17.5194 31.5313 17.837 31.6517 18.3194C31.9212 19.3974 32.1736 20.4396 32.3033 21.3452C32.3064 21.3677 32.3079 21.391 32.3079 21.4143C32.3048 22.0388 32.1138 22.5545 31.7557 22.9055C31.4466 23.2092 31.0342 23.3692 30.5628 23.3692L30.5636 23.3684ZM30.5286 18.4203C30.4137 18.4203 30.402 18.4661 30.3935 18.5003C30.3461 18.6914 30.2979 18.8824 30.249 19.0727C30.0246 19.9496 29.8133 20.7783 29.7481 21.6357C29.7286 21.8951 29.835 22.0714 29.9282 22.1731C30.0781 22.337 30.3034 22.4325 30.5472 22.4364C30.7833 22.4395 30.9674 22.3735 31.1041 22.2399C31.275 22.0722 31.369 21.7965 31.3767 21.4423C31.2509 20.588 31.0078 19.5845 30.7484 18.5454C30.7375 18.5019 30.7197 18.4296 30.5566 18.4211C30.5472 18.4211 30.5379 18.4211 30.5294 18.4211L30.5286 18.4203Z" fill="#171717"/>
</g>
<defs>
<clipPath id="clip0_1392_4584">
<rect width="32" height="22.7927" fill="white" transform="translate(8 13)"/>
</clipPath>
</defs>
</svg>
