<svg width="48" height="48" viewBox="0 0 48 48" fill="none" xmlns="http://www.w3.org/2000/svg">
<rect width="48" height="48" rx="10" fill="#FFF3E9"/>
<g clip-path="url(#clip0_1767_11790)">
<path d="M22.8085 37.6179C14.6431 37.6179 8 30.974 8 22.8085C8 14.6431 14.6431 8 22.8085 8C30.974 8 37.6171 14.6431 37.6171 22.8085C37.6171 30.974 30.974 37.6171 22.8085 37.6171V37.6179ZM22.8085 8.93204C15.1573 8.93204 8.93204 15.1573 8.93204 22.8085C8.93204 30.4598 15.1573 36.685 22.8085 36.685C30.4598 36.685 36.685 30.4598 36.685 22.8085C36.685 15.1573 30.4606 8.93204 22.8085 8.93204Z" fill="#171717"/>
<path d="M39.534 39.8097C39.4144 39.8097 39.2955 39.7639 39.2047 39.673L32.7153 33.1837C32.5336 33.0019 32.5336 32.7068 32.7153 32.5243C32.8971 32.3425 33.1922 32.3425 33.374 32.5243L39.8633 39.0136C40.045 39.1953 40.045 39.4905 39.8633 39.673C39.7724 39.7639 39.6528 39.8097 39.534 39.8097Z" fill="#171717"/>
<path d="M20.0916 21.0928C20.5274 20.828 20.7254 20.8171 21.1557 20.5437C21.6202 20.2485 22.0676 19.934 22.4179 19.5014C22.6897 19.1658 22.6237 18.866 22.2446 18.699C21.4703 18.3588 21.0004 17.5891 21.0377 16.7239C21.0726 15.9301 21.645 15.1907 22.4186 14.932C22.5763 14.8792 22.7332 14.8318 22.8489 14.988C22.9592 15.1355 22.8559 15.2629 22.7782 15.3911C22.438 15.9487 22.4955 16.5515 22.9274 16.9849C23.3662 17.4268 23.9829 17.4819 24.546 17.1239C24.6757 17.0416 24.8047 16.9522 24.9483 17.0625C25.092 17.1728 25.0415 17.3204 24.9918 17.4664C24.7215 18.2586 24.1584 18.706 23.3499 18.8637C23.0478 18.9227 22.9538 19.1612 23.1472 19.426C23.36 19.7181 23.6303 19.9542 23.92 20.1685C24.5647 20.6454 25.2753 21.0152 25.9549 21.4369C26.6206 21.8501 27.2497 22.3045 27.7359 22.9352C28.7542 24.2563 28.4489 26.2641 27.7693 27.3864C27.6792 27.5348 27.558 27.4998 27.4392 27.4998C25.8975 27.5021 24.3549 27.5014 22.8132 27.5014C21.2815 27.5014 19.7499 27.4967 18.219 27.506C18.0039 27.5076 17.8749 27.4532 17.7755 27.252C16.981 25.6365 16.9219 23.7336 18.4194 22.3402" fill="#F68828"/>
<path d="M18.1988 27.9728C18.0295 27.9728 17.6008 27.9526 17.3577 27.4586C16.3503 25.4113 16.6291 23.3709 18.1025 22C18.2905 21.8245 18.5856 21.8353 18.7612 22.0241C18.9367 22.2128 18.9258 22.5072 18.7371 22.6827C17.0757 24.2284 17.7988 26.2408 18.1911 27.0416C18.1981 27.0416 18.2066 27.0416 18.2167 27.0416C19.3802 27.0346 20.5615 27.0353 21.7048 27.0361H23.7592C24.9848 27.0361 26.2105 27.0369 27.4353 27.0353C27.9495 26.0932 28.2509 24.3674 27.3678 23.221C26.9017 22.6159 26.268 22.1802 25.7103 21.8338C25.4944 21.7002 25.2691 21.5674 25.0516 21.44C24.5833 21.1651 24.0994 20.8808 23.6443 20.5445C23.2862 20.2796 23.0206 20.028 22.8124 19.7561C22.8023 19.7693 22.7922 19.7825 22.7814 19.7965C22.3876 20.2827 21.8882 20.633 21.4066 20.939C21.1542 21.0998 20.9647 21.1837 20.7977 21.2575C20.654 21.3212 20.5181 21.381 20.334 21.4928C20.1142 21.6264 19.8276 21.5565 19.694 21.3359C19.5604 21.1153 19.6303 20.8295 19.8509 20.6959C20.0862 20.553 20.2633 20.4746 20.4202 20.4054C20.5771 20.3355 20.713 20.2757 20.9072 20.1522C21.3864 19.8478 21.7647 19.5713 22.0575 19.2093C22.0777 19.1845 22.0916 19.1635 22.101 19.148C22.0901 19.1418 22.0761 19.1348 22.059 19.127C21.1115 18.7099 20.5282 17.76 20.574 16.7052C20.6167 15.7219 21.3157 14.8117 22.2734 14.4917C22.4295 14.4396 22.9041 14.2812 23.2249 14.7099C23.5161 15.099 23.2777 15.4773 23.1992 15.6016L23.1782 15.635C22.9491 16.0109 22.9779 16.3736 23.2598 16.6579C23.5441 16.9437 23.9223 16.9709 24.2975 16.7317L24.3099 16.7239C24.4544 16.6322 24.8365 16.3884 25.2342 16.6944C25.6419 17.0082 25.4858 17.4672 25.4346 17.6179C25.1402 18.4816 24.5173 19.0524 23.6272 19.2808C23.7716 19.4501 23.9573 19.6163 24.1996 19.7957C24.6151 20.1025 25.0571 20.3627 25.5247 20.6369C25.7476 20.7674 25.9775 20.9025 26.2027 21.0431C26.8318 21.4338 27.5495 21.9301 28.1072 22.6532C29.2256 24.1049 28.974 26.3014 28.1701 27.6303C27.9511 27.9922 27.5946 27.9751 27.4773 27.9697C27.4656 27.9697 27.4532 27.9666 27.4415 27.9682C26.2144 27.9697 24.9872 27.9697 23.76 27.9697H21.7048C20.5631 27.9682 19.3825 27.9674 18.2229 27.9744C18.2159 27.9744 18.2082 27.9744 18.2004 27.9744L18.1988 27.9728ZM22.1841 15.5674C21.7926 15.8392 21.5239 16.2858 21.5037 16.7441C21.4742 17.4214 21.8299 18.007 22.4326 18.2718C22.633 18.3596 22.7689 18.4707 22.8606 18.5841C22.9693 18.4971 23.106 18.4357 23.2614 18.4054C23.7623 18.3076 24.1181 18.0893 24.3534 17.7289C23.7289 17.9379 23.0757 17.7926 22.5981 17.3126C22.1188 16.8303 21.9751 16.1903 22.1849 15.5666L22.1841 15.5674Z" fill="#171717"/>
<path d="M22.5243 30.7355C20.915 30.7355 19.3049 30.7355 17.6955 30.7355C17.259 30.7355 17.2357 30.7107 17.235 30.2625C17.235 29.9985 17.2295 29.7344 17.2365 29.4703C17.2474 29.0354 17.5643 28.7099 17.9984 28.7091C21.2085 28.706 24.4194 28.7053 27.6295 28.7091C28.0645 28.7091 28.3798 29.0361 28.3899 29.4726C28.3961 29.7468 28.3915 30.0218 28.3907 30.2967C28.3899 30.699 28.355 30.7355 27.9604 30.7363C26.8155 30.7363 25.6707 30.7363 24.5258 30.7363" fill="#F68828"/>
<path d="M25.5845 31.2016C25.2318 31.2016 24.8784 31.2016 24.5258 31.2016C24.2687 31.2016 24.0598 30.9926 24.0598 30.7355C24.0598 30.4785 24.2687 30.2695 24.5258 30.2695C25.659 30.2695 26.7922 30.2695 27.9254 30.2695C27.9254 30.2043 27.9254 30.139 27.9262 30.0738C27.927 29.8788 27.9285 29.6777 27.9239 29.4835C27.9208 29.3352 27.8416 29.1759 27.6295 29.1759C24.4862 29.172 21.2466 29.172 17.9992 29.1759C17.8237 29.1759 17.7072 29.2963 17.7025 29.4827C17.6979 29.6614 17.6994 29.8392 17.7002 30.0272C17.7002 30.1056 17.701 30.1841 17.701 30.2625V30.2703H22.5243C22.7814 30.2703 22.9903 30.4792 22.9903 30.7363C22.9903 30.9934 22.7814 31.2023 22.5243 31.2023H17.6955C17.4501 31.2023 17.1713 31.2023 16.9678 30.9926C16.7697 30.7891 16.7697 30.522 16.7697 30.2633C16.7697 30.1864 16.7697 30.1095 16.7689 30.0326C16.7674 29.8462 16.7666 29.6528 16.7713 29.4594C16.7884 28.7666 17.3157 28.2447 17.9992 28.2439C21.2466 28.2408 24.4878 28.2408 27.6311 28.2439C28.3138 28.2439 28.8412 28.7689 28.8567 29.4625C28.8614 29.6707 28.8598 29.8788 28.859 30.08C28.859 30.153 28.8583 30.2252 28.8583 30.2983C28.8567 30.9569 28.6136 31.2023 27.9619 31.2023C27.1697 31.2023 26.3783 31.2023 25.586 31.2023L25.5845 31.2016Z" fill="#171717"/>
<path d="M22.8086 35.2497C15.9487 35.2497 10.3674 29.6684 10.3674 22.8086C10.3674 20.0443 11.2544 17.4276 12.9336 15.2396C14.5592 13.1216 16.8614 11.5581 19.4159 10.835C19.6637 10.7651 19.9216 10.9087 19.9915 11.1565C20.0614 11.4043 19.9177 11.6614 19.6699 11.732C14.7418 13.1254 11.2994 17.68 11.2994 22.8078C11.2994 29.1542 16.4621 34.3169 22.8086 34.3169C29.155 34.3169 34.3177 29.1542 34.3177 22.8078C34.3177 16.9942 29.9728 12.0831 24.2113 11.3833C23.9557 11.3522 23.774 11.12 23.8051 10.8645C23.8361 10.6089 24.0691 10.4264 24.3239 10.4583C30.553 11.2148 35.2497 16.5243 35.2497 22.8078C35.2497 29.6676 29.6684 35.2489 22.8086 35.2489V35.2497Z" fill="#171717"/>
</g>
<defs>
<clipPath id="clip0_1767_11790">
<rect width="32" height="31.8097" fill="white" transform="translate(8 8)"/>
</clipPath>
</defs>
</svg>
