<svg width="48" height="48" viewBox="0 0 48 48" fill="none" xmlns="http://www.w3.org/2000/svg">
<rect width="48" height="48" rx="10" fill="#FFF3E9"/>
<g clip-path="url(#clip0_869_5014)">
<path d="M39.534 37.4571H8.46602C8.20893 37.4571 8 37.2489 8 36.9911V24.6097C8 24.3526 8.20893 24.1437 8.46602 24.1437C8.72311 24.1437 8.93204 24.3526 8.93204 24.6097V36.5251H39.068V18.4474H8.93204V22.0878C8.93204 22.3449 8.72311 22.5538 8.46602 22.5538C8.20893 22.5538 8 22.3449 8 22.0878V17.9814C8 17.7243 8.20893 17.5154 8.46602 17.5154H39.534C39.7911 17.5154 40 17.7243 40 17.9814V36.9911C40 37.2482 39.7911 37.4571 39.534 37.4571Z" fill="#333333"/>
<path d="M39.534 18.4474H8.46602C8.32233 18.4474 8.18641 18.3814 8.09864 18.268C8.01087 18.1546 7.97903 18.007 8.01476 17.868L9.9099 10.3518C9.96194 10.1445 10.1483 10 10.3619 10H30.2485C30.5056 10 30.7146 10.2089 30.7146 10.466C30.7146 10.7231 30.5056 10.932 30.2485 10.932H10.7247L9.06408 17.5153H38.9359L37.2753 10.932H32.1678C31.9107 10.932 31.7017 10.7231 31.7017 10.466C31.7017 10.2089 31.9107 10 32.1678 10H37.6388C37.8524 10 38.0388 10.1452 38.0909 10.3518L39.9868 17.8672C40.0217 18.0062 39.9907 18.1546 39.9029 18.2672C39.8151 18.3798 39.6792 18.4466 39.5355 18.4466L39.534 18.4474Z" fill="#333333"/>
<path d="M24 24.24C22.7565 22.9965 20.7394 22.9965 19.4959 24.24C18.2524 25.4835 18.2524 27.5006 19.4959 28.7441L24 33.2482L28.5041 28.7441C29.7476 27.5006 29.7476 25.4835 28.5041 24.24C27.2606 22.9965 25.2435 22.9965 24 24.24Z" fill="#FF8823"/>
<path d="M24 33.7142C23.8804 33.7142 23.7615 33.6683 23.6707 33.5775L19.1666 29.0734C17.7429 27.6497 17.7429 25.3336 19.1666 23.9099C20.4846 22.5918 22.5685 22.494 24 23.6179C25.4314 22.4948 27.5153 22.5918 28.8334 23.9099C30.2571 25.3336 30.2571 27.6497 28.8334 29.0734L24.3293 33.5775C24.2384 33.6683 24.1188 33.7142 24 33.7142ZM21.7476 23.7748C21.0516 23.7748 20.3549 24.0396 19.8252 24.5701C18.765 25.6303 18.765 27.3553 19.8252 28.4148L24 32.5895L28.1747 28.4148C29.2349 27.3546 29.2349 25.6295 28.1747 24.5701C27.1145 23.5099 25.3895 23.5099 24.3293 24.5701C24.1476 24.7518 23.8524 24.7518 23.6707 24.5701C23.1402 24.0404 22.4443 23.7748 21.7483 23.7748H21.7476Z" fill="#333333"/>
<path d="M29.0027 14.6897H18.9973C18.7402 14.6897 18.5312 14.4808 18.5312 14.2237C18.5312 13.9666 18.7402 13.7577 18.9973 13.7577H29.0027C29.2598 13.7577 29.4687 13.9666 29.4687 14.2237C29.4687 14.4808 29.2598 14.6897 29.0027 14.6897Z" fill="#333333"/>
</g>
<defs>
<clipPath id="clip0_869_5014">
<rect width="32" height="27.4571" fill="white" transform="translate(8 10)"/>
</clipPath>
</defs>
</svg>
