<svg width="48" height="48" viewBox="0 0 48 48" fill="none" xmlns="http://www.w3.org/2000/svg">
<rect width="48" height="48" rx="10" fill="#FFF3E9"/>
<g clip-path="url(#clip0_869_5024)">
<path d="M9.99223 16.9814C9.90912 16.9814 9.82524 16.9588 9.74912 16.9122C7.85165 15.7472 7.92621 14.2373 8.23068 13.6019C8.29126 13.4761 8.40466 13.3837 8.54058 13.3503C11.1751 12.7072 11.965 13.8241 12.0458 13.9538L11.2567 14.4501C11.2567 14.4501 11.2598 14.4555 11.2668 14.4648C11.2621 14.4579 10.7697 13.8365 9.01437 14.1992C8.94757 14.5612 8.98485 15.3495 10.2361 16.1177C10.4551 16.252 10.5243 16.5394 10.3891 16.7584C10.3014 16.9014 10.1483 16.9806 9.99145 16.9806L9.99223 16.9814Z" fill="#333333"/>
<path d="M17.7025 30.7553V33.261C17.7025 33.8598 18.188 34.346 18.7876 34.346C19.3142 34.346 19.7655 33.9678 19.8563 33.4481L20.8722 27.647C20.9631 27.1281 21.4136 26.7491 21.941 26.7491H32.5748C32.8389 26.7491 33.0936 26.8454 33.2917 27.0202C33.5721 27.2679 33.986 27.6276 34.3045 27.9033C34.5911 28.1511 34.727 28.5309 34.6633 28.9044L33.927 33.2454C33.8144 33.9079 34.3247 34.5114 34.9965 34.5114H35.0105C35.4889 34.5114 35.9107 34.1984 36.049 33.7402C36.4124 32.534 37.1309 30.1945 37.6482 28.8004C38.3689 26.8594 37.0385 26.3056 36.9274 25.3627C36.8389 24.6093 37.5293 23.1476 37.8105 22.5914C37.8866 22.4408 37.9255 22.2738 37.9255 22.1044V17.546C37.9255 14.8345 35.4245 14.3965 34.9523 14.3382C34.908 14.3328 34.8645 14.3305 34.8202 14.3305H18.8031C18.5934 14.3305 18.3876 14.2707 18.2121 14.1557C16.1321 12.7802 15.8773 14.3569 13.8765 13.5965C11.7981 12.8058 10.4256 15.758 8.92817 18.419C7.61788 20.7483 9.46099 21.2563 9.94176 21.3472C10.0055 21.3588 10.0699 21.3643 10.1352 21.3643H13.214C13.5534 21.3643 13.8726 21.5227 14.0785 21.793L17.4827 26.2784C17.6256 26.4672 17.7033 26.6971 17.7033 26.934V29.146" fill="#FF8823"/>
<path d="M35.0113 34.9782H34.9973C34.5398 34.9782 34.108 34.7779 33.8128 34.4283C33.5177 34.0788 33.3919 33.6198 33.4688 33.1685L34.2051 28.8276C34.2408 28.6155 34.1624 28.3973 34 28.2567C33.694 27.9918 33.2699 27.6237 32.9841 27.3713C32.8715 27.2718 32.7262 27.2167 32.5756 27.2167H21.941C21.6396 27.2167 21.3833 27.4318 21.3313 27.7285L20.3154 33.5297C20.1849 34.273 19.5426 34.8128 18.7876 34.8128C17.9325 34.8128 17.2365 34.1169 17.2365 33.2617V30.7561C17.2365 30.499 17.4455 30.2901 17.7025 30.2901C17.9596 30.2901 18.1686 30.499 18.1686 30.7561V33.2617C18.1686 33.6027 18.4459 33.8808 18.7876 33.8808C19.089 33.8808 19.3453 33.6656 19.3973 33.3689L20.4132 27.5678C20.5437 26.8245 21.186 26.2847 21.941 26.2847H32.5748C32.953 26.2847 33.3173 26.4221 33.6008 26.6722C33.8835 26.9223 34.306 27.2889 34.6105 27.5522C35.0175 27.9048 35.214 28.4532 35.1239 28.9837L34.3876 33.3247C34.3573 33.5048 34.407 33.6881 34.5251 33.8272C34.6431 33.967 34.8156 34.047 34.9981 34.047H35.0121C35.287 34.047 35.5255 33.8707 35.6039 33.6074C35.9822 32.3514 36.6936 30.0369 37.2125 28.6396C37.6125 27.5631 37.2816 27.0435 36.9321 26.4936C36.727 26.172 36.5158 25.8388 36.466 25.4186C36.3721 24.6186 36.9196 23.3262 37.3958 22.3825C37.4385 22.2979 37.461 22.2023 37.461 22.106V17.546C37.461 15.2936 35.4983 14.8749 34.8963 14.8004C34.8715 14.7973 34.8466 14.7957 34.821 14.7957H18.8031C18.4979 14.7957 18.2051 14.7087 17.955 14.5433C16.9756 13.8955 16.5429 13.9981 15.9433 14.1386C15.4074 14.2645 14.741 14.4221 13.7103 14.0307C12.3076 13.4979 11.2326 15.2144 9.75226 17.8947C9.61323 18.1456 9.4742 18.3981 9.33362 18.6474C9.06643 19.1219 8.79381 19.786 9.01051 20.2513C9.22177 20.7056 9.84236 20.8548 10.0272 20.8897C10.0598 20.8959 10.0956 20.899 10.1344 20.899H13.2132C13.6956 20.899 14.1569 21.1281 14.4482 21.5126L17.8525 25.9981C18.0559 26.266 18.1678 26.5992 18.1678 26.9355V29.1476C18.1678 29.4047 17.9589 29.6136 17.7018 29.6136C17.4447 29.6136 17.2358 29.4047 17.2358 29.1476V26.9355C17.2358 26.8012 17.1907 26.6683 17.1099 26.5612L13.7057 22.0757C13.5892 21.9227 13.4051 21.8311 13.2125 21.8311H10.1352C10.0389 21.8311 9.94488 21.8225 9.85556 21.8054C9.47731 21.734 8.55459 21.4784 8.16702 20.645C7.85867 19.9841 7.97828 19.1584 8.52274 18.1907C8.66177 17.9437 8.80003 17.6936 8.9375 17.4443C9.63653 16.179 10.2967 14.9837 11.0626 14.1394C12.0078 13.0971 13.0105 12.7678 14.0427 13.16C14.8062 13.4505 15.2342 13.3495 15.7305 13.2322C16.3977 13.0746 17.155 12.8967 18.4699 13.7666C18.567 13.8303 18.682 13.8645 18.8039 13.8645H34.821C34.8855 13.8645 34.9476 13.8683 35.0105 13.8761C36.5709 14.0695 38.3923 15.1468 38.3923 17.546V22.106C38.3923 22.3476 38.3348 22.5883 38.2268 22.8027C37.6699 23.9064 37.3414 24.8905 37.3911 25.3099C37.4159 25.5181 37.5558 25.7386 37.7181 25.9934C38.1103 26.6101 38.647 27.4536 38.0862 28.9643C37.5759 30.3375 36.8707 32.6311 36.4963 33.8761C36.2975 34.5355 35.701 34.979 35.0113 34.979V34.9782Z" fill="#333333"/>
<path d="M39.534 23.2237C39.2769 23.2237 39.068 23.0147 39.068 22.7577V19.7083C39.068 19.0784 38.5561 18.5666 37.9262 18.5666C37.6691 18.5666 37.4602 18.3577 37.4602 18.1006C37.4602 17.8435 37.6691 17.6346 37.9262 17.6346C39.0695 17.6346 40 18.565 40 19.7083V22.7577C40 23.0147 39.7911 23.2237 39.534 23.2237Z" fill="#333333"/>
<path d="M36.734 21.699H35.9581C35.0439 21.699 34.2998 20.9549 34.2998 20.0408V18.9876C34.2998 18.5876 33.9744 18.2614 33.5736 18.2614H32.0769C31.8198 18.2614 31.6109 18.0524 31.6109 17.7953C31.6109 17.5382 31.8198 17.3293 32.0769 17.3293H33.5736C34.4878 17.3293 35.2319 18.0734 35.2319 18.9876V20.0408C35.2319 20.4408 35.5573 20.767 35.9581 20.767H36.734C37.1348 20.767 37.4602 20.4415 37.4602 20.0408C37.4602 19.7837 37.6692 19.5748 37.9262 19.5748C38.1833 19.5748 38.3923 19.7837 38.3923 20.0408C38.3923 20.9549 37.6482 21.699 36.734 21.699Z" fill="#333333"/>
<path d="M24.1189 20.6458C23.8618 20.6458 23.6528 20.4369 23.6528 20.1798C23.6528 19.9227 23.8618 19.7138 24.1189 19.7138C24.5196 19.7138 24.8451 19.3883 24.8451 18.9876V18.2116C24.8451 17.8116 24.5196 17.4854 24.1189 17.4854H23.0657C22.1515 17.4854 21.4074 16.7413 21.4074 15.8272V14.3297C21.4074 14.0726 21.6163 13.8637 21.8734 13.8637C22.1305 13.8637 22.3394 14.0726 22.3394 14.3297V15.8264C22.3394 16.2264 22.6649 16.5526 23.0657 16.5526H24.1189C25.033 16.5526 25.7771 17.2967 25.7771 18.2109V18.9868C25.7771 19.901 25.033 20.645 24.1189 20.645V20.6458Z" fill="#333333"/>
<path d="M15.5814 17.1111C15.5115 17.1111 15.44 17.0955 15.3732 17.0621C15.1433 16.9472 15.0493 16.6668 15.1651 16.4369C15.2893 16.1883 15.4268 16.0687 17.1759 16.0687C17.4035 16.0687 17.5689 16.0035 17.6948 15.8621C18.0373 15.4808 18.0318 14.6645 18.0016 14.3817C17.9736 14.1262 18.1577 13.8963 18.4132 13.8676C18.6687 13.8388 18.8986 14.0221 18.9274 14.2777C18.9437 14.4229 19.0687 15.7215 18.3907 16.4812C18.0878 16.8206 17.6676 17 17.1751 17C16.1841 17 15.868 17.0466 15.7856 17.0637C15.7219 17.0947 15.652 17.1111 15.5806 17.1111H15.5814ZM15.9985 16.8532C15.9806 16.8889 15.9588 16.9215 15.934 16.9503C15.9573 16.9239 15.9798 16.8912 15.9985 16.8532Z" fill="#333333"/>
</g>
<defs>
<clipPath id="clip0_869_5024">
<rect width="32" height="21.9783" fill="white" transform="translate(8 13)"/>
</clipPath>
</defs>
</svg>
