<svg width="48" height="48" viewBox="0 0 48 48" fill="none" xmlns="http://www.w3.org/2000/svg">
<rect width="48" height="48" rx="10" fill="#FFF3E9"/>
<g clip-path="url(#clip0_4_93)">
<path d="M35.2338 40H18.3204C18.0633 40 17.8544 39.7911 17.8544 39.534C17.8544 39.2769 18.0633 39.068 18.3204 39.068H35.2338C35.4909 39.068 35.7006 38.859 35.7006 38.6012V9.39883C35.7006 9.14175 35.4917 8.93204 35.2338 8.93204H12.3981C12.141 8.93204 11.932 9.14097 11.932 9.39883V38.6012C11.932 38.8583 12.141 39.068 12.3981 39.068H16.1472C16.4043 39.068 16.6132 39.2769 16.6132 39.534C16.6132 39.7911 16.4043 40 16.1472 40H12.3981C11.6268 40 11 39.3724 11 38.6012V9.39883C11 8.62757 11.6276 8 12.3981 8H35.2338C36.005 8 36.6326 8.62757 36.6326 9.39883V38.6012C36.6326 39.3724 36.005 40 35.2338 40Z" fill="#171717"/>
<rect x="15" y="13" width="5" height="5" fill="#FF8823"/>
<path d="M18.0819 16.4326C17.9592 16.4326 17.8404 16.3837 17.7526 16.2959L16.433 14.9763C16.2513 14.7946 16.2513 14.4994 16.433 14.3169C16.6148 14.1351 16.9099 14.1351 17.0916 14.3169L18.0252 15.2505L20.9487 11.2202C21.1002 11.012 21.3914 10.9654 21.5996 11.1169C21.8078 11.2683 21.8544 11.5596 21.7029 11.7678L18.4594 16.24C18.3794 16.3503 18.2551 16.4202 18.1192 16.4311C18.1068 16.4318 18.0944 16.4326 18.0827 16.4326H18.0819Z" fill="#171717"/>
<path d="M20.4703 18.4326H15.2043C14.9472 18.4326 14.7383 18.2237 14.7383 17.9666V12.6788C14.7383 12.4217 14.9472 12.2128 15.2043 12.2128H18.4516C18.7087 12.2128 18.9177 12.4217 18.9177 12.6788C18.9177 12.9359 18.7087 13.1449 18.4516 13.1449H15.6703V17.5006H20.0043V15.9666C20.0043 15.7095 20.2132 15.5006 20.4703 15.5006C20.7274 15.5006 20.9363 15.7095 20.9363 15.9666V17.9666C20.9363 18.2237 20.7274 18.4326 20.4703 18.4326Z" fill="#171717"/>
<path d="M33.8318 14.1957H22.774C22.5169 14.1957 22.308 13.9868 22.308 13.7297C22.308 13.4726 22.5169 13.2637 22.774 13.2637H33.8318C34.0889 13.2637 34.2979 13.4726 34.2979 13.7297C34.2979 13.9868 34.0889 14.1957 33.8318 14.1957V14.1957Z" fill="#171717"/>
<path d="M29.0489 16.4326H22.774C22.5169 16.4326 22.308 16.2237 22.308 15.9666C22.308 15.7095 22.5169 15.5006 22.774 15.5006H29.0489C29.306 15.5006 29.5149 15.7095 29.5149 15.9666C29.5149 16.2237 29.306 16.4326 29.0489 16.4326Z" fill="#171717"/>
<path d="M32.9984 16.4326H31.4629C31.2058 16.4326 30.9969 16.2237 30.9969 15.9666C30.9969 15.7095 31.2058 15.5006 31.4629 15.5006H32.9984C33.2555 15.5006 33.4645 15.7095 33.4645 15.9666C33.4645 16.2237 33.2555 16.4326 32.9984 16.4326Z" fill="#171717"/>
<rect x="15.2617" y="21.9721" width="5" height="5" fill="#FF8823"/>
<path d="M18.3437 25.4047C18.221 25.4047 18.1021 25.3558 18.0144 25.2681L16.6948 23.9484C16.513 23.7667 16.513 23.4715 16.6948 23.289C16.8765 23.1073 17.1716 23.1073 17.3534 23.289L18.287 24.2226L21.2105 20.1923C21.3619 19.9842 21.6532 19.9376 21.8614 20.089C22.0695 20.2405 22.1161 20.5317 21.9647 20.7399L18.7212 25.2121C18.6412 25.3224 18.5169 25.3923 18.381 25.4032C18.3685 25.404 18.3561 25.4047 18.3445 25.4047H18.3437Z" fill="#171717"/>
<path d="M20.732 27.4048H15.466C15.2089 27.4048 15 27.1958 15 26.9387V21.651C15 21.3939 15.2089 21.1849 15.466 21.1849H18.7134C18.9705 21.1849 19.1794 21.3939 19.1794 21.651C19.1794 21.9081 18.9705 22.117 18.7134 22.117H15.932V26.4727H20.266V24.9387C20.266 24.6816 20.475 24.4727 20.732 24.4727C20.9891 24.4727 21.1981 24.6816 21.1981 24.9387V26.9387C21.1981 27.1958 20.9891 27.4048 20.732 27.4048Z" fill="#171717"/>
<path d="M34.0936 23.1679H23.0357C22.7786 23.1679 22.5697 22.9589 22.5697 22.7018C22.5697 22.4447 22.7786 22.2358 23.0357 22.2358H34.0936C34.3507 22.2358 34.5596 22.4447 34.5596 22.7018C34.5596 22.9589 34.3507 23.1679 34.0936 23.1679V23.1679Z" fill="#171717"/>
<path d="M29.3107 25.4047H23.0357C22.7786 25.4047 22.5697 25.1958 22.5697 24.9387C22.5697 24.6816 22.7786 24.4727 23.0357 24.4727H29.3107C29.5678 24.4727 29.7767 24.6816 29.7767 24.9387C29.7767 25.1958 29.5678 25.4047 29.3107 25.4047Z" fill="#171717"/>
<path d="M33.2602 25.4047H31.7247C31.4676 25.4047 31.2586 25.1958 31.2586 24.9387C31.2586 24.6816 31.4676 24.4727 31.7247 24.4727H33.2602C33.5173 24.4727 33.7262 24.6816 33.7262 24.9387C33.7262 25.1958 33.5173 25.4047 33.2602 25.4047Z" fill="#171717"/>
<rect x="15.2617" y="30.9721" width="5" height="5" fill="#FF8823"/>
<path d="M18.3437 34.4047C18.221 34.4047 18.1021 34.3558 18.0144 34.2681L16.6948 32.9484C16.513 32.7667 16.513 32.4715 16.6948 32.289C16.8765 32.1073 17.1716 32.1073 17.3534 32.289L18.287 33.2226L21.2105 29.1923C21.3619 28.9842 21.6532 28.9376 21.8614 29.089C22.0695 29.2405 22.1161 29.5317 21.9647 29.7399L18.7212 34.2121C18.6412 34.3224 18.5169 34.3923 18.381 34.4032C18.3685 34.404 18.3561 34.4047 18.3445 34.4047H18.3437Z" fill="#171717"/>
<path d="M20.732 36.4048H15.466C15.2089 36.4048 15 36.1958 15 35.9387V30.651C15 30.3939 15.2089 30.1849 15.466 30.1849H18.7134C18.9705 30.1849 19.1794 30.3939 19.1794 30.651C19.1794 30.9081 18.9705 31.117 18.7134 31.117H15.932V35.4727H20.266V33.9387C20.266 33.6816 20.475 33.4727 20.732 33.4727C20.9891 33.4727 21.1981 33.6816 21.1981 33.9387V35.9387C21.1981 36.1958 20.9891 36.4048 20.732 36.4048Z" fill="#171717"/>
<path d="M34.0936 32.1679H23.0357C22.7786 32.1679 22.5697 31.9589 22.5697 31.7018C22.5697 31.4447 22.7786 31.2358 23.0357 31.2358H34.0936C34.3507 31.2358 34.5596 31.4447 34.5596 31.7018C34.5596 31.9589 34.3507 32.1679 34.0936 32.1679V32.1679Z" fill="#171717"/>
<path d="M29.3107 34.4047H23.0357C22.7786 34.4047 22.5697 34.1958 22.5697 33.9387C22.5697 33.6816 22.7786 33.4727 23.0357 33.4727H29.3107C29.5678 33.4727 29.7767 33.6816 29.7767 33.9387C29.7767 34.1958 29.5678 34.4047 29.3107 34.4047Z" fill="#171717"/>
<path d="M33.2602 34.4047H31.7247C31.4676 34.4047 31.2586 34.1958 31.2586 33.9387C31.2586 33.6816 31.4676 33.4727 31.7247 33.4727H33.2602C33.5173 33.4727 33.7262 33.6816 33.7262 33.9387C33.7262 34.1958 33.5173 34.4047 33.2602 34.4047Z" fill="#171717"/>
</g>
<defs>
<clipPath id="clip0_4_93">
<rect width="25.6326" height="32" fill="white" transform="translate(11 8)"/>
</clipPath>
</defs>
</svg>
