<svg width="48" height="48" viewBox="0 0 48 48" fill="none" xmlns="http://www.w3.org/2000/svg">
<rect width="48" height="48" rx="10" fill="#FFF3E9"/>
<path d="M36.2093 14.3918L29.8303 12.6419C29.5825 12.5736 29.3254 12.7196 29.2579 12.9682C29.1895 13.2167 29.3355 13.473 29.5841 13.5406L35.6206 15.1965V15.2734L24.2427 13.7254V12.0757L27.5786 12.9907C27.8264 13.059 28.0835 12.913 28.1511 12.6645C28.2194 12.4159 28.0734 12.1596 27.8249 12.092L23.8994 11.0155C23.894 11.014 23.8885 11.0132 23.8831 11.0117C23.8738 11.0093 23.8652 11.0078 23.8559 11.0062C23.8474 11.0047 23.8381 11.0039 23.8295 11.0023C23.821 11.0016 23.8124 11 23.8031 11C23.7938 11 23.7845 11 23.7759 11C23.7674 11 23.7588 11 23.7503 11C23.741 11 23.7317 11.0016 23.7223 11.0023C23.7138 11.0031 23.706 11.0047 23.6975 11.0054C23.6882 11.007 23.6788 11.0093 23.6695 11.0117C23.6641 11.0132 23.6586 11.014 23.6532 11.0148L11.3425 14.3918C11.1398 14.447 11 14.6311 11 14.8416V24.1938C11 24.4509 11.2089 24.6598 11.466 24.6598C11.7231 24.6598 11.932 24.4509 11.932 24.1938V21.1437L23.3099 19.574V30.1534L22.3359 30.0812L11.932 29.3068V26.6062C11.932 26.3491 11.7231 26.1402 11.466 26.1402C11.2089 26.1402 11 26.3491 11 26.6062V34.0687C11 34.2963 11.1639 34.4905 11.3883 34.5285L15.1017 35.1546L19.3837 35.8761L23.6276 36.5915C23.6532 36.5961 23.6788 36.5977 23.7052 36.5977C23.7317 36.5977 23.7588 36.5953 23.7852 36.5907L23.8551 36.5783L28.0524 35.8466L32.3786 35.0924L36.165 34.4322C36.388 34.3934 36.5511 34.2 36.5511 33.9732V14.8416C36.5511 14.6318 36.4113 14.4478 36.2093 14.3918ZM11.932 30.2419L12.4485 30.28L12.5239 30.2854V31.9219L12.2186 31.8994L11.932 31.8784V30.2419ZM35.6198 30.228V31.8645L34.8874 31.9196V30.2831L35.0031 30.2746L35.6198 30.228ZM28.2567 32.4206L26.235 32.5736V30.9371L29.7107 30.6746V32.3111L28.2567 32.4206ZM25.3029 32.6435L24.6505 32.6924L24.2419 32.7235V31.087L24.499 31.0676L25.3029 31.007V32.6435ZM31.4458 29.6082L30.1417 29.7068L27.7705 29.8862V23.9336C27.7705 23.793 27.8847 23.6788 28.0252 23.6788H31.1903C31.3309 23.6788 31.445 23.793 31.445 23.9336V29.6089L31.4458 29.6082ZM32.2637 32.1177L30.6427 32.2404V30.6039L33.9546 30.3538V31.9903L32.2637 32.1177ZM11.932 16.1915L23.3099 14.6217V16.3895L11.932 17.9592V16.1915ZM24.2419 18.6777V17.3751L35.6198 18.9231V20.2256L24.2419 18.6777ZM35.6198 17.9825L24.2419 16.4346V14.666L35.6198 16.214V17.9825ZM11.932 18.9006L23.3099 17.3309V18.6334L11.932 20.2031V18.9006ZM24.2419 19.6183L35.6198 21.1662V29.2928L34.9122 29.3464L32.3786 29.5383V23.9336C32.3786 23.2788 31.8458 22.7468 31.1918 22.7468H28.0268C27.372 22.7468 26.84 23.2796 26.84 23.9336V29.9569L24.2435 30.1534V19.6183H24.2419ZM16.9029 32.2482L15.5895 32.1503L13.4559 31.9918V30.3553L16.9029 30.6116V32.2482ZM17.835 32.3173V30.6808L18.3056 30.7157L21.0885 30.9231V32.5596L19.4963 32.4408L18.5099 32.3678L17.835 32.3173ZM22.0206 32.6287V30.9922L23.3099 31.0885V32.725L22.28 32.6482L22.0206 32.6287ZM23.3099 12.0765V13.6819L11.932 15.2517V15.1981L23.3099 12.0765ZM11.932 32.8128L12.9557 32.8889L13.4683 32.927L14.7134 33.0194V34.1433L11.932 33.6742V32.8128ZM15.6454 33.0893L17.334 33.2151L18.6979 33.3169L18.9953 33.3394V34.8664L15.6454 34.3017V33.0893ZM19.9274 33.4078L21.5196 33.5266L22.3282 33.5864L23.3099 33.6594V35.5926L19.9274 35.0225V33.4078ZM24.2419 33.6586L25.8039 33.5406L26.4462 33.4924L27.5072 33.4124V34.9969L24.2419 35.5654V33.6586ZM28.4392 33.3417L30.2124 33.2074L31.8334 33.0847V34.2427L28.4392 34.8338V33.3417ZM32.7654 34.0804V33.0148L34.4563 32.8866L35.6198 32.7988V33.5833L32.7654 34.0804Z" fill="#333333"/>
<path d="M31.1911 23.2121H28.026C27.6276 23.2121 27.3053 23.5352 27.3053 23.9328V30.3522C27.3053 30.3647 27.3068 30.3763 27.3068 30.3888L31.9126 30.0408V23.9336C31.9126 23.5352 31.5895 23.2128 31.1919 23.2128L31.1911 23.2121Z" fill="#FF8823"/>
<path d="M27.3068 30.8548C27.1934 30.8548 27.0839 30.8136 26.9985 30.7383C26.9045 30.6552 26.8478 30.5379 26.8416 30.4121C26.84 30.3895 26.8392 30.3709 26.8392 30.3522V23.9328C26.8392 23.2781 27.372 22.746 28.026 22.746H31.1911C31.8458 22.746 32.3779 23.2788 32.3779 23.9328V30.04C32.3779 30.2839 32.1899 30.4866 31.9468 30.5045L27.341 30.8524C27.3293 30.8532 27.3177 30.854 27.306 30.854L27.3068 30.8548ZM28.026 23.6788C27.8854 23.6788 27.7713 23.793 27.7713 23.9336V29.8862L31.4466 29.6082V23.9328C31.4466 23.7922 31.3324 23.6781 31.1919 23.6781H28.0268L28.026 23.6788Z" fill="#333333"/>
</svg>
