<svg width="48" height="48" viewBox="0 0 48 48" fill="none" xmlns="http://www.w3.org/2000/svg">
<rect width="48" height="48" rx="10" fill="#FFF3E9"/>
<g clip-path="url(#clip0_869_5013)">
<path d="M25.0379 14.1048H15.4806C15.1194 14.1048 14.8265 14.3977 14.8265 14.759V15.6328C14.8265 15.9941 15.1194 16.2869 15.4806 16.2869H25.0379C25.3992 16.2869 25.6921 15.9941 25.6921 15.6328V14.759C25.6921 14.3977 25.3992 14.1048 25.0379 14.1048Z" fill="#FF8823"/>
<path d="M25.0379 16.7525H15.4807C14.863 16.7525 14.3609 16.2505 14.3609 15.6328V14.759C14.3609 14.1413 14.863 13.6392 15.4807 13.6392H25.0379C25.6556 13.6392 26.1577 14.1413 26.1577 14.759V15.6328C26.1577 16.2505 25.6556 16.7525 25.0379 16.7525ZM15.4807 14.5704C15.3767 14.5704 15.2921 14.655 15.2921 14.759V15.6328C15.2921 15.7368 15.3767 15.8213 15.4807 15.8213H25.0379C25.1419 15.8213 25.2265 15.7368 25.2265 15.6328V14.759C25.2265 14.655 25.1419 14.5704 25.0379 14.5704H15.4807Z" fill="#333333"/>
<path d="M22.4817 14.5704H18.1664C18.102 14.5704 18.0383 14.5572 17.9794 14.5308C16.4305 13.8511 15.791 12.3573 15.5482 11.5269C15.2998 10.678 15.1982 9.59391 15.4845 9.16401C15.7771 8.72557 16.2939 8.39654 16.8681 8.28324C17.3027 8.19711 17.9623 8.19788 18.7391 8.62857C19.1061 8.36162 19.775 7.96353 20.4634 8.00233C20.506 8.00466 20.5479 8.0132 20.5891 8.02716C20.6434 8.04579 21.0423 8.19245 21.4691 8.59985C22.1496 8.11175 23.1902 7.69115 24.0205 8.32437C24.6072 8.77135 24.9828 9.59857 25.0006 10.4832C25.02 11.4439 24.6507 12.9152 22.7789 14.4633C22.6951 14.5324 22.5904 14.5704 22.4817 14.5704ZM18.268 13.6392H22.3118C23.787 12.3704 24.0842 11.2375 24.0694 10.5018C24.0547 9.7755 23.7295 9.27342 23.4556 9.06468C22.8364 8.59287 21.7469 9.57063 21.736 9.58072C21.6398 9.66996 21.5117 9.71419 21.3806 9.70333C21.2502 9.69246 21.1299 9.62728 21.05 9.5233C20.7738 9.16401 20.4649 8.99096 20.3384 8.93043C19.8573 8.94673 19.2761 9.37042 19.0844 9.54114C18.9253 9.68238 18.6902 9.69867 18.514 9.57994C18.0081 9.23928 17.5014 9.10581 17.0489 9.19505C16.6664 9.27032 16.3956 9.48838 16.2722 9.66065C16.124 10.1115 16.3824 12.7375 18.2673 13.6377L18.268 13.6392Z" fill="#333333"/>
<path d="M32.7583 30.4063C28.765 30.4063 25.5167 27.1579 25.5167 23.1646C25.5167 19.1713 28.765 15.923 32.7583 15.923C36.7516 15.923 40 19.1713 40 23.1646C40 25.4158 38.9795 27.5001 37.2009 28.8838C36.9976 29.0413 36.7058 29.0048 36.5475 28.8023C36.3892 28.599 36.4265 28.3064 36.629 28.1489C38.1795 26.943 39.068 25.1264 39.068 23.1646C39.068 19.685 36.2371 16.8542 32.7575 16.8542C29.2779 16.8542 26.4471 19.685 26.4471 23.1646C26.4471 26.6442 29.2779 29.4751 32.7575 29.4751C33.4629 29.4751 34.1559 29.3595 34.8163 29.1313C35.0599 29.0475 35.3246 29.1763 35.4084 29.42C35.4922 29.6629 35.3634 29.9283 35.1205 30.0121C34.3615 30.2736 33.5669 30.4063 32.7575 30.4063H32.7583Z" fill="#333333"/>
<path d="M17.8242 39.9713C13.1876 39.9713 10.7626 39.3792 9.41697 37.9832C7.70045 36.2023 7.89988 33.2022 8.20175 28.6611C8.21882 28.4011 8.23667 28.1357 8.25451 27.8649C8.34531 26.4766 8.66347 25.1357 9.19969 23.8801C9.30057 23.6434 9.57449 23.534 9.81118 23.6349C10.0479 23.7358 10.1573 24.0097 10.0564 24.2464C9.5613 25.405 9.26797 26.6427 9.18417 27.9262C9.16632 28.1978 9.14847 28.4632 9.1314 28.7231C8.83574 33.1689 8.65726 35.8523 10.0874 37.336C11.3919 38.6893 14.2057 39.1743 19.7991 39.0083C25.6711 38.8337 28.533 38.5605 29.9686 37.402C31.3165 36.314 31.5074 34.2871 31.5284 30.3015C28.0728 29.7126 25.5167 26.7156 25.5167 23.1654C25.5167 21.7678 25.9101 20.4269 26.659 19.2621C25.4391 18.3061 24.0275 17.4634 22.4577 16.7533H17.8653C16.3467 17.4952 14.2049 18.7632 12.4364 20.6558C12.261 20.8436 11.9661 20.8537 11.7783 20.6783C11.5905 20.503 11.5805 20.2081 11.7558 20.0203C13.6601 17.9825 15.961 16.6377 17.5565 15.8687C17.6193 15.8384 17.6884 15.8221 17.759 15.8221H22.5586C22.6237 15.8221 22.6889 15.8361 22.7487 15.8625C24.5769 16.6796 26.2034 17.6713 27.5847 18.8097C27.7749 18.9665 27.8098 19.2451 27.6647 19.4437C26.87 20.5301 26.4494 21.8167 26.4494 23.1646C26.4494 26.3812 28.8566 29.0762 32.0491 29.434C32.285 29.4603 32.4635 29.6606 32.4627 29.898C32.4518 34.0535 32.3533 36.6741 30.5545 38.126C28.8993 39.4615 26.0366 39.754 19.8278 39.9387C19.1185 39.9597 18.4512 39.9705 17.8257 39.9705L17.8242 39.9713Z" fill="#333333"/>
<path d="M29.9748 24.106H28.7053C28.7604 23.9453 29.0521 23.7715 29.5309 23.5007C29.9795 23.2469 30.2379 23.0265 30.2379 22.4639C30.2379 22.0744 29.8359 21.6297 29.1585 21.6297C28.5361 21.6297 28.0286 22.0232 28.0286 22.54C28.0286 22.7518 28.1636 22.8232 28.3374 22.8232C28.5113 22.8232 28.5617 22.7425 28.6044 22.5865C28.6975 22.2482 28.8799 22.138 29.1507 22.138C29.3835 22.138 29.5953 22.2901 29.5953 22.5656C29.5953 22.9086 29.392 22.9846 28.8038 23.3571C28.2746 23.6916 28.0084 24.026 28.0084 24.3263C28.0084 24.4746 28.1101 24.6398 28.3553 24.6398H29.9422C30.137 24.6398 30.2557 24.5638 30.2557 24.3729C30.2557 24.182 30.137 24.106 29.9764 24.106H29.9748Z" fill="#FF8823"/>
<path d="M31.0325 23.9748C30.8424 23.9748 30.6856 24.1315 30.6856 24.3217C30.6856 24.5118 30.8424 24.6685 31.0325 24.6685C31.2226 24.6685 31.3794 24.5118 31.3794 24.3217C31.3794 24.1315 31.2226 23.9748 31.0325 23.9748Z" fill="#FF8823"/>
<path d="M32.9842 22.6665C32.7684 22.6665 32.5481 22.7301 32.396 22.8612L32.3874 22.8527L32.5015 22.2179H33.5809C33.733 22.2179 33.8517 22.1419 33.8517 21.951C33.8517 21.7601 33.733 21.6841 33.5724 21.6841H32.3028C32.1632 21.6841 32.0576 21.8067 32.032 21.951L31.8799 22.8527C31.8675 22.9249 31.859 22.9924 31.859 23.077C31.859 23.2756 31.9986 23.3563 32.1507 23.3563C32.3626 23.3563 32.4642 23.1491 32.7987 23.1491C33.1332 23.1491 33.3698 23.3098 33.3698 23.6698C33.3698 23.9453 33.1495 24.2115 32.8282 24.2115C32.3797 24.2115 32.3797 23.801 32.1213 23.801C31.9389 23.801 31.8163 23.9236 31.8163 24.0928C31.8163 24.3131 32.0871 24.6942 32.8197 24.6942C33.4971 24.6942 33.9875 24.3217 33.9875 23.6404C33.9875 22.959 33.5134 22.6665 32.9842 22.6665Z" fill="#FF8823"/>
<path d="M37.3779 22.9784C36.8634 22.9784 36.5677 23.309 36.5677 23.8856C36.5677 24.4621 36.8626 24.7927 37.3779 24.7927C37.8932 24.7927 38.188 24.4621 38.188 23.8856C38.188 23.309 37.8932 22.9784 37.3779 22.9784ZM37.3779 23.5061C37.5129 23.5061 37.5331 23.7436 37.5331 23.8856C37.5331 24.137 37.4811 24.265 37.3779 24.265C37.2747 24.265 37.2227 24.1378 37.2227 23.8856C37.2227 23.7436 37.2429 23.5061 37.3779 23.5061Z" fill="#FF8823"/>
<path d="M36.0463 22.4383C36.0463 21.8617 35.7514 21.5312 35.2361 21.5312C34.7208 21.5312 34.426 21.8617 34.426 22.4383C34.426 23.0149 34.7208 23.3455 35.2361 23.3455C35.7514 23.3455 36.0463 23.0149 36.0463 22.4383ZM35.2361 22.0588C35.3711 22.0588 35.3913 22.2963 35.3913 22.4383C35.3913 22.6897 35.3393 22.8178 35.2361 22.8178C35.1329 22.8178 35.0809 22.6905 35.0809 22.4383C35.0809 22.2963 35.1011 22.0588 35.2361 22.0588Z" fill="#FF8823"/>
<path d="M37.3585 21.6631C37.3585 21.5312 37.2374 21.4202 37.0946 21.4202C37.0217 21.4202 36.9185 21.4497 36.8424 21.5909L35.3191 24.4691C35.2788 24.5444 35.2609 24.6026 35.2609 24.66C35.2609 24.7919 35.382 24.9029 35.5248 24.9029C35.5977 24.9029 35.7009 24.8734 35.777 24.7314L37.3003 21.854C37.3406 21.7787 37.3585 21.7205 37.3585 21.6631Z" fill="#FF8823"/>
<path d="M15.462 30.8145H14.0419C13.8084 30.8145 13.6198 30.695 13.6198 30.4723C13.6198 30.2495 13.8084 30.13 14.0419 30.13H16.1868C16.3955 30.13 16.5639 30.2193 16.5639 30.5025C16.5639 30.6018 16.5244 30.7113 16.4499 30.7958L14.5781 33.0199H16.1666C16.4002 33.0199 16.5888 33.1394 16.5888 33.3621C16.5888 33.5848 16.4002 33.7043 16.1666 33.7043H13.9573C13.6594 33.7043 13.4855 33.605 13.4855 33.3023C13.4855 33.1735 13.5453 33.0788 13.6198 32.9896L15.462 30.8145Z" fill="#FF8823"/>
<path d="M19.4344 33.0036C19.4344 33.3062 19.5088 33.3761 19.5088 33.4901C19.5088 33.6539 19.3552 33.7679 19.1814 33.7679C18.8686 33.7679 18.7647 33.5693 18.7546 33.3458C18.4713 33.6585 18.1439 33.7679 17.7613 33.7679C17.3492 33.7679 16.9418 33.4847 16.9418 33.0284C16.9418 32.4278 17.3989 32.2586 17.9545 32.1942L18.3961 32.1445C18.5699 32.1244 18.7088 32.0848 18.7088 31.876C18.7088 31.6673 18.4954 31.5781 18.2517 31.5781C17.7155 31.5781 17.7008 31.9754 17.4129 31.9754C17.229 31.9754 17.1048 31.8466 17.1048 31.6976C17.1048 31.4097 17.5122 31.0418 18.2564 31.0418C18.9517 31.0418 19.4328 31.2653 19.4328 31.7868V33.0036H19.4344ZM18.7096 32.4821C18.6304 32.5566 18.4814 32.5814 18.3968 32.5962L18.1338 32.6357C17.8311 32.6808 17.6674 32.7747 17.6674 32.9935C17.6674 33.1572 17.821 33.2915 18.0694 33.2915C18.4667 33.2915 18.7096 33.0331 18.7096 32.7653V32.4821Z" fill="#FF8823"/>
<path d="M20.0598 30.4272C20.0598 30.189 20.2042 30.0648 20.4222 30.0648C20.6403 30.0648 20.7846 30.189 20.7846 30.4272V32.0755L21.5893 31.1815C21.6638 31.1024 21.7585 31.0426 21.8671 31.0426C22.0309 31.0426 22.2093 31.1869 22.2093 31.3701C22.2093 31.4989 22.1643 31.5393 22.0999 31.6083L21.5637 32.1694L22.3188 33.1821C22.3436 33.217 22.3933 33.2961 22.3933 33.4156C22.3933 33.5995 22.2443 33.7679 22.051 33.7679C21.8726 33.7679 21.7779 33.6787 21.7236 33.5988L21.0384 32.6303L20.7854 32.8538V33.4048C20.7854 33.643 20.641 33.7672 20.423 33.7672C20.2049 33.7672 20.0606 33.643 20.0606 33.4048V30.4257L20.0598 30.4272Z" fill="#FF8823"/>
<path d="M25.1341 33.0036C25.1341 33.3062 25.2086 33.3761 25.2086 33.4901C25.2086 33.6539 25.055 33.7679 24.8811 33.7679C24.5684 33.7679 24.4644 33.5693 24.4543 33.3458C24.1711 33.6585 23.8436 33.7679 23.4611 33.7679C23.049 33.7679 22.6416 33.4847 22.6416 33.0284C22.6416 32.4278 23.0987 32.2586 23.6543 32.1942L24.0958 32.1445C24.2697 32.1244 24.4086 32.0848 24.4086 31.876C24.4086 31.6673 24.1952 31.5781 23.9515 31.5781C23.4153 31.5781 23.4005 31.9754 23.1126 31.9754C22.9287 31.9754 22.8046 31.8466 22.8046 31.6976C22.8046 31.4097 23.212 31.0418 23.9561 31.0418C24.6514 31.0418 25.1326 31.2653 25.1326 31.7868V33.0036H25.1341ZM24.4093 32.4821C24.3302 32.5566 24.1812 32.5814 24.0966 32.5962L23.8335 32.6357C23.5309 32.6808 23.3672 32.7747 23.3672 32.9935C23.3672 33.1572 23.5208 33.2915 23.7691 33.2915C24.1664 33.2915 24.4093 33.0331 24.4093 32.7653V32.4821Z" fill="#FF8823"/>
<path d="M25.9489 31.5843H25.8248C25.6214 31.5843 25.5369 31.5051 25.5369 31.346C25.5369 31.187 25.6214 31.1078 25.8248 31.1078H25.9489V30.6663C25.9489 30.428 26.0933 30.3039 26.3113 30.3039C26.5294 30.3039 26.6737 30.428 26.6737 30.6663V31.1078H26.8925C27.1059 31.1078 27.22 31.1722 27.22 31.346C27.22 31.5199 27.1059 31.5843 26.8925 31.5843H26.6737V33.0338C26.6737 33.1433 26.7335 33.203 26.8623 33.203H26.9663C27.1253 33.203 27.2192 33.2922 27.2192 33.4467C27.2192 33.6554 27.0408 33.7695 26.6931 33.7695C26.167 33.7695 25.9481 33.5507 25.9481 33.1239V31.5843H25.9489Z" fill="#FF8823"/>
</g>
<defs>
<clipPath id="clip0_869_5013">
<rect width="32" height="31.9713" fill="white" transform="translate(8 8)"/>
</clipPath>
</defs>
</svg>
