<svg xmlns="http://www.w3.org/2000/svg" xmlns:xlink="http://www.w3.org/1999/xlink" width="2271.736" height="57.671" viewBox="0 0 2271.736 57.671"><defs><style>.a{opacity:0.5;}.b{fill:url(#a);}</style><linearGradient id="a" x1="0.501" y1="1.009" x2="0.499" y2="-0.188" gradientUnits="objectBoundingBox"><stop offset="0" stop-color="#20D2A6"/><stop offset="1" stop-color="#363"/></linearGradient></defs><g transform="translate(1708.978 -2316)"><g class="a" transform="translate(-1583.432 2316)"><path class="b" d="M635.544,2320.239c-.329.066-.662.137-1,.21-11.429,2.491-26.54,8.945-41.214,14.739-13.933,5.5-27.47,10.406-37.083,10.754-.463.01-.932.016-1.4.019-44.756-.148-79.16-29.836-133.428-29.836-.211,0-.418,0-.628,0-.125,0-.247,0-.371,0A220.107,220.107,0,0,0,377,2320.239c-2.391.48-4.958,1.15-7.655,1.959-16.411,4.146-26.228,9.184-29.264,10.884-16.269,6.506-32.6,12.88-43.445,12.88-44.92,0-79.359-29.838-133.762-29.838-.5,0-1,0-1.5.008v-.127a219.011,219.011,0,0,0-41.669,4.106q-.494.1-1,.211c-.858.187-1.74.4-2.638.627-23.56,5.2-35.551,12.726-35.551,12.726v.185q-1.514.6-3.025,1.2c-13.933,5.5-27.469,10.406-37.083,10.754-.463.009-.932.015-1.4.017C-5.746,2345.688-40.149,2316-94.418,2316c-.211,0-.417,0-.628,0-.124,0-.247,0-.371,0a220.118,220.118,0,0,0-43.415,4.113c-2.392.481-4.958,1.15-7.657,1.96-16.41,4.146-26.228,9.182-29.264,10.884-16.269,6.5-32.605,12.88-43.445,12.88-44.92,0-79.359-29.838-133.762-29.838-6.317,0-12.272.238-17.873.658a209.51,209.51,0,0,0-27.29,3.582c-.329.066-.662.137-1,.21-2.541.553-5.266,1.3-8.125,2.2a125.742,125.742,0,0,0-25.822,9.645c-2.422.969-4.851,1.941-7.267,2.9-13.934,5.5-27.47,10.406-37.083,10.754-.463.01-.933.016-1.4.019-44.756-.148-79.161-29.836-133.428-29.836-.21,0-.418,0-.628,0-.124,0-.246,0-.371,0a220.094,220.094,0,0,0-43.415,4.114c-2.392.48-4.958,1.15-7.655,1.959-16.411,4.146-26.228,9.184-29.265,10.884-16.268,6.506-32.6,12.88-43.444,12.88-44.92,0-79.359-29.838-133.763-29.838-.5,0-1,0-1.5.008v-.127a219,219,0,0,0-41.668,4.106c-.329.067-.663.137-1,.211-.858.187-1.74.4-2.639.627-23.559,5.2-35.55,12.726-35.55,12.726v.185q-1.514.6-3.024,1.2c-13.934,5.5-27.47,10.406-37.083,10.754q-.694.013-1.4.017c-44.756-.146-79.16-29.834-133.428-29.834-.211,0-.417,0-.627,0-.124,0-.247,0-.371,0a220.135,220.135,0,0,0-43.415,4.113c-2.392.481-4.958,1.15-7.656,1.96-16.411,4.146-26.227,9.182-29.264,10.884-16.269,6.5-32.605,12.88-43.445,12.88-44.919,0-79.358-29.838-133.762-29.838s-82.354,17.552-82.354,17.552v39.994h515.834v.125h596.691v-.125H80.522v.125H677.213v-57.539A218.924,218.924,0,0,0,635.544,2320.239Z" transform="translate(1468.978 -2316)"/></g><g transform="translate(-1708.978 2316)"><path class="b" d="M395.544,2320.239c-.329.066-.663.137-1,.21-11.429,2.491-26.54,8.945-41.214,14.739-13.934,5.5-27.47,10.406-37.083,10.754-.463.01-.931.016-1.4.019-44.756-.148-79.16-29.836-133.427-29.836-.211,0-.418,0-.628,0-.124,0-.246,0-.37,0A220.1,220.1,0,0,0,137,2320.239c-2.391.48-4.958,1.15-7.656,1.959-16.411,4.146-26.228,9.184-29.264,10.884-16.268,6.506-32.6,12.88-43.445,12.88-44.92,0-79.359-29.838-133.762-29.838-.5,0-1,0-1.5.008v-.127a219,219,0,0,0-41.668,4.106q-.494.1-1,.211c-.858.187-1.74.4-2.639.627-23.56,5.2-35.551,12.726-35.551,12.726v.185q-1.514.6-3.024,1.2c-13.934,5.5-27.47,10.406-37.083,10.754-.463.009-.932.015-1.4.017-44.757-.146-79.16-29.834-133.429-29.834-.21,0-.417,0-.628,0-.123,0-.246,0-.37,0a220.135,220.135,0,0,0-43.415,4.113c-2.392.481-4.958,1.15-7.657,1.96-16.41,4.146-26.227,9.182-29.264,10.884-16.268,6.5-32.6,12.88-43.444,12.88-44.92,0-79.36-29.838-133.763-29.838-6.317,0-12.272.238-17.873.658a209.5,209.5,0,0,0-27.29,3.582c-.33.066-.662.137-1,.21-2.541.553-5.265,1.3-8.125,2.2a125.787,125.787,0,0,0-25.823,9.645c-2.422.969-4.85,1.941-7.266,2.9-13.934,5.5-27.47,10.406-37.083,10.754q-.694.015-1.4.019c-44.756-.148-79.16-29.836-133.427-29.836-.211,0-.418,0-.628,0-.124,0-.246,0-.37,0a220.11,220.11,0,0,0-43.417,4.114c-2.391.48-4.957,1.15-7.654,1.959-16.411,4.146-26.229,9.184-29.266,10.884-16.268,6.506-32.6,12.88-43.444,12.88-44.92,0-79.358-29.838-133.763-29.838-.5,0-1,0-1.5.008v-.127a219,219,0,0,0-41.669,4.106q-.494.1-1,.211c-.859.187-1.741.4-2.639.627-23.559,5.2-35.55,12.726-35.55,12.726v.185q-1.516.6-3.025,1.2c-13.934,5.5-27.47,10.406-37.083,10.754-.462.009-.931.015-1.4.017-44.756-.146-79.16-29.834-133.428-29.834-.211,0-.417,0-.628,0-.124,0-.246,0-.371,0a220.135,220.135,0,0,0-43.415,4.113c-2.392.481-4.958,1.15-7.655,1.96-16.411,4.146-26.228,9.182-29.265,10.884-16.268,6.5-32.6,12.88-43.444,12.88-44.92,0-79.359-29.838-133.762-29.838s-82.354,17.552-82.354,17.552v39.994h515.835v.125h596.69v-.125h436.974v.125H437.213v-57.539A218.924,218.924,0,0,0,395.544,2320.239Z" transform="translate(1708.978 -2316)"/></g></g></svg>