<svg xmlns="http://www.w3.org/2000/svg" viewBox="0 0 31.89 32"><defs><style>.cls-1{fill:#fff;}.cls-2{fill:#3c7c47;}</style></defs><g id="Layer_2" data-name="Layer 2"><g id="Layer_1-2" data-name="Layer 1"><rect class="cls-1" width="31.89" height="31.89" rx="5"/><path class="cls-1" d="M15.94,0h0A12.27,12.27,0,0,1,28.21,12.27v7.46A12.27,12.27,0,0,1,15.94,32h0A12.27,12.27,0,0,1,3.67,19.73V12.27A12.27,12.27,0,0,1,15.94,0Z"/><path class="cls-2" d="M23,16.7v-.09c0-.19,0-.21-.21-.22h0s-.05,0-.06,0v-.3c0-.06,0-.15-.11-.16l-.05,0s0,0,0,0l0,0a.14.14,0,0,0,0-.11.21.21,0,0,0-.09-.15h0l0,0,0,0h0a1.11,1.11,0,0,0-.29-.14h0l.05-1.13,1-.81h0l-.36-1.27.73-1.1L22.87,10l.36-1.27-1-.81-.06-1.31L20.9,6.11l-.46-1.22v0l-1.31,0-.81-1h0l-1.26.35L16,3.42l-1.1.72-1.26-.35h0l-.82,1-1.31,0-.39,1h0c-.06-.53-.13-1.06-.19-1.58l-.09-.79h0s0-.08,0-.11a2.26,2.26,0,0,1,0-.45.24.24,0,0,0-.05-.14.11.11,0,0,1,0-.11.11.11,0,0,0,0-.08.18.18,0,0,0-.06-.09.07.07,0,0,0,0,0h0l0,0c-.05,0-.11.11-.06.2a0,0,0,0,0,0,0l-.07.67a4.87,4.87,0,0,0-.06.55c0,.1,0,.2,0,.31h0a6.53,6.53,0,0,0-.09.9h0a.08.08,0,0,0,0,0c0,.17,0,.34,0,.5s-.05.45-.07.67l-.38.14,0,1.32-1,.81h0L9,10l-.73,1.1L9,12.16l-.36,1.27.76.6v2.52A1.85,1.85,0,0,0,8.29,18.3,1.78,1.78,0,0,0,10,20.16h11.9a1.78,1.78,0,0,0,1.68-1.86A1.9,1.9,0,0,0,23,17,2.26,2.26,0,0,1,23,16.7Zm-.13-3.38-.7.55,0-.76.42-.64Zm.36-2.26-.49.74-.21-.74.21-.74ZM22.9,8.8l-.24.86L22.24,9l0-.77Zm-1-2,0,.88-.6-.47L21,6.46ZM20.24,5.15l.31.83-.72-.27-.47-.6Zm-2-1,.55.7-.77,0-.64-.43Zm-.31.94h0l1.08,0,.68.86,1,.37.37,1h0l.86.68L22,9.1h0l.6.9-.29,1.05h0l.3,1L22,13h0l0,1.08,0,0s-.09-.06-.21-.07h-.1v0a.75.75,0,0,0,0-.2.93.93,0,0,1,0-.24.35.35,0,0,0-.1-.36.06.06,0,0,1,0-.06.34.34,0,0,0,0-.26.25.25,0,0,1,0-.07v-.42a.06.06,0,0,1,0,0,.25.25,0,0,0,0-.17.13.13,0,0,0-.09-.07c-.12,0-.13-.1-.14-.2v-.13a.53.53,0,0,0,0-.28h0v0a.5.5,0,0,1,0-.12v0a.21.21,0,0,0-.06-.18,1.46,1.46,0,0,0-.2-.73h0a.22.22,0,0,0,0-.14c-.08-.14-.15-.29-.22-.43l-.06-.11h0a1,1,0,0,0-.34-.45c-.07-.06-.13-.13-.19-.19a2.44,2.44,0,0,0-.46-.39,1.53,1.53,0,0,0-.4-.31.69.69,0,0,0-.13-.11l0,0A.15.15,0,0,0,19,8.19l0,0s-.06-.09-.13-.08l0,0a1,1,0,0,0-.37-.32h0l0,0-.07,0a.45.45,0,0,0-.14-.1A.5.5,0,0,0,18,7.43l0,0h0l-.28-.28a.32.32,0,0,0-.18-.1h0L17,6.54a.64.64,0,0,0-.26-.45l0,0s0,0,0-.08a.32.32,0,0,0,0-.34v0h0l-.05-.12v.1c-.08-.06-.09-.13,0-.24s.05-.22,0-.31V5a.23.23,0,0,1,0-.24.28.28,0,0,0,0-.2l.35-.1Zm-1.21-.8-.15,0h0a.27.27,0,0,1,0-.12.06.06,0,0,0,0,0ZM16,3.76l.48.32h0a0,0,0,0,0,0,0,.06.06,0,0,0,0,.08.32.32,0,0,1,0,.14L16,4.46l-.74-.21Zm-2.26.35.86.24-.64.43-.77,0Zm-2,1,.89,0-.48.6L11.34,6Zm-.44,1.18,1-.38.67-.85,1.08,0h0l.9-.6,1,.3.21-.06a.11.11,0,0,0,0,.08.28.28,0,0,1,0,.2s0,0,0,.06h0v0h0a.13.13,0,0,1,0,.06.22.22,0,0,0,0,.16.25.25,0,0,1,0,.07c.05.12.08.23,0,.32h0l0,0h0a.13.13,0,0,0,0,.12.2.2,0,0,1,0,.07.1.1,0,0,0,.09.16.1.1,0,0,1,0,.07h0l0,0c-.14,0-.2.08-.24.16h0a2.53,2.53,0,0,1-.69.73l-.07.05a.46.46,0,0,0-.17.17l-.18.14a1.18,1.18,0,0,0-.25.19,2.54,2.54,0,0,0-.34.23A.33.33,0,0,0,14,8l-.25.16h0a2.12,2.12,0,0,0-.55.39.22.22,0,0,0-.11.1,1.43,1.43,0,0,1-.22.26l-.15.16a.2.2,0,0,0-.09.09l-.28.37h0a1.31,1.31,0,0,0-.24.37s0,0,0,0a.69.69,0,0,0-.16.22l-.09.14h0l0,0h0l0,0h0v0l0,0h0l-.06.1h0a.31.31,0,0,0-.08.15l0,0a.12.12,0,0,0-.05.05v-.07a.49.49,0,0,1,0-.12.33.33,0,0,0,0-.24h0a.3.3,0,0,1,0-.21.77.77,0,0,0,0-.15l0-.07.18-.19v0l0-.06h0l0,0h0l.06-.08h0v0h0a.32.32,0,0,0,0-.27c0-.06-.11-.09-.23-.12l-.06,0-.15,0c-.1,0-.14,0-.14-.16V7.37l0,0a.1.1,0,0,0,0-.09.1.1,0,0,0-.05-.06.4.4,0,0,1-.09-.2c0-.13,0-.27,0-.41ZM10,6.77l.07,0V7a.23.23,0,0,1-.07.19ZM10,8.57v.24a.3.3,0,0,1,0,.16ZM9,8.8l.7-.55,0,.77,0,.05-.14,0c-.05,0-.14,0-.14.13v.09a.54.54,0,0,0,0,.18l-.11.17Zm-.36,2.26.5-.74.2.74-.2.74Zm.67,2.49h0L9,13.32,9.08,13a.21.21,0,0,0,.1.06h.05l0,.13a.88.88,0,0,0,0,.17.55.55,0,0,1,0,.18Zm.08.08h0v0Zm0-1.52.29-1h0L9.33,10l.23-.35.06.07a.38.38,0,0,1,.13.24,3.57,3.57,0,0,0,0,.46c0,.09,0,.18,0,.27v1.51l-.06,0-.08,0H9.44Zm14,6.26a1.55,1.55,0,0,1-1.54,1.54H10.05a1.54,1.54,0,0,1-1.54-1.54v-.14a1.54,1.54,0,0,1,1.54-1.54H21.81a1.53,1.53,0,0,1,1.53,1.54Z"/><path class="cls-2" d="M13.29,18.11a.41.41,0,0,0-.17-.05.34.34,0,0,0-.17.05.37.37,0,0,0-.13.12.36.36,0,0,0,0,.2.45.45,0,0,0,0,.2.44.44,0,0,0,.13.14.33.33,0,0,0,.17,0,.38.38,0,0,0,.17,0,.37.37,0,0,0,.12-.13.49.49,0,0,0,0-.41A.28.28,0,0,0,13.29,18.11Z"/><path class="cls-2" d="M18.19,18.11a.34.34,0,0,0-.17-.05.34.34,0,0,0-.29.17.49.49,0,0,0-.05.2.46.46,0,0,0,.05.2.35.35,0,0,0,.13.14.29.29,0,0,0,.16,0,.33.33,0,0,0,.17,0,.33.33,0,0,0,.13-.13.49.49,0,0,0,0-.41A.3.3,0,0,0,18.19,18.11Z"/><path class="cls-2" d="M16.77,18.12a.32.32,0,0,0-.21-.08.31.31,0,0,0-.3.28h.61A.26.26,0,0,0,16.77,18.12Z"/><path class="cls-2" d="M21,18.11a.34.34,0,0,0-.17-.05.33.33,0,0,0-.29.17.49.49,0,0,0-.05.2.46.46,0,0,0,.05.2.41.41,0,0,0,.12.14.38.38,0,0,0,.34,0,.37.37,0,0,0,.12-.13.49.49,0,0,0,0-.41A.34.34,0,0,0,21,18.11Z"/><path class="cls-2" d="M21.81,16.77H10.05a1.46,1.46,0,0,0-1.46,1.46v.14a1.46,1.46,0,0,0,1.46,1.46H21.81a1.45,1.45,0,0,0,1.45-1.46v-.14A1.45,1.45,0,0,0,21.81,16.77Zm-9.59,2.31H11.9v-.71a.32.32,0,0,0-.08-.23.3.3,0,0,0-.21-.08.32.32,0,0,0-.21.08.32.32,0,0,0-.07.23v.71H11v-.71a.32.32,0,0,0-.07-.23.34.34,0,0,0-.21-.08.26.26,0,0,0-.21.08.29.29,0,0,0-.08.23v.71H10.1V17.8h.33V18a.33.33,0,0,1,.16-.12.42.42,0,0,1,.22,0,.58.58,0,0,1,.26.06.47.47,0,0,1,.19.18.42.42,0,0,1,.18-.17.5.5,0,0,1,.78.47Zm1.56,0h-.32v-.19a.43.43,0,0,1-.18.15.51.51,0,0,1-.25.06.64.64,0,0,1-.3-.08.61.61,0,0,1-.21-.24.81.81,0,0,1-.08-.34.85.85,0,0,1,.08-.35.52.52,0,0,1,.21-.23.58.58,0,0,1,.55,0,.49.49,0,0,1,.18.14V17.8h.32ZM15,18.91a.49.49,0,0,1-.18.14.86.86,0,0,1-.27.05.67.67,0,0,1-.28-.06.43.43,0,0,1-.2-.15.35.35,0,0,1-.08-.22h.33a.17.17,0,0,0,.07.13.22.22,0,0,0,.16,0,.17.17,0,0,0,.14,0,.09.09,0,0,0,0-.1.11.11,0,0,0-.06-.1,1.17,1.17,0,0,0-.2-.06l-.24-.08a.33.33,0,0,1-.15-.11.31.31,0,0,1-.07-.21.35.35,0,0,1,.06-.19.49.49,0,0,1,.18-.14.81.81,0,0,1,.27-.05.52.52,0,0,1,.36.12.37.37,0,0,1,.15.3h-.31a.16.16,0,0,0-.06-.12.3.3,0,0,0-.29,0,.12.12,0,0,0-.05.09.1.1,0,0,0,.07.1.68.68,0,0,0,.2.07l.23.07a.44.44,0,0,1,.15.12.29.29,0,0,1,.07.2.36.36,0,0,1-.06.2Zm.65.38a.41.41,0,0,1-.11.31.45.45,0,0,1-.3.09h-.14v-.28h.09a.12.12,0,0,0,.1,0,.17.17,0,0,0,0-.1v-1.5h.32Zm0-1.7a.2.2,0,0,1-.14.06.2.2,0,0,1-.15-.06.2.2,0,0,1,0-.27h0a.2.2,0,0,1,.15-.06.2.2,0,0,1,.14.06.2.2,0,0,1,0,.27Zm1.52.95h-.94a.37.37,0,0,0,.1.22.28.28,0,0,0,.21.07.25.25,0,0,0,.26-.15h.35A.63.63,0,0,1,17,19a.67.67,0,0,1-.39.12.76.76,0,0,1-.33-.08.59.59,0,0,1-.23-.24.66.66,0,0,1-.08-.34.67.67,0,0,1,.08-.35.59.59,0,0,1,.23-.24.72.72,0,0,1,.66,0,.57.57,0,0,1,.23.23.73.73,0,0,1,.08.33s0,.08,0,.13Zm1.5.54h-.33v-.19a.44.44,0,0,1-.17.16.53.53,0,0,1-.25.05.52.52,0,0,1-.3-.08.58.58,0,0,1-.21-.23.81.81,0,0,1,0-.7.56.56,0,0,1,.51-.31.69.69,0,0,1,.24,0,.65.65,0,0,1,.18.15v-.61h.33Zm.6,0a.2.2,0,0,1-.14.06A.18.18,0,0,1,19,19a.19.19,0,0,1,0-.27h0a.15.15,0,0,1,.14-.05.19.19,0,0,1,.14.05.21.21,0,0,1,0,.28Zm.64,0h-.32V17.8h.32Zm0-1.49a.23.23,0,0,1-.29,0,.19.19,0,0,1,0-.27h0a.23.23,0,0,1,.29,0,.2.2,0,0,1,0,.27Zm1.59,1.49h-.33v-.19a.52.52,0,0,1-.17.16.58.58,0,0,1-.26.05.54.54,0,0,1-.3-.08.66.66,0,0,1-.21-.23.81.81,0,0,1,0-.7.58.58,0,0,1,.51-.31.6.6,0,0,1,.24,0,.65.65,0,0,1,.18.15v-.61h.33Z"/><path class="cls-2" d="M8.72,28.87c.58-.14,1.14-.26,1.71-.38.93-.18,1.87-.34,2.81-.48l2-.26,2-.2c.65-.06,1.3-.1,1.95-.13,1.08-.05,2.15-.07,3.23,0,.76,0,1.52.06,2.28.15a.08.08,0,0,1-.07,0c-1,0-1.95.07-2.93.13s-1.7.14-2.55.23-1.94.22-2.9.36a57.14,57.14,0,0,0-5.8,1.14,2.21,2.21,0,0,1-.37.08.82.82,0,0,1-.48-.1l-.87-.48Z"/><path class="cls-2" d="M16,22.13c0,.19,0,.39-.07.58-.09.61-.17,1.23-.25,1.84a6.27,6.27,0,0,1-.28,1.3,1.68,1.68,0,0,1-.92,1,3.12,3.12,0,0,1-.67.23.11.11,0,0,1-.15-.06v0l-.24-.75a.09.09,0,0,1,.05-.12h0l.27-.11a1,1,0,0,0,.67-.89c.15-1,.27-2,.41-2.92,0-.12.07-.17.18-.17h.86C15.9,22,16,22.06,16,22.13Z"/><path class="cls-2" d="M21.24,21.4h.44c.12,0,.16,0,.13.16-.12.62-.25,1.24-.37,1.86-.06.28-.12.56-.17.85,0,.13-.06.15-.19.15h-.59c-.12,0-.16-.05-.14-.16l.24-2.55s0-.08,0-.12.06-.19.2-.19Z"/><path class="cls-2" d="M21.36,25.33a.77.77,0,0,1-.8.73.59.59,0,0,1-.23,0,.52.52,0,0,1-.32-.6.77.77,0,0,1,.91-.62h0A.54.54,0,0,1,21.36,25.33Z"/><path class="cls-2" d="M15.67,20.43a.53.53,0,0,1,.54.51.28.28,0,0,1,0,.09.82.82,0,0,1-.67.7.52.52,0,0,1-.62-.4.53.53,0,0,1,0-.25A.81.81,0,0,1,15.67,20.43Z"/><path class="cls-2" d="M13.83,25.41l-.33-2c-.13-.76-.26-1.52-.38-2.28a.39.39,0,0,0-.4-.34c-.24,0-.48,0-.72,0a.55.55,0,0,0-.51.34L9.57,25.41c-.05.12,0,.18.12.17h.92a.2.2,0,0,0,.21-.14l.3-.71a.12.12,0,0,1,.12-.08h1.13c.07,0,.1,0,.11.1,0,.23,0,.45.07.67a.16.16,0,0,0,.16.18h1C13.8,25.6,13.85,25.54,13.83,25.41Zm-1.61-1.75h-.54c-.1,0-.1,0-.07-.1l.46-1.16a1.22,1.22,0,0,1,.07-.17s0-.06,0-.05,0,0,0,.06c0,.31.06.62.08.92,0,.13,0,.25,0,.37s0,.13-.11.13Z"/><path class="cls-2" d="M19.66,22.15A4.38,4.38,0,0,0,17.79,22a1.63,1.63,0,0,0-1.34,1,3.12,3.12,0,0,0-.24,1.65,1.09,1.09,0,0,0,.94,1,4.05,4.05,0,0,0,.7.07,3.79,3.79,0,0,0,1.37-.26.3.3,0,0,0,.21-.28c0-.3.08-.6.11-.91.09-.63.17-1.27.25-1.9C19.81,22.22,19.78,22.18,19.66,22.15Zm-1.15,1c-.06.45-.11.89-.17,1.33a.09.09,0,0,1-.08.09,2,2,0,0,1-.34.05.44.44,0,0,1-.47-.42h0v-.14a1.94,1.94,0,0,1,.11-.63.66.66,0,0,1,.8-.47h0c.16,0,.16,0,.14.2Z"/></g></g></svg>