<?xml version="1.0" encoding="UTF-8"?><svg id="goat" xmlns="http://www.w3.org/2000/svg" viewBox="0 0 64 64"><defs><style>.cls-1{fill:none;}.cls-1,.cls-2,.cls-3{stroke:#343435;stroke-linecap:round;stroke-linejoin:round;stroke-width:2px;}.cls-2{fill:#22e7bd;}.cls-3{fill:#5bb8fb;}</style></defs><path class="cls-2" d="M35.98,12.44c2.82-5.54,8.67-9.05,16.13-10.42,.9-.16,2.19,.92,1,2.47-3.59,4.26-6.34,8.89-7.21,14.32"/><path class="cls-2" d="M28.02,12.44C25.19,6.9,19.35,3.39,11.88,2.02c-.9-.16-2.19,.92-1,2.47,3.59,4.26,6.34,8.89,7.2,14.32"/><path class="cls-3" d="M32,11.99c-9.73,0-17.61,7.89-17.61,17.61,0,6.84,8.45,23.94,17.61,23.67,9.16,.27,17.61-16.83,17.61-23.67,0-9.73-7.89-17.61-17.61-17.61h0Z"/><path class="cls-1" d="M38.12,51.03c-.71,4.28-4.3,6.62-2.76,10.97-4.93-.17-8.54-4.78-9.47-10.97"/><path class="cls-1" d="M28.4,45.02c1.9-.48,3.6,.19,3.6,2.26"/><path class="cls-1" d="M35.6,45.02c-1.9-.48-3.6,.19-3.6,2.26v5.24"/><line class="cls-1" x1="38.78" y1="26.86" x2="38.81" y2="29.65"/><line class="cls-1" x1="25.19" y1="26.86" x2="25.22" y2="29.65"/><line class="cls-1" x1="18.92" y1="11.75" x2="16.49" y2="13.3"/><path class="cls-1" d="M35.6,45.02c-1.9-.48-3.6,.19-3.6,2.26"/><path class="cls-1" d="M28.4,45.02c1.9-.48,3.6,.19,3.6,2.26v5.24"/><line class="cls-1" x1="25.22" y1="26.86" x2="25.19" y2="29.65"/><line class="cls-1" x1="38.81" y1="26.86" x2="38.78" y2="29.65"/><line class="cls-1" x1="18.01" y1="5.82" x2="19.74" y2="4.56"/><line class="cls-1" x1="45.08" y1="11.75" x2="47.51" y2="13.3"/><line class="cls-1" x1="45.99" y1="5.82" x2="44.26" y2="4.56"/><path class="cls-1" d="M3.27,24.06c4.09-5,8.7-6.1,13.54-3.38-1.36,2.31-2.21,4.96-2.38,7.8-3.97,1.21-7.74-.25-11.16-4.42h0Z"/><path class="cls-1" d="M60.73,24.06c-4.09-5-8.7-6.1-13.54-3.38,1.36,2.31,2.21,4.96,2.38,7.8,3.97,1.21,7.74-.25,11.16-4.42h0Z"/></svg>