<?xml version="1.0" encoding="UTF-8"?><svg id="mosque" xmlns="http://www.w3.org/2000/svg" viewBox="0 0 64 64"><defs><style>.cls-1{fill:#5bb8fb;}.cls-1,.cls-2{stroke-width:1.72px;}.cls-1,.cls-2,.cls-3{stroke:#343435;stroke-linecap:round;stroke-linejoin:round;}.cls-2{fill:#22e7bd;}.cls-3{fill:none;stroke-width:2px;}</style></defs><path class="cls-2" d="M39.35,35.56c-.27-.33-.54-.67-.8-1-.1-.13-.22-.18-.38-.18-.3,0-.6,0-.9,0-.12,0-.18,0-.22-.04h-12.88s-.08,.04-.15,.04c-.3,0-.6,0-.9,0-.19,0-.33,.06-.45,.21-.06,.07-.11,.15-.17,.22v-13.37h.09c.35,0,.63-.28,.63-.63s-.28-.63-.63-.63h-.13c-.02-.11-.05-.21-.08-.32-.06-.19-.15-.35-.3-.48-.15-.13-.32-.23-.49-.32-.13-.07-.25-.13-.37-.21-.03-.02-.07-.04-.09-.08,.02,0,.03,0,.04-.01,.09-.02,.17-.07,.22-.15,.01-.02,.03-.04,.02-.06-.02-.02-.04,0-.06,0,0,0-.02,0-.03,0-.23,.06-.44-.13-.4-.36,0-.01,0-.02,0-.03,0-.03-.01-.04-.04-.02,0,0-.02,.01-.02,.02-.16,.16-.14,.43,.06,.55t0,.06c-.06,.05-.13,.09-.19,.13-.16,.1-.33,.18-.49,.27-.13,.08-.26,.17-.36,.29-.14,.17-.22,.38-.27,.59,0,.04-.02,.08-.02,.12h-.07c-.35,0-.63,.28-.63,.63s.28,.63,.63,.63h.09v18.78h19.83c.06-.06,.06-.13,.06-.21v-4.13c0-.12-.04-.22-.11-.31h0Z"/><circle class="cls-3" cx="29.17" cy="29.17" r="23.12"/><path class="cls-1" d="M37.01,34.13v-1.63c0-.23,.11-.36,.34-.41,.42-.08,.68-.38,.66-.78-.01-.37-.32-.68-.73-.71-.16,0-.23-.07-.24-.23,0-.07-.02-.13-.03-.2-.16-1.08-.3-2.16-.64-3.2-.26-.78-.64-1.48-1.26-2.04-.63-.55-1.34-.97-2.07-1.37-.53-.28-1.07-.56-1.57-.89-.14-.09-.29-.18-.4-.32,.06-.04,.13-.04,.19-.05,.4-.08,.71-.3,.93-.64,.05-.08,.15-.18,.07-.27-.07-.08-.17,.02-.26,.04-.04,0-.08,.02-.11,.04-.97,.27-1.88-.54-1.71-1.53,0-.05,.02-.09,.02-.14,0-.13-.05-.15-.16-.09-.04,.02-.07,.06-.11,.09-.69,.67-.57,1.81,.25,2.32,.17,.11,.17,.1,0,.24-.25,.21-.53,.39-.81,.55-.68,.41-1.41,.74-2.08,1.17-.56,.35-1.11,.73-1.54,1.24-.62,.72-.91,1.59-1.13,2.5-.2,.82-.29,1.66-.43,2.49-.04,.26-.04,.26-.31,.29-.51,.06-.81,.56-.61,1.04,.14,.33,.41,.44,.74,.46,.14,0,.2,.06,.2,.21,0,.61,0,1.23,0,1.84,0,.08-.02,.14-.06,.17h12.88s-.03-.09-.03-.21Z"/><path class="cls-1" d="M30.8,36.17h0c.9,0,1.63,.73,1.63,1.63v2.41h-3.26v-2.41c0-.9,.73-1.63,1.63-1.63Z"/><line class="cls-3" x1="45.51" y1="45.51" x2="57.95" y2="57.95"/></svg>