<?xml version="1.0" encoding="UTF-8"?><svg id="Layer_1" xmlns="http://www.w3.org/2000/svg" viewBox="0 0 512 512"><defs><style>.cls-1{fill:#fff;}.cls-2{fill:#f3f7e1;}.cls-3{fill:#ffcfc5;}.cls-4{fill:#48423b;}.cls-5{fill:#ffd600;}.cls-6{fill:#e1ab00;}.cls-7{fill:#ffce00;}.cls-8{fill:#1e0e00;}.cls-9{fill:#c2d767;}.cls-10{fill:#207e50;}.cls-11{fill:#eee;}</style></defs><path class="cls-2" d="M251.9,406.39c-13.41,5.65-28.04,9.18-42.5,7.57-14.46-1.62-28.71-8.91-36.48-21.21-7.39-11.7-8.21-26.89-3.68-39.97,3.06-8.83,8.45-17.23,8.34-26.58-.14-11.51-8.73-21.31-18.44-27.5-9.7-6.19-20.82-9.87-30.59-15.95-14.62-9.1-25.89-23.85-29.58-40.67-3.69-16.82,.67-35.48,12.36-48.12,14.69-15.88,37.76-20.38,59.29-22.54s44.21-3.16,62.63-14.48c22.62-13.91,33.93-40.26,51.81-59.89,16.21-17.8,38.32-30.12,61.98-34.56,14.06-2.63,29.48-2.29,41.54,5.4,10.04,6.4,16.58,17.17,20.58,28.38,10.02,28.11,5.19,61.05-12.48,85.1-6.39,8.7-14.33,16.29-19.63,25.7-5.3,9.4-7.52,21.61-1.84,30.79,4.22,6.8,11.85,10.59,17.7,16.05,11.34,10.58,15.39,26.79,17.03,42.21,1.35,12.75,1.16,26.59-6.12,37.15-6.79,9.84-18.61,15.04-30.31,17.53-11.7,2.49-23.78,2.77-35.47,5.31-34.31,7.45-54.68,37.03-86.15,50.3Z"/><path class="cls-8" d="M337.31,365.48c.03,4.63-3.69,8.41-8.32,8.45l-41.92,.3-30.48,.22-37.76,.27c-4.63,.03-8.41-3.69-8.45-8.32l-1.62-224.54c-.03-4.63,3.69-8.41,8.32-8.44l110.17-.8c4.63-.03,8.41,3.7,8.44,8.32l1.62,224.54Z"/><rect class="cls-11" x="215.79" y="148.98" width="114.56" height="218.59" rx="3.18" ry="3.18" transform="translate(-1.85 1.97) rotate(-.41)"/><g><rect class="cls-4" x="252.41" y="137.44" width="31.45" height="5.16" rx="2.58" ry="2.58" transform="translate(-1 1.93) rotate(-.41)"/><path class="cls-8" d="M292.02,139.85c.01,1.42-1.14,2.59-2.56,2.6-1.42,.01-2.59-1.14-2.6-2.56-.01-1.42,1.14-2.59,2.56-2.6,1.42-.01,2.59,1.14,2.6,2.56Z"/></g><g><path class="cls-10" d="M238.42,295.71c-8.02,1.69-15.32,5.84-23.26,7.86-10.37,2.64-21.49,1.48-31.52-2.24-6.38-2.37-12.51-5.87-16.82-11.13-4.31-5.26-6.58-12.48-4.81-19.05,2.51-9.31,11.95-14.92,16.84-23.24,7.53-12.83,3.03-29.47,7.66-43.61,1.73-5.27,4.69-10.05,7.79-14.64,4.35-6.44,9.13-12.72,15.28-17.47s13.87-7.86,21.61-7.19c4.27,.37,8.38,1.86,12.21,3.79,4.42,2.23,8.58,5.1,11.82,8.85,3.43,3.96,5.73,8.77,8.86,12.97,6.49,8.7,16.65,14.57,27.43,15.85,6.66,.79,13.6-.08,19.96,2.05,6.71,2.24,11.96,7.56,16.13,13.28,3.38,4.64,6.32,9.95,6.41,15.7,.15,10.44-9.11,18.72-18.72,22.8-9.61,4.08-20.29,5.56-29.42,10.64-2.21,1.23-4.35,2.7-5.86,4.73-2.36,3.19-2.89,7.37-2.88,11.34,.02,3.97,.49,7.98-.17,11.89-.67,3.91-2.76,7.87-6.4,9.47-7.46,3.27-8.76-4.3-12.13-8.24-4.56-5.34-13.7-5.71-20.01-4.39Z"/><g><path class="cls-7" d="M263.85,199.53l4.31,48.6c.07,.8-.12,1.57-.51,2.21-.34,.56-.83,1.03-1.41,1.35-.42,.23-.9,.37-1.41,.42l-79.65,7.07c-.55,.05-1.08-.03-1.57-.2-.62-.22-1.16-.61-1.58-1.11-.46-.55-.76-1.25-.83-2.02l-4.31-48.6c-.03-.34-.01-.66,.04-.98,.01-.06,.02-.12,.04-.18,.09-.38,.24-.74,.44-1.07,.01-.02,.02-.04,.04-.06,.02-.03,.03-.05,.05-.08,.02-.03,.04-.06,.07-.1,.6-.84,1.55-1.41,2.65-1.51l79.65-7.07c1.14-.1,2.2,.33,2.94,1.09,.02,.01,.03,.03,.04,.04,.12,.13,.24,.27,.34,.42,.29,.42,.5,.9,.6,1.43,.02,.08,.03,.16,.04,.24,0,.03,0,.07,.01,.11Z"/><path class="cls-6" d="M263.8,199.18l-38.02,28.14c-2.07,1.54-4.84,1.76-7.13,.57l-41.71-21.62c.01-.06,.02-.12,.04-.18,.09-.38,.24-.74,.44-1.07,.01-.02,.02-.04,.04-.06,.02-.03,.03-.05,.05-.08,1.1,.29,2.12,.57,2.58,.53l79.65-7.07c.47-.04,1.55-.47,2.8-.97,.02,.03,.09,.01,.18-.03,.03-.01,.06-.03,.1-.05,.02,.01,.03,.03,.04,.04,.12,.13,.24,.27,.34,.42,.29,.42,.5,.9,.6,1.43Z"/><path class="cls-5" d="M263.2,197.75l-35.97,26.4c-2.97,2.18-6.91,2.51-10.19,.85l-39.62-19.98s.02-.04,.04-.06c.02-.03,.03-.05,.05-.08,.02-.03,.04-.06,.07-.1,.6-.84,1.55-1.41,2.65-1.51l79.51-7.06c1.16-.1,2.22,.19,2.97,.97,0,0,.39,.42,.5,.57Z"/><path class="cls-6" d="M267.65,250.34c-.34,.56-.83,1.03-1.41,1.35l-43.88-21.91-38.74,29.2c-.62-.22-1.16-.61-1.58-1.11l39.67-29.9c.28-.21,.65-.24,.96-.09l44.98,22.46Z"/></g><g><path class="cls-7" d="M282.58,169.83l-9.17,26.7c-.15,.44-.43,.8-.79,1.05-.31,.22-.68,.35-1.06,.38-.28,.02-.56-.01-.84-.11l-43.75-15.03c-.3-.1-.56-.27-.78-.48-.27-.26-.47-.59-.57-.96-.11-.4-.11-.84,.04-1.26l9.17-26.7c.06-.18,.15-.35,.25-.51,.02-.03,.04-.06,.06-.09,.14-.18,.3-.34,.49-.46,.01,0,.02-.02,.03-.02,.01,0,.03-.02,.05-.03,.02-.01,.04-.02,.06-.04,.51-.3,1.15-.38,1.76-.17l43.75,15.03c.63,.22,1.09,.69,1.3,1.27,0,.01,0,.02,.01,.03,.03,.1,.06,.2,.08,.3,.06,.29,.05,.59-.02,.9-.01,.05-.02,.09-.04,.14,0,.02-.01,.04-.02,.06Z"/><path class="cls-6" d="M282.64,169.63l-26.72,5.91c-1.46,.32-2.97-.21-3.9-1.38l-16.94-21.25s.04-.06,.06-.09c.14-.18,.3-.34,.49-.46,.01,0,.02-.02,.03-.02,.01,0,.03-.02,.05-.03,.51,.42,.99,.8,1.24,.89l43.75,15.03c.26,.09,.93,.12,1.71,.15,0,.02,.04,.03,.1,.03,.02,0,.04,0,.06,0,0,.01,0,.02,.01,.03,.03,.1,.06,.2,.08,.3,.06,.29,.05,.59-.02,.9Z"/><path class="cls-5" d="M282.66,168.73l-25.22,5.47c-2.08,.45-4.24-.3-5.59-1.95l-16.22-19.89s.02-.02,.03-.02c.01,0,.03-.02,.05-.03,.02-.01,.04-.02,.06-.04,.51-.3,1.15-.38,1.76-.17l43.67,15.01c.64,.22,1.13,.62,1.34,1.21,0,0,.11,.32,.13,.42Z"/><path class="cls-6" d="M272.62,197.57c-.31,.22-.68,.35-1.06,.38l-18.02-21.92-27.35,6.3c-.27-.26-.47-.59-.57-.96l28-6.45c.2-.04,.4,.02,.53,.18l18.47,22.47Z"/></g></g><path class="cls-3" d="M394.26,425.45c-1.24,3.69-5,5.81-8.5,7.5-15.36,7.42-31.52,13.15-48.12,17.04-3.62,.84-7.49,1.6-10.99,.34-5.25-1.89-7.95-7.55-10.17-12.67-7.5-17.27-16.06-34.85-30.6-46.81-7.19-5.91-15.59-10.21-22.72-16.18-15.57-13.02-23.45-32.24-28.95-52.15-1.8-6.5-3.35-13.08-4.82-19.53-.39-1.68-.75-3.48-.09-5.07,.65-1.55,2.12-2.47,3.79-2.88,1.04-.27,2.15-.34,3.19-.25,5.59,.48,10.53,4.04,14.09,8.37,3.56,4.33,6.03,9.44,8.8,14.31,4.82,8.46,12.87,22.83,21.79,27.09,2.84-10.97,2.36-24.95,1.03-36.15-.68-5.79-.45-10.3-.45-16.13,0-6.87,1.57-19.5,2.32-26.34,1.93-17.41-4.02-30.28-10.47-46.57-2.17-5.48-4.15-12.52-1.43-17.13,.53-.91,1.25-1.72,2.17-2.41,3.67-2.72,9.11-1.64,12.65,1.22,1.37,1.11,2.54,2.44,3.56,3.88,1.61,2.27,2.87,4.83,4.08,7.34,2.61,5.36,9.55,20.91,12.44,26.12,8.57,15.48,8.02,35.2,8.55,35.24,.43,.03,.86,.06,1.28,.09,2.73,.16,5.42,.68,8.01,1.55,.85,.29,1.71,.55,2.58,.74,6.13,1.32,12.5-1.09,18.74-.49,3.46,.34,6.83,1.62,9.64,3.68,2.74,2.01,5.12,4.83,8.44,5.57,1.52,.34,3.1,.2,4.65,.25,2.9,.09,5.75,.88,8.31,2.2,2.36,1.22,4.49,2.89,6.25,4.89,.74,.85,1.29,1.76,1.77,2.69,2.43,9.2,1.53,19.8,.71,29.53-1.01,11.96-1.51,23.95-2.02,35.93-.4,9.28-.78,18.67,1.11,27.76,2.18,10.46,7.3,20.14,9.35,30.63,.44,2.24,.73,4.61,0,6.77Z"/><g><path class="cls-9" d="M169.21,201.16l-7.53-16.8c1.3-2.86,2.03-6.03,2.03-9.37,0-12.53-10.16-22.68-22.68-22.68s-22.68,10.16-22.68,22.68,10.16,22.68,22.68,22.68c3.09,0,6.03-.62,8.71-1.74l19.47,5.22Z"/><circle class="cls-1" cx="139.15" cy="172.91" r="16.69"/><path class="cls-9" d="M141.69,183.72h-5.67c-.67-.01-1.13-.06-1.4-.14-.49-.17-.73-.53-.73-1.09,0-.96,.75-1.44,2.24-1.44h.69s.59,.04,.59,.04c0-.46-.04-1.13-.12-2.03-.08-.9-.12-1.57-.12-2.01,0-1.21,.11-3.05,.33-5.52,.21-2.43,.31-4.27,.3-5.53-1.28,.99-2.09,1.49-2.44,1.49-.38,0-.71-.14-.99-.43-.28-.29-.42-.61-.42-.99,0-.45,.41-.99,1.23-1.63,.51-.36,1.24-.94,2.19-1.74,.84-.85,1.64-1.27,2.4-1.27,.64,0,.96,.37,.96,1.1,0,.22-.03,.55-.09,.98-.06,.43-.09,.76-.09,.98,0,.31,.02,.79,.05,1.43,.03,.64,.05,1.11,.05,1.43,0,1.09-.11,2.71-.34,4.86-.23,2.15-.34,3.77-.34,4.84,0,.55,.04,1.22,.11,2.01,.08,.79,.12,1.44,.13,1.94l1.5-.03c.4,0,.73,.13,.99,.39,.26,.26,.39,.59,.39,.98s-.13,.73-.39,.99c-.26,.26-.59,.39-.99,.39Z"/></g><path class="cls-9" d="M179.03,161.63c-1.73-5.42-3.13-11.35-1.22-16.71,.69-1.92,2.46-3.97,4.39-3.33,1.62,.54,2.1,2.56,2.31,4.26,1.09,8.79,1.9,17.63,2.27,26.48,.14,3.29-1.49,4.59-3.43,1.43-2.09-3.42-3.11-8.32-4.32-12.13Z"/><path class="cls-9" d="M143.99,215.9c-4.53,1.48-9.08,2.96-13.4,4.98-5.89,2.74-11.64,6.87-13.85,12.97-.57,1.56-.83,3.44,.17,4.77,1.18,1.56,3.5,1.59,5.42,1.22,9.73-1.88,16.91-9.81,24.19-16.55,4.72-4.37,11.19-8.06,15.27-12.92-2.63-.19-6.3,1.78-8.87,2.62-2.97,.97-5.94,1.94-8.91,2.91Z"/><path class="cls-9" d="M158.04,243.9c-1,2.21-1.85,4.57-1.73,6.99,.05,1.1,.64,2.46,1.73,2.38,.49-.03,.9-.37,1.24-.71,2.11-2.13,2.94-5.22,3.28-8.2,.12-1.03,1.31-7.04-.68-7.14-1.11-.06-3.4,5.71-3.84,6.69Z"/></svg>