<?xml version="1.0" encoding="UTF-8"?><svg id="pulpit" xmlns="http://www.w3.org/2000/svg" viewBox="0 0 64 64"><defs><style>.cls-1{fill:none;}.cls-1,.cls-2,.cls-3{stroke:#343435;stroke-linecap:round;stroke-linejoin:round;stroke-width:2px;}.cls-2{fill:#22e7bd;}.cls-3{fill:#5bb8fb;}</style></defs><path class="cls-1" d="M17.28,17.88v-4.4c0-2.07,.64-3.42,2.72-4.95l2.7-1.81"/><path class="cls-1" d="M24.82,7.68c1.56,0,2.84-1.28,2.84-2.84s-1.28-2.84-2.84-2.84-2.84,1.27-2.84,2.84,1.27,2.84,2.84,2.84h0Z"/><path class="cls-1" d="M46.72,17.88v-4.4c0-2.07-.63-3.42-2.71-4.95l-2.7-1.81"/><path class="cls-1" d="M39.18,7.68c1.57,0,2.84-1.28,2.84-2.84s-1.27-2.84-2.84-2.84-2.84,1.27-2.84,2.84,1.27,2.84,2.84,2.84h0Z"/><path class="cls-3" d="M20.91,62v-19.6c-.03-1.75,.73-2.99,2.31-3.68l8.78-4.07,8.78,4.07c1.58,.69,2.34,1.93,2.31,3.68v19.6"/><rect class="cls-1" x="13.42" y="27.79" width="37.17" height="34.21"/><path class="cls-2" d="M11.22,17.88H52.78c.75,0,1.36,.61,1.36,1.36v7.2c0,.75-.61,1.36-1.36,1.36H11.22c-.75,0-1.36-.61-1.36-1.36v-7.2c0-.75,.61-1.36,1.36-1.36h0Z"/></svg>