<?xml version="1.0" encoding="UTF-8"?><svg id="halal" xmlns="http://www.w3.org/2000/svg" viewBox="0 0 64 64"><defs><style>.cls-1{fill:#5bb8fb;}.cls-2{fill:none;}.cls-2,.cls-3{stroke:#343435;stroke-linecap:round;stroke-linejoin:round;stroke-width:2px;}.cls-3{fill:#22e7bd;}</style></defs><g><path class="cls-3" d="M52.3,55.4h-11.01c-.52,0-.95,.43-.95,.95v5.19c0,.52,.43,.95,.95,.95h11.01c.52,0,.95-.43,.95-.95v-5.19c0-.52-.43-.95-.95-.95h0Z"/><line class="cls-2" x1="51.4" y1="42.89" x2="51.4" y2="39.4"/><path class="cls-2" d="M51.4,42.89c-3.46,.59-3.53,2.71-3.53,5.43"/><line class="cls-2" x1="48.34" y1="40.5" x2="48.34" y2="33.45"/><line class="cls-2" x1="45.27" y1="40.61" x2="45.27" y2="33.99"/><line class="cls-2" x1="42.2" y1="41.12" x2="42.2" y2="36.75"/><path class="cls-2" d="M51.4,55.4v-2.25c2.3-1.42,3.85-3.97,3.85-6.86v-6.88c0-1.06-.86-1.92-1.92-1.92h0c-1.06,0-1.92,.86-1.92,1.92v-5.95c0-.84-.69-1.53-1.53-1.53h0c-.84,0-1.53,.69-1.53,1.53v-1.3c0-.84-.69-1.53-1.53-1.53h0c-.84,0-1.53,.69-1.53,1.53v1.84c0-.84-.69-1.53-1.53-1.53h0c-.84,0-1.53,.69-1.53,1.53v2.77c0-.84-.69-1.53-1.53-1.53h0c-.84,0-1.53,.69-1.53,1.53v9.53c0,2.54,1.2,4.82,3.05,6.3v2.81"/><line class="cls-2" x1="12.6" y1="42.89" x2="12.6" y2="39.4"/><path class="cls-2" d="M12.6,42.89c3.46,.59,3.53,2.71,3.53,5.43"/><line class="cls-2" x1="15.66" y1="40.5" x2="15.66" y2="33.45"/><line class="cls-2" x1="18.73" y1="40.61" x2="18.73" y2="33.99"/><line class="cls-2" x1="21.8" y1="41.12" x2="21.8" y2="36.75"/><path class="cls-2" d="M12.6,55.4v-2.25c-2.3-1.42-3.85-3.97-3.85-6.86v-6.88c0-1.06,.86-1.92,1.92-1.92s1.92,.86,1.92,1.92v-5.95c0-.84,.69-1.53,1.53-1.53h0c.84,0,1.53,.69,1.53,1.53v-1.3c0-.84,.69-1.53,1.53-1.53h0c.84,0,1.53,.69,1.53,1.53v1.84c0-.84,.69-1.53,1.53-1.53h0c.84,0,1.53,.69,1.53,1.53v2.77c0-.84,.69-1.53,1.53-1.53h0c.84,0,1.53,.69,1.53,1.53v9.53c0,2.54-1.2,4.82-3.05,6.3v2.81"/><path class="cls-3" d="M11.7,55.4h11.01c.52,0,.95,.43,.95,.95v5.19c0,.52-.43,.95-.95,.95H11.7c-.52,0-.95-.43-.95-.95v-5.19c0-.52,.43-.95,.95-.95h0Z"/></g><polygon class="cls-1" points="32 2.94 36.26 7.19 42.27 7.2 42.28 13.21 46.53 17.47 42.28 21.73 42.27 27.75 36.26 27.76 32 32 27.74 27.76 21.73 27.75 21.72 21.73 17.47 17.47 21.72 13.21 21.73 7.2 27.74 7.19 32 2.94"/><g><path class="cls-2" d="M34.12,12.69v5.36c0,.63-.41,1.27-1.31,1.27h-2.81"/><path class="cls-2" d="M29.97,13c.06,1.23,.56,3,2.08,3.94"/><path class="cls-2" d="M27.55,12.69v5.36c0,.63-.41,1.27-1.31,1.27h-2.03"/><polygon class="cls-2" points="32 2.94 36.26 7.19 42.27 7.2 42.28 13.21 46.53 17.47 42.28 21.73 42.27 27.75 36.26 27.76 32 32 27.74 27.76 21.73 27.75 21.72 21.73 17.47 17.47 21.72 13.21 21.73 7.2 27.74 7.19 32 2.94"/><path class="cls-2" d="M34.12,12.69v5.36c0,.63,.41,1.27,1.31,1.27h5.11c-1.22,0-1.16-1.61-2.2-2.2-.42-.24-.94-.34-1.45-.22"/></g></svg>