<?xml version="1.0" encoding="UTF-8"?><svg id="Layer_1" xmlns="http://www.w3.org/2000/svg" viewBox="0 0 512 512"><defs><style>.cls-1{fill:#fff;}.cls-2{fill:#f3f7e1;}.cls-3{fill:#ffcfc5;}.cls-4{fill:#48423b;}.cls-5{fill:#1e0e00;}.cls-6{fill:#c2d767;}.cls-7{fill:#207e50;}.cls-8{fill:#eee;}</style></defs><path class="cls-2" d="M195.59,352.07c-10.54,1.05-21.2,2.09-31.68,.61-23.94-3.39-43.84-19.3-64.25-32.28-18.46-11.74-40.41-24.46-43.55-46.11-3.18-21.9,15.05-40.87,33.41-53.23,18.35-12.37,39.67-23.52,48.57-43.78,6.23-14.18,5.14-30.33,7.22-45.68,2.94-21.71,13.08-43.05,30.58-56.23,17.5-13.17,42.8-16.71,61.75-5.73,30.96,17.93,36.73,65.94,70.05,78.98,17.77,6.95,40.04,2.05,54.75,14.2,7.68,6.34,11.57,16.25,13.28,26.06,2.24,12.88,.92,27.02-6.87,37.52-8.95,12.05-24.35,17.02-36.63,25.65-17.49,12.3-28.74,33.05-29.48,54.42-.3,8.67,.94,17.79-2.71,25.66-7.67,16.55-29.51,17-45.1,16.4-19.97-.77-39.42,1.55-59.33,3.53Z"/><path class="cls-3" d="M123.68,208.75c-7.82,5.26-6.73,16.73-7.35,26.13-1.32,20.23-14.48,38.54-14.35,58.81,.12,18.42,11.11,34.78,21.68,49.87,9.09,12.98,18.46,26.25,31.48,35.28,4.73,3.28,9.94,6,13.98,10.11,8.56,8.71,10.29,21.77,13.23,33.62,2.95,11.85,9.14,24.8,20.97,27.78,5.71,1.44,11.72,.22,17.47-1.07,20.49-4.59,40.79-10.04,60.83-16.34,4.22-1.33,8.6-2.8,11.69-5.97,4.08-4.2,5.03-10.54,4.71-16.39-.94-17.06-10.71-32.25-15.45-48.67-9.74-33.7,2.26-69.71,17.22-101.44,7.15-15.17,15.01-30,23.54-44.44,6.34-10.73,13.17-21.52,15.7-33.72,1.3-6.3-.04-14.84-6.36-16.08-5.12-1.01-9.4,3.68-12.6,7.81-7.46,9.64-15.45,18.88-23.92,27.66-1.47,1.52-3.24,3.15-5.35,2.98-3.79-.29-4.61-5.51-4.03-9.27,4.22-27.36,23.44-49.65,35.28-74.68,3.16-6.68,10.4-19.62,1.15-23.71-6.48-2.86-21.4,11.29-25.27,17.23-8.29,12.75-15.59,25.24-23.88,37.99-3.08,4.74-2.62,6.69-8.26,6.84-2.58-5.7-.58-12.31,1.41-18.24,6.86-20.45,13.35-41.02,19.46-61.7,1.38-4.68,2.04-11.07-2.38-13.15-2.28-1.07-4.98-.36-7.29,.62-13.8,5.8-21.15,21.81-26.75,35.7-5.6,13.88-10.45,26.64-18.59,39.2-8.01-5.31-3.68-7.18-1.22-16.46,3.46-13.07,5.78-32.08,7.58-49.34,.58-5.59,1.62-13.19-3.83-14.56-3.02-.76-6.02,1.19-8.32,3.28-6.52,5.91-11.12,13.62-14.96,21.54-19.07,39.32-20.88,85.05-14.92,128.35,.79,5.74,1.69,11.69,0,17.22-1.69,5.54-6.86,10.5-12.61,9.84-4.49-.52-7.92-4.12-10.92-7.5-6.02-6.77,1.46-17.54-6.2-22.23-6.41-3.92-36.05-7.31-42.56-2.93Z"/><path class="cls-5" d="M323.2,157.67l-69.54,217.42c-1.43,4.48-6.23,6.95-10.71,5.52l-106.67-34.12c-4.48-1.43-6.95-6.23-5.52-10.71l26.92-84.18,8.85-27.65,33.77-105.59c1.43-4.48,6.23-6.95,10.71-5.52l106.67,34.12c4.48,1.43,6.96,6.23,5.52,10.71Z"/><path class="cls-8" d="M313.52,167.31l-65,203.22c-.74,2.33-3.23,3.61-5.56,2.86l-102.5-32.78c-2.32-.74-3.61-3.23-2.86-5.56l9.82-30.71,18.73-58.55,36.44-113.96c.74-2.33,3.23-3.61,5.56-2.86l102.5,32.78c2.32,.74,3.61,3.23,2.87,5.56Z"/><g><rect class="cls-4" x="242.25" y="132.76" width="31.97" height="5.24" rx="2.62" ry="2.62" transform="translate(53.52 -72.23) rotate(17.74)"/><path class="cls-4" d="M281.37,142.78c-.44,1.38-1.92,2.14-3.29,1.7-1.38-.44-2.14-1.92-1.7-3.29,.44-1.38,1.92-2.14,3.29-1.7,1.38,.44,2.14,1.92,1.7,3.29Z"/></g><rect class="cls-6" x="154.63" y="133.96" width="109.05" height="40.86" rx="12" ry="12" transform="translate(56.22 -55.83) rotate(17.53)"/><path class="cls-6" d="M228.47,274.26l-13.46,42.63c-1.4,4.4-6.13,6.86-10.53,5.47l-57.06-18.03,18.73-58.55,56.85,17.96c4.4,1.39,6.86,6.13,5.47,10.52Z"/><rect class="cls-7" x="218.31" y="205.97" width="109.05" height="20.43" rx="10.22" ry="10.22" transform="translate(77.79 -72.14) rotate(17.53)"/><rect class="cls-7" x="245.31" y="194.05" width="34.57" height="109.05" rx="6.12" ry="6.12" transform="translate(-53.54 424.1) rotate(-72.47)"/><g><path class="cls-6" d="M294.77,182.56c-1.31,4.15-4.6,7.12-8.5,8.2-2.23,.62-4.66,.62-7.03-.13-2.6-.82-4.74-2.42-6.24-4.46-2.27-3.08-3.08-7.16-1.84-11.08,2.06-6.52,9.01-10.14,15.53-8.08,6.52,2.06,10.14,9.01,8.08,15.53Z"/><path class="cls-1" d="M286.26,190.76c-2.23,.62-4.66,.62-7.03-.13-2.6-.82-4.74-2.42-6.24-4.46,1.08-.5,2.33-.67,3.54-.67,.31,0,.73,.14,1.01,0,.45-.23,.72-.42,1-1.76,.03-.16-.47-.63-.59-.78-.76-.96-.44-2.16-.11-3.35,.1-.35,.18-.98,.08-1.06-.39-.32-.63-.94-.6-1.38,.1-1.66,1.12-1.42,1.17-1.67,.09-.4,.38-1.75,.47-2.03,.24-.75,.65-1.34,1.35-1.73,.84-.48,1.83-.61,2.8-.71,.97-.11,1.96-.21,2.82-.66-.11,.29-.21,.58-.32,.86,1.1,.19,2.22,.28,3.34,.26-.4,.22-.87,.61-.72,1.05,.07,.2,.25,.33,.42,.46,.75,.64,1.1,1.65,1.11,2.63,.01,.98-.29,1.94-.66,2.85-.06,.13,.22,.27,.3,.37,.43,.53,0,1.55-.41,1.86-.14,.11-.34,.21-.52,.24-.18,.03-.28,.44-.37,.69-.49,1.34-1.65,2.99-3.07,3.14-.35,.04-.7,.02-1.02,.16-.57,.25-.94,1.23-.79,1.84,.15,.61,.88,.56,1.27,1.05,.71,.9,1.38,1.85,1.77,2.93Z"/></g><g><path class="cls-6" d="M257.2,306.78c-1.31,4.15-4.6,7.12-8.5,8.2-2.23,.62-4.66,.62-7.03-.13-2.6-.82-4.74-2.42-6.24-4.46-2.27-3.08-3.08-7.16-1.84-11.08,2.06-6.52,9.01-10.14,15.53-8.08,6.52,2.06,10.14,9.01,8.08,15.53Z"/><path class="cls-1" d="M248.69,314.99c-2.23,.62-4.66,.62-7.03-.13-2.6-.82-4.74-2.42-6.24-4.46,1.08-.5,2.33-.67,3.54-.67,.31,0,.73,.14,1.01,0,.45-.23,.72-.42,1-1.76,.03-.16-.47-.63-.59-.78-.76-.96-.44-2.16-.11-3.35,.1-.35,.18-.98,.08-1.06-.39-.32-.63-.94-.6-1.38,.1-1.66,1.12-1.42,1.17-1.67,.09-.4,.38-1.75,.47-2.03,.24-.75,.65-1.34,1.35-1.73,.84-.48,1.83-.61,2.8-.71,.97-.11,1.96-.21,2.82-.66-.11,.29-.21,.58-.32,.86,1.1,.19,2.22,.28,3.34,.26-.4,.22-.87,.61-.72,1.05,.07,.2,.25,.33,.42,.46,.75,.64,1.1,1.65,1.11,2.63,.01,.98-.29,1.94-.66,2.85-.06,.13,.22,.27,.3,.37,.43,.53,0,1.55-.41,1.86-.14,.11-.34,.21-.52,.24-.18,.03-.28,.44-.37,.69-.49,1.34-1.65,2.99-3.07,3.14-.35,.04-.7,.02-1.02,.16-.57,.25-.94,1.23-.79,1.84,.15,.61,.88,.56,1.27,1.05,.71,.9,1.38,1.85,1.77,2.93Z"/></g><g><path class="cls-7" d="M211.19,197.01c-1.28,4.05-4.5,6.96-8.31,8.01-2.18,.61-4.55,.61-6.87-.12-2.54-.8-4.62-2.36-6.09-4.35-2.21-3-3.01-6.99-1.8-10.82,2.01-6.37,8.8-9.9,15.17-7.89,6.37,2.01,9.9,8.8,7.89,15.17Z"/><path class="cls-1" d="M205.11,199.79c.6-.73,1.66-1.2,1.77-2.13,.06-.47-.16-.94-.14-1.42,.03-.95,.98-1.72,.93-2.67-.03-.73-.64-1.31-.8-2.03-.18-.8,.21-1.6,.51-2.36,.09-.23,.18-.48,.14-.73-.04-.23-.18-.43-.32-.62-.63-.85-1.26-1.71-1.89-2.56-.13-.18-.27-.36-.48-.42-.61-.18-.73-.18-1.19-.62-.5-.48-1.15-.82-1.81-.99-.13-.03-.28-.06-.38,.03-.1,.09-.09,.24-.13,.37-.09,.31-.46,.44-.78,.49-.96,.14-1.94,0-2.89,.16-.95,.16-1.95,.76-2.11,1.71-.06,.37,0,.74-.01,1.11-.02,.58-.26,1.15-.66,1.58-.69,.75-1.9,1.17-2.05,2.18-.05,.33,.03,.66,.07,1,.16,1.34-.41,2.74-1.47,3.58-.28,.22-.6,.41-.78,.72-.41,.72,.12,1.7-.27,2.43-.15,.28-.43,.49-.55,.79-.15,.38,0,.79,.28,1.1-.06,.03-.13,.04-.18,.07,1.47,1.99,3.55,3.55,6.09,4.35,2.31,.73,4.69,.73,6.87,.12-.13-.35-.29-.68-.47-1.01,.54-.03,1.07-.2,1.56-.44,.17-.08,.34-.18,.46-.33,.26-.34,.15-.83,.1-1.26-.09-.77,.09-1.59,.58-2.19Z"/></g><path class="cls-3" d="M199.47,228.27c-.04,1.02-.52,1.98-1.06,2.85-1.04,1.67-2.31,3.11-3.75,4.34-6.21,5.31-15.65,6.78-24.15,7.37-11.63,.8-61.81,.52-42.64-25.63,8.24-11.24,26-8.82,39.88-5.12,5.28,1.41,10,3,13.42,4.11,5.27,1.7,10.53,3.71,14.99,7,1.7,1.25,3.4,2.99,3.3,5.09Z"/></svg>