<?xml version="1.0" encoding="UTF-8"?><svg id="cow" xmlns="http://www.w3.org/2000/svg" viewBox="0 0 64 64"><defs><style>.cls-1{fill:none;}.cls-1,.cls-2,.cls-3{stroke:#343435;stroke-linecap:round;stroke-linejoin:round;stroke-width:2px;}.cls-2{fill:#22e7bd;}.cls-3{fill:#5bb8fb;}</style></defs><line class="cls-1" x1="36.83" y1="49.67" x2="36.86" y2="49.65"/><line class="cls-1" x1="27.7" y1="49.67" x2="27.73" y2="49.65"/><path class="cls-1" d="M20.55,50.43l-.02-.07s.01,.04,.02,.07h0Zm22.9,0v-.07s0,.04,0,.07h0Zm-11.45,3.11c4.79,0,10.01,3.17,11.45-3.11,0-.02,.01-.05,.01-.07v.54c0,4.59-5.39,9.1-11.46,9.1s-11.46-4.51-11.46-9.1v-.54s.01,.04,.02,.07c1.43,6.28,6.66,3.11,11.45,3.11h0Z"/><path class="cls-2" d="M32,9.87c-8.42,0-15.57,5.61-18.09,13.4-.63,1.94-.97,4.02-.97,6.18,0,10.48,5.36,10.82,7.59,20.91v-.38c0-3.88,5.73-5.82,11.46-5.82s11.46,1.94,11.46,5.82v.38c2.23-10.08,7.59-10.43,7.59-20.91,0-2.16-.34-4.24-.97-6.18-2.52-7.79-9.67-13.4-18.09-13.4h0Z"/><path class="cls-1" d="M15.18,20.24c-3.35-2.52-10-2.88-13.18,1.29,0,7.68,6.41,10.04,11,9.79"/><path class="cls-1" d="M48.81,20.24c3.35-2.52,10-2.88,13.19,1.29,0,7.68-6.41,10.04-11.01,9.79"/><line class="cls-1" x1="41.14" y1="26.61" x2="41.18" y2="29.41"/><line class="cls-1" x1="23.71" y1="26.61" x2="23.75" y2="29.41"/><path class="cls-3" d="M47.36,4.45c-1.75-1.06-3.74-.14-5.36,1.8l-3.88,4.66c3,1.05,5.66,2.84,7.78,5.16,.02-.05,.04-.1,.07-.15l2.41-5.81c.91-2.21,.8-4.56-1.02-5.66h0Z"/><path class="cls-3" d="M16.64,4.45c1.76-1.06,3.74-.14,5.36,1.8l3.88,4.66c-3,1.05-5.66,2.84-7.78,5.16-.02-.05-.05-.1-.07-.15l-2.41-5.81c-.92-2.21-.8-4.56,1.02-5.66h0Z"/></svg>