<?xml version="1.0" encoding="UTF-8"?><svg id="holy_book" xmlns="http://www.w3.org/2000/svg" viewBox="0 0 64 64"><defs><style>.cls-1{fill:none;}.cls-1,.cls-2,.cls-3{stroke:#343435;stroke-linecap:round;stroke-linejoin:round;stroke-width:2px;}.cls-2{fill:#22e7bd;}.cls-3{fill:#5bb8fb;}</style></defs><g><path class="cls-2" d="M50.71,58.16v-16.04c0-.96,.79-1.75,1.75-1.75h7.8c.96,0,1.75,.79,1.75,1.75v16.04c0,.96-.79,1.75-1.75,1.75h-7.8c-.96,0-1.75-.79-1.75-1.75h0Z"/><path class="cls-1" d="M25.25,49.68c-4.17-1.02-4.9-6.7,1.2-7.63l8.56-1.31c2.94-.2,6.01-1.62,12.14,3.12h3.57m0,13.61h-5.72l-12.39,1.25c-1.52,.24-2.24,.36-3.72-.04l-24.79-6.99c-3.7-1.18-2.06-6.18,1.51-5.38l19.65,3.37,9.81-.71"/></g><path class="cls-3" d="M21.63,7.05h0s0,0,0,0c-3.96-3.79-10.24-3.74-14.13,.15-3.9,3.9-3.94,10.17-.15,14.13h0s.16,.17,.16,.17h0s14.14,14.14,14.14,14.14l14.3-14.3h0c3.95-3.95,3.95-10.35,0-14.3h0c-3.95-3.95-10.35-3.95-14.3,0Z"/></svg>