<?xml version="1.0" encoding="UTF-8"?><svg id="tawaf" xmlns="http://www.w3.org/2000/svg" viewBox="0 0 64 64"><defs><style>.cls-1{fill:none;}.cls-1,.cls-2,.cls-3{stroke:#343435;stroke-linecap:round;stroke-linejoin:round;stroke-width:2px;}.cls-2{fill:#22e7bd;}.cls-3{fill:#5bb8fb;}</style></defs><polyline class="cls-1" points="7.29 14.77 7.29 49.23 32 60.08 56.71 49.23 56.71 14.77"/><line class="cls-1" x1="32" y1="60.08" x2="32" y2="25.61"/><polyline class="cls-1" points="56.71 21.46 32 32.31 7.29 21.46"/><polyline class="cls-1" points="56.71 26.16 32 37 7.29 26.16"/><polyline class="cls-1" points="56.71 44.46 32 55.3 7.29 44.46"/><polygon class="cls-3" points="32 3.92 56.71 14.77 32 25.61 7.29 14.77 32 3.92"/><polyline class="cls-1" points="56.71 40.44 32 51.29 7.29 40.44 16.65 44.55"/><polygon class="cls-2" points="16.65 44.55 16.65 30.27 7.29 26.16 7.29 40.44 16.65 44.55"/></svg>