<?xml version="1.0" encoding="UTF-8"?><svg id="Layer_1" xmlns="http://www.w3.org/2000/svg" viewBox="0 0 512 512"><defs><style>.cls-1,.cls-2{fill:#fff;}.cls-3{fill:#f3f7e1;}.cls-2{fill-rule:evenodd;}.cls-4{fill:#ffcfc5;}.cls-5{fill:#48423b;}.cls-6{fill:#1e0e00;}.cls-7{fill:#c2d767;}.cls-8{fill:#207e50;}.cls-9{fill:#eee;}</style></defs><g><path class="cls-3" d="M128.8,346.73c-9.2-4.64-18.36-9.7-25.76-16.88-14-13.59-20.38-34.57-16.3-53.66,5.35-25.07,26.44-43.87,35.23-67.95,6.94-18.99,5.84-40.22,13.03-59.11,7.99-20.99,25.31-36.9,42.87-50.92,14.88-11.88,32.33-23.59,51.27-21.58,17.29,1.84,31.08,14.62,46.45,22.74,17.97,9.49,39.17,12.73,59.15,9.03,16.98-3.14,34.33-11.09,50.78-5.84,7.34,2.34,13.66,7.17,19.01,12.71,10.79,11.16,18.16,25.59,20.89,40.88,1.37,7.72,1.57,15.75-.5,23.31-2.41,8.79-7.78,16.54-14.18,23.03-21.2,21.5-52.54,29.56-76.42,48.02-19.72,15.25-33.8,37.63-39.01,62.01-3.48,16.28-3.23,33.67-10.56,48.61-11.9,24.27-45.34,36.02-69.56,23.77-28.08-14.2-58.09-23.92-86.4-38.19Z"/><g><rect class="cls-6" x="179.54" y="124.92" width="127.87" height="243.09" rx="6.17" ry="6.17"/><rect class="cls-9" x="185.77" y="141" width="115.41" height="220.2" rx="3.2" ry="3.2"/><g><rect class="cls-5" x="223.51" y="129.34" width="31.68" height="5.19" rx="2.6" ry="2.6"/><circle class="cls-5" cx="260.82" cy="131.94" r="2.6"/></g></g><path class="cls-7" d="M256.3,116.98c-5.69,5.47-6.03,14.28-8.74,21.7-3.65,10.01-12.39,18.01-22.68,20.78-7.5,2.01-15.45,1.36-23.1,2.69-12.66,2.2-23.77,9.7-33.47,18.13-5.8,5.04-11.55,11.05-12.65,18.65-1.07,7.39,2.54,14.66,6.91,20.71,4.38,6.05,9.67,11.53,12.82,18.3,5.45,11.72,3.69,25.35,5.13,38.2,2.11,18.83,12.21,37.28,28.68,46.64,16.47,9.36,39.3,7.82,52.5-5.76,11.91-12.25,14.13-30.65,20.92-46.33,4.58-10.58,11.44-20.16,19.97-27.91,14.16-12.86,33.22-21.18,42.54-37.88,9.44-16.91,5.94-39.01-5.21-54.85-10.59-15.06-25.82-22.58-41.56-31.01-12.03-6.44-30.39-13.26-42.07-2.04Z"/><path class="cls-4" d="M247.25,440.39c-2.51,4.24-7.77,5.84-12.59,6.82-19.74,4-40.07,3.39-60.2,2.75-12.71-.4-25.69-.85-37.58-5.35,4.69-16.63,.77-34.3-2.13-51.35-7.82-46.12-7.8-93.56,.07-139.66,1.25-7.28,2.72-14.65,6.05-21.24,6.23-12.37,18.13-20.65,28.04-30.32,1.41-1.37,2.77-2.78,4.1-4.22,4.57-4.92,8.72-10.22,12.38-15.84,2.12-3.25,4.16-6.7,7.31-8.97,3.15-2.27,7.79-3.02,10.82-.59,.26,.21,.51,.44,.72,.68,2.49,2.67,2.58,6.96,2.44,10.71-.55,14.26-1.32,29.25-8.9,41.33-5.59,8.9-14.67,15.84-17.55,25.94-1.43,5.03-1.16,10.37-.88,15.59,1.58,29.06,3.15,58.13,4.73,87.19,.17,3.2,.43,6.63,2.42,9.15,8.41,10.59,42.39,3.95,54.53,6.89,1.09,.27,2.24,.6,3.01,1.41,1.31,1.41,1.01,3.61,.68,5.5-2.77,15.75-2.04,32.1,2.13,47.53,1.43,5.32,3.2,11.31,.39,16.05Z"/><path class="cls-4" d="M331.79,294.92c-2.95,11-10.55,20.12-18.62,28.15-2.26,2.25-4.94,4.53-7.8,5.96-2.81,1.41-5.8,2.01-8.75,.96-4.78-1.69-7.24-7.35-6.71-12.39,.04-.4,.1-.8,.17-1.2,.81-4.56,3.46-8.64,6.31-12.33,5.72-7.38,14.42-18.39,22.95-22.57,9.6-4.7,14.89,4.33,12.45,13.43Z"/><path class="cls-4" d="M332.06,255.35c-.1,8.79-4.45,17-9.67,24.08-4.49,6.1-10.21,11.91-17.01,14.84-2.42,1.05-4.97,1.72-7.66,1.92-3.34,.24-6.99-.43-9.24-2.9-1.96-2.16-2.48-5.28-2.32-8.18,.1-1.84,.43-3.64,.93-5.41,1.18-4.16,3.28-8.12,5.45-11.9,5.1-8.88,12.12-24.37,20.71-30.27,10.62-7.28,18.91,8.65,18.81,17.82Z"/><path class="cls-4" d="M323.52,209.25c.03,14.64-8.32,27.82-16.38,40.04-2.06,3.12-4.18,6.32-7.21,8.52-.24,.17-.47,.33-.72,.49-2.94,1.86-6.73,2.62-9.85,1.13-4.92-2.35-6-8.91-5.39-14.33,.16-1.42,.46-3.05,.9-4.84h0c3.79-15.55,17.49-42.71,33.03-39.12,1.36,.32,2.73,.83,3.72,1.82,1.59,1.59,1.89,4.05,1.9,6.3Z"/><g><rect class="cls-8" x="174.64" y="64.99" width="59.19" height="59.19" rx="12" ry="12" transform="translate(-15.71 46.83) rotate(-12.6)"/><path class="cls-1" d="M211.7,111.45c3.82-1.13,7.55-2.7,11.18-4.71,0,0-3.94-1.74-4.25-5.39-.26-3.1-.74-20.59-11.71-22.67,0-.34-.04-.69-.11-1.04-.58-2.58-3.16-4.22-5.74-3.64l-2.71,.61c-2.58,.58-4.22,3.16-3.64,5.74,.08,.35,.19,.68,.34,.99-9.05,6.55-2.03,22.58-.94,25.5,1.28,3.43-1.55,6.68-1.55,6.68,4.14,.28,8.18,.11,12.12-.49l.06,.27c.29,1.3,1.59,2.12,2.88,1.83l2.31-.52c1.3-.29,2.12-1.59,1.83-2.88l-.06-.27Z"/></g></g><g><circle class="cls-8" cx="248.23" cy="223.26" r="34.14"/><g id="WA_Logo"><path class="cls-2" d="M264.65,207.26c-4.09-4.09-9.53-6.35-15.32-6.35-11.94,0-21.65,9.71-21.66,21.65,0,3.82,1,7.54,2.89,10.82l-3.07,11.22,11.48-3.01c3.16,1.72,6.72,2.63,10.35,2.64h0s0,0,0,0c11.94,0,21.65-9.71,21.66-21.65,0-5.78-2.25-11.22-6.34-15.32Zm-15.32,33.31h0c-3.23,0-6.4-.87-9.16-2.51l-.66-.39-6.81,1.79,1.82-6.64-.43-.68c-1.8-2.86-2.75-6.18-2.75-9.58,0-9.92,8.08-17.99,18.01-17.99,4.81,0,9.33,1.88,12.73,5.28,3.4,3.4,5.27,7.92,5.27,12.73,0,9.92-8.08,17.99-18,17.99Zm9.87-13.48c-.54-.27-3.2-1.58-3.7-1.76-.5-.18-.86-.27-1.22,.27-.36,.54-1.4,1.76-1.71,2.12-.32,.36-.63,.41-1.17,.14-.54-.27-2.28-.84-4.35-2.68-1.61-1.43-2.69-3.21-3.01-3.75s-.03-.83,.24-1.1c.24-.24,.54-.63,.81-.95,.27-.32,.36-.54,.54-.9,.18-.36,.09-.68-.05-.95-.14-.27-1.22-2.93-1.67-4.02-.44-1.05-.89-.91-1.22-.93-.32-.02-.68-.02-1.04-.02s-.95,.14-1.44,.68c-.5,.54-1.89,1.85-1.89,4.51s1.94,5.23,2.21,5.6c.27,.36,3.82,5.82,9.24,8.17,1.29,.56,2.3,.89,3.08,1.14,1.3,.41,2.48,.35,3.41,.21,1.04-.16,3.2-1.31,3.65-2.57,.45-1.26,.45-2.35,.32-2.57-.14-.23-.5-.36-1.04-.63Z"/></g></g></svg>