<?xml version="1.0" encoding="UTF-8"?><svg id="holy_book" xmlns="http://www.w3.org/2000/svg" viewBox="0 0 64 64"><defs><style>.cls-1{fill:none;}.cls-1,.cls-2,.cls-3{stroke:#343435;stroke-linecap:round;stroke-linejoin:round;stroke-width:2px;}.cls-2{fill:#22e7bd;}.cls-3{fill:#5bb8fb;}</style></defs><g><path class="cls-1" d="M11.11,34.67l-.56-1.08c-1.95-3.73,3.44-7.07,5.91-2.98l2.98,5.37c1.45,2.94,1.91,3.02,1.21,7.43l-1.45,9.19m-10.24,0v-2.97c-.01-1.64-.74-2.69-1.45-3.69l-3.15-4.47c-.74-1.05-1.53-2.01-2.01-3.69-1.55-5.36,2.59-21.76,2.8-24.29,.8-4.27,5.74-3,5.33-.17l-1.22,15.01c-.14,1.69-.25,2.32,.53,3.82l3.46,6.61"/><path class="cls-2" d="M8.25,52.6h12.32c.69,0,1.26,.56,1.26,1.26v5.62c0,.69-.56,1.26-1.26,1.26H8.25c-.69,0-1.26-.57-1.26-1.26v-5.62c0-.69,.56-1.26,1.26-1.26h0Z"/><path class="cls-2" d="M55.75,52.6h-12.33c-.69,0-1.26,.56-1.26,1.26v5.62c0,.69,.57,1.26,1.26,1.26h12.33c.69,0,1.26-.57,1.26-1.26v-5.62c0-.69-.57-1.26-1.26-1.26h0Z"/><path class="cls-1" d="M52.89,34.67l.56-1.08c1.94-3.73-3.44-7.07-5.92-2.98l-2.98,5.37c-1.45,2.94-1.91,3.02-1.21,7.43l1.45,9.19m10.25,0v-2.97c0-1.64,.74-2.69,1.45-3.69l3.15-4.47c.74-1.05,1.53-2.01,2.01-3.69,1.55-5.36-2.6-21.76-2.81-24.29-.8-4.27-5.74-3-5.33-.17l1.22,15.01c.14,1.69,.25,2.32-.53,3.82l-3.45,6.61"/></g><path class="cls-3" d="M31.93,5.68h0s0,0,0,0c-3.24-3.09-8.37-3.06-11.55,.13-3.18,3.18-3.22,8.31-.13,11.55h0s.13,.14,.13,.14h0s11.55,11.55,11.55,11.55l11.69-11.69h0c3.23-3.23,3.23-8.46,0-11.69h0c-3.23-3.23-8.46-3.23-11.69,0Z"/></svg>