<?xml version="1.0" encoding="UTF-8"?><svg id="infaq" xmlns="http://www.w3.org/2000/svg" viewBox="0 0 64 64"><defs><style>.cls-1{fill:none;}.cls-1,.cls-2,.cls-3{stroke:#343435;stroke-linecap:round;stroke-linejoin:round;stroke-width:2px;}.cls-2{fill:#22e7bd;}.cls-3{fill:#5bb8fb;}</style></defs><g><line class="cls-1" x1="17.36" y1="30.2" x2="46.64" y2="30.2"/><path class="cls-2" d="M19.78,30.2V9.34c0-1.09,.89-1.98,1.98-1.98h20.47c1.09,0,1.98,.89,1.98,1.98V30.2"/><rect class="cls-3" x="2" y="36.11" width="60" height="20.53"/><polyline class="cls-1" points="44.87 24.94 53.24 24.94 62 36.11 2 36.11 10.75 24.94 19.13 24.94"/><line class="cls-1" x1="50.74" y1="46.36" x2="13.26" y2="46.4"/></g><g><path class="cls-1" d="M25.69,16.02s2.62-1.61,2.94,.69-2.94,4.17-2.94,4.17h3.25"/><line class="cls-1" x1="32.2" y1="20.18" x2="31.49" y2="21.96"/><path class="cls-1" d="M38.31,15.65h-2.59l-.3,2.45s2.62-.57,2.62,1.41-2.44,1.97-3.09,1.31"/></g></svg>